G04 #@! TF.FileFunction,Legend,Top*
%FSLAX46Y46*%
G04 Gerber Fmt 4.6, Leading zero omitted, Abs format (unit mm)*
G04 Created by KiCad (PCBNEW (2016-07-28 BZR 6996, Git e15ad93)-product) date Mon Aug  8 00:28:43 2016*
%MOMM*%
%LPD*%
G01*
G04 APERTURE LIST*
%ADD10C,0.100000*%
%ADD11C,0.076200*%
%ADD12C,0.300000*%
%ADD13C,0.127000*%
%ADD14C,0.381000*%
%ADD15C,0.150000*%
%ADD16C,1.270000*%
%ADD17C,0.149860*%
G04 APERTURE END LIST*
D10*
D11*
X6392333Y39013191D02*
X6223000Y39255096D01*
X6102047Y39013191D02*
X6102047Y39521191D01*
X6295571Y39521191D01*
X6343952Y39497000D01*
X6368142Y39472810D01*
X6392333Y39424429D01*
X6392333Y39351858D01*
X6368142Y39303477D01*
X6343952Y39279286D01*
X6295571Y39255096D01*
X6102047Y39255096D01*
X6561666Y39521191D02*
X6900333Y39013191D01*
X6900333Y39521191D02*
X6561666Y39013191D01*
X7263190Y39279286D02*
X7335761Y39255096D01*
X7359952Y39230905D01*
X7384142Y39182524D01*
X7384142Y39109953D01*
X7359952Y39061572D01*
X7335761Y39037381D01*
X7287380Y39013191D01*
X7093857Y39013191D01*
X7093857Y39521191D01*
X7263190Y39521191D01*
X7311571Y39497000D01*
X7335761Y39472810D01*
X7359952Y39424429D01*
X7359952Y39376048D01*
X7335761Y39327667D01*
X7311571Y39303477D01*
X7263190Y39279286D01*
X7093857Y39279286D01*
X6216952Y40742810D02*
X6241142Y40767000D01*
X6289523Y40791191D01*
X6410476Y40791191D01*
X6458857Y40767000D01*
X6483047Y40742810D01*
X6507238Y40694429D01*
X6507238Y40646048D01*
X6483047Y40573477D01*
X6192761Y40283191D01*
X6507238Y40283191D01*
X6942666Y40621858D02*
X6942666Y40283191D01*
X6821714Y40815381D02*
X6700761Y40452524D01*
X7015238Y40452524D01*
X6216952Y42012810D02*
X6241142Y42037000D01*
X6289523Y42061191D01*
X6410476Y42061191D01*
X6458857Y42037000D01*
X6483047Y42012810D01*
X6507238Y41964429D01*
X6507238Y41916048D01*
X6483047Y41843477D01*
X6192761Y41553191D01*
X6507238Y41553191D01*
X6942666Y42061191D02*
X6845904Y42061191D01*
X6797523Y42037000D01*
X6773333Y42012810D01*
X6724952Y41940239D01*
X6700761Y41843477D01*
X6700761Y41649953D01*
X6724952Y41601572D01*
X6749142Y41577381D01*
X6797523Y41553191D01*
X6894285Y41553191D01*
X6942666Y41577381D01*
X6966857Y41601572D01*
X6991047Y41649953D01*
X6991047Y41770905D01*
X6966857Y41819286D01*
X6942666Y41843477D01*
X6894285Y41867667D01*
X6797523Y41867667D01*
X6749142Y41843477D01*
X6724952Y41819286D01*
X6700761Y41770905D01*
X5962952Y43204191D02*
X6253238Y43204191D01*
X6108095Y42696191D02*
X6108095Y43204191D01*
X6374190Y43204191D02*
X6712857Y42696191D01*
X6712857Y43204191D02*
X6374190Y42696191D01*
X7075714Y42962286D02*
X7148285Y42938096D01*
X7172476Y42913905D01*
X7196666Y42865524D01*
X7196666Y42792953D01*
X7172476Y42744572D01*
X7148285Y42720381D01*
X7099904Y42696191D01*
X6906380Y42696191D01*
X6906380Y43204191D01*
X7075714Y43204191D01*
X7124095Y43180000D01*
X7148285Y43155810D01*
X7172476Y43107429D01*
X7172476Y43059048D01*
X7148285Y43010667D01*
X7124095Y42986477D01*
X7075714Y42962286D01*
X6906380Y42962286D01*
X5932714Y43966191D02*
X5932714Y44474191D01*
X6102047Y44111334D01*
X6271380Y44474191D01*
X6271380Y43966191D01*
X6610047Y44474191D02*
X6706809Y44474191D01*
X6755190Y44450000D01*
X6803571Y44401620D01*
X6827761Y44304858D01*
X6827761Y44135524D01*
X6803571Y44038762D01*
X6755190Y43990381D01*
X6706809Y43966191D01*
X6610047Y43966191D01*
X6561666Y43990381D01*
X6513285Y44038762D01*
X6489095Y44135524D01*
X6489095Y44304858D01*
X6513285Y44401620D01*
X6561666Y44450000D01*
X6610047Y44474191D01*
X7021285Y43990381D02*
X7093857Y43966191D01*
X7214809Y43966191D01*
X7263190Y43990381D01*
X7287380Y44014572D01*
X7311571Y44062953D01*
X7311571Y44111334D01*
X7287380Y44159715D01*
X7263190Y44183905D01*
X7214809Y44208096D01*
X7118047Y44232286D01*
X7069666Y44256477D01*
X7045476Y44280667D01*
X7021285Y44329048D01*
X7021285Y44377429D01*
X7045476Y44425810D01*
X7069666Y44450000D01*
X7118047Y44474191D01*
X7239000Y44474191D01*
X7311571Y44450000D01*
X7529285Y43966191D02*
X7529285Y44474191D01*
X5932714Y45109191D02*
X5932714Y45617191D01*
X6102047Y45254334D01*
X6271380Y45617191D01*
X6271380Y45109191D01*
X6513285Y45109191D02*
X6513285Y45617191D01*
X6731000Y45133381D02*
X6803571Y45109191D01*
X6924523Y45109191D01*
X6972904Y45133381D01*
X6997095Y45157572D01*
X7021285Y45205953D01*
X7021285Y45254334D01*
X6997095Y45302715D01*
X6972904Y45326905D01*
X6924523Y45351096D01*
X6827761Y45375286D01*
X6779380Y45399477D01*
X6755190Y45423667D01*
X6731000Y45472048D01*
X6731000Y45520429D01*
X6755190Y45568810D01*
X6779380Y45593000D01*
X6827761Y45617191D01*
X6948714Y45617191D01*
X7021285Y45593000D01*
X7335761Y45617191D02*
X7432523Y45617191D01*
X7480904Y45593000D01*
X7529285Y45544620D01*
X7553476Y45447858D01*
X7553476Y45278524D01*
X7529285Y45181762D01*
X7480904Y45133381D01*
X7432523Y45109191D01*
X7335761Y45109191D01*
X7287380Y45133381D01*
X7239000Y45181762D01*
X7214809Y45278524D01*
X7214809Y45447858D01*
X7239000Y45544620D01*
X7287380Y45593000D01*
X7335761Y45617191D01*
X5950857Y46530381D02*
X6023428Y46506191D01*
X6144380Y46506191D01*
X6192761Y46530381D01*
X6216952Y46554572D01*
X6241142Y46602953D01*
X6241142Y46651334D01*
X6216952Y46699715D01*
X6192761Y46723905D01*
X6144380Y46748096D01*
X6047619Y46772286D01*
X5999238Y46796477D01*
X5975047Y46820667D01*
X5950857Y46869048D01*
X5950857Y46917429D01*
X5975047Y46965810D01*
X5999238Y46990000D01*
X6047619Y47014191D01*
X6168571Y47014191D01*
X6241142Y46990000D01*
X6749142Y46554572D02*
X6724952Y46530381D01*
X6652380Y46506191D01*
X6604000Y46506191D01*
X6531428Y46530381D01*
X6483047Y46578762D01*
X6458857Y46627143D01*
X6434666Y46723905D01*
X6434666Y46796477D01*
X6458857Y46893239D01*
X6483047Y46941620D01*
X6531428Y46990000D01*
X6604000Y47014191D01*
X6652380Y47014191D01*
X6724952Y46990000D01*
X6749142Y46965810D01*
X6966857Y46506191D02*
X6966857Y47014191D01*
X7257142Y46506191D02*
X7039428Y46796477D01*
X7257142Y47014191D02*
X6966857Y46723905D01*
X6197947Y48470820D02*
X6616095Y48470820D01*
X6519333Y47824572D02*
X6495142Y47800381D01*
X6422571Y47776191D01*
X6374190Y47776191D01*
X6301619Y47800381D01*
X6253238Y47848762D01*
X6229047Y47897143D01*
X6204857Y47993905D01*
X6204857Y48066477D01*
X6229047Y48163239D01*
X6253238Y48211620D01*
X6301619Y48260000D01*
X6374190Y48284191D01*
X6422571Y48284191D01*
X6495142Y48260000D01*
X6519333Y48235810D01*
X6616095Y48470820D02*
X7099904Y48470820D01*
X6712857Y47800381D02*
X6785428Y47776191D01*
X6906380Y47776191D01*
X6954761Y47800381D01*
X6978952Y47824572D01*
X7003142Y47872953D01*
X7003142Y47921334D01*
X6978952Y47969715D01*
X6954761Y47993905D01*
X6906380Y48018096D01*
X6809619Y48042286D01*
X6761238Y48066477D01*
X6737047Y48090667D01*
X6712857Y48139048D01*
X6712857Y48187429D01*
X6737047Y48235810D01*
X6761238Y48260000D01*
X6809619Y48284191D01*
X6930571Y48284191D01*
X7003142Y48260000D01*
X5975047Y48943381D02*
X6047619Y48919191D01*
X6168571Y48919191D01*
X6216952Y48943381D01*
X6241142Y48967572D01*
X6265333Y49015953D01*
X6265333Y49064334D01*
X6241142Y49112715D01*
X6216952Y49136905D01*
X6168571Y49161096D01*
X6071809Y49185286D01*
X6023428Y49209477D01*
X5999238Y49233667D01*
X5975047Y49282048D01*
X5975047Y49330429D01*
X5999238Y49378810D01*
X6023428Y49403000D01*
X6071809Y49427191D01*
X6192761Y49427191D01*
X6265333Y49403000D01*
X6579809Y49161096D02*
X6579809Y48919191D01*
X6410476Y49427191D02*
X6579809Y49161096D01*
X6749142Y49427191D01*
X7015238Y49427191D02*
X7112000Y49427191D01*
X7160380Y49403000D01*
X7208761Y49354620D01*
X7232952Y49257858D01*
X7232952Y49088524D01*
X7208761Y48991762D01*
X7160380Y48943381D01*
X7112000Y48919191D01*
X7015238Y48919191D01*
X6966857Y48943381D01*
X6918476Y48991762D01*
X6894285Y49088524D01*
X6894285Y49257858D01*
X6918476Y49354620D01*
X6966857Y49403000D01*
X7015238Y49427191D01*
X6120190Y50213381D02*
X6192761Y50189191D01*
X6313714Y50189191D01*
X6362095Y50213381D01*
X6386285Y50237572D01*
X6410476Y50285953D01*
X6410476Y50334334D01*
X6386285Y50382715D01*
X6362095Y50406905D01*
X6313714Y50431096D01*
X6216952Y50455286D01*
X6168571Y50479477D01*
X6144380Y50503667D01*
X6120190Y50552048D01*
X6120190Y50600429D01*
X6144380Y50648810D01*
X6168571Y50673000D01*
X6216952Y50697191D01*
X6337904Y50697191D01*
X6410476Y50673000D01*
X6724952Y50431096D02*
X6724952Y50189191D01*
X6555619Y50697191D02*
X6724952Y50431096D01*
X6894285Y50697191D01*
X7063619Y50189191D02*
X7063619Y50697191D01*
X5950857Y51652715D02*
X6337904Y51652715D01*
X6144380Y51459191D02*
X6144380Y51846239D01*
X6821714Y51967191D02*
X6579809Y51967191D01*
X6555619Y51725286D01*
X6579809Y51749477D01*
X6628190Y51773667D01*
X6749142Y51773667D01*
X6797523Y51749477D01*
X6821714Y51725286D01*
X6845904Y51676905D01*
X6845904Y51555953D01*
X6821714Y51507572D01*
X6797523Y51483381D01*
X6749142Y51459191D01*
X6628190Y51459191D01*
X6579809Y51483381D01*
X6555619Y51507572D01*
X6991047Y51967191D02*
X7160380Y51459191D01*
X7329714Y51967191D01*
X6398380Y61123286D02*
X6470952Y61099096D01*
X6495142Y61074905D01*
X6519333Y61026524D01*
X6519333Y60953953D01*
X6495142Y60905572D01*
X6470952Y60881381D01*
X6422571Y60857191D01*
X6229047Y60857191D01*
X6229047Y61365191D01*
X6398380Y61365191D01*
X6446761Y61341000D01*
X6470952Y61316810D01*
X6495142Y61268429D01*
X6495142Y61220048D01*
X6470952Y61171667D01*
X6446761Y61147477D01*
X6398380Y61123286D01*
X6229047Y61123286D01*
X6712857Y61316810D02*
X6737047Y61341000D01*
X6785428Y61365191D01*
X6906380Y61365191D01*
X6954761Y61341000D01*
X6978952Y61316810D01*
X7003142Y61268429D01*
X7003142Y61220048D01*
X6978952Y61147477D01*
X6688666Y60857191D01*
X7003142Y60857191D01*
X6398380Y62393286D02*
X6470952Y62369096D01*
X6495142Y62344905D01*
X6519333Y62296524D01*
X6519333Y62223953D01*
X6495142Y62175572D01*
X6470952Y62151381D01*
X6422571Y62127191D01*
X6229047Y62127191D01*
X6229047Y62635191D01*
X6398380Y62635191D01*
X6446761Y62611000D01*
X6470952Y62586810D01*
X6495142Y62538429D01*
X6495142Y62490048D01*
X6470952Y62441667D01*
X6446761Y62417477D01*
X6398380Y62393286D01*
X6229047Y62393286D01*
X6688666Y62635191D02*
X7003142Y62635191D01*
X6833809Y62441667D01*
X6906380Y62441667D01*
X6954761Y62417477D01*
X6978952Y62393286D01*
X7003142Y62344905D01*
X7003142Y62223953D01*
X6978952Y62175572D01*
X6954761Y62151381D01*
X6906380Y62127191D01*
X6761238Y62127191D01*
X6712857Y62151381D01*
X6688666Y62175572D01*
X6483047Y63905191D02*
X6241142Y63905191D01*
X6216952Y63663286D01*
X6241142Y63687477D01*
X6289523Y63711667D01*
X6410476Y63711667D01*
X6458857Y63687477D01*
X6483047Y63663286D01*
X6507238Y63614905D01*
X6507238Y63493953D01*
X6483047Y63445572D01*
X6458857Y63421381D01*
X6410476Y63397191D01*
X6289523Y63397191D01*
X6241142Y63421381D01*
X6216952Y63445572D01*
X6797523Y63687477D02*
X6749142Y63711667D01*
X6724952Y63735858D01*
X6700761Y63784239D01*
X6700761Y63808429D01*
X6724952Y63856810D01*
X6749142Y63881000D01*
X6797523Y63905191D01*
X6894285Y63905191D01*
X6942666Y63881000D01*
X6966857Y63856810D01*
X6991047Y63808429D01*
X6991047Y63784239D01*
X6966857Y63735858D01*
X6942666Y63711667D01*
X6894285Y63687477D01*
X6797523Y63687477D01*
X6749142Y63663286D01*
X6724952Y63639096D01*
X6700761Y63590715D01*
X6700761Y63493953D01*
X6724952Y63445572D01*
X6749142Y63421381D01*
X6797523Y63397191D01*
X6894285Y63397191D01*
X6942666Y63421381D01*
X6966857Y63445572D01*
X6991047Y63493953D01*
X6991047Y63590715D01*
X6966857Y63639096D01*
X6942666Y63663286D01*
X6894285Y63687477D01*
X6483047Y65175191D02*
X6241142Y65175191D01*
X6216952Y64933286D01*
X6241142Y64957477D01*
X6289523Y64981667D01*
X6410476Y64981667D01*
X6458857Y64957477D01*
X6483047Y64933286D01*
X6507238Y64884905D01*
X6507238Y64763953D01*
X6483047Y64715572D01*
X6458857Y64691381D01*
X6410476Y64667191D01*
X6289523Y64667191D01*
X6241142Y64691381D01*
X6216952Y64715572D01*
X6942666Y65005858D02*
X6942666Y64667191D01*
X6821714Y65199381D02*
X6700761Y64836524D01*
X7015238Y64836524D01*
X6398380Y66203286D02*
X6470952Y66179096D01*
X6495142Y66154905D01*
X6519333Y66106524D01*
X6519333Y66033953D01*
X6495142Y65985572D01*
X6470952Y65961381D01*
X6422571Y65937191D01*
X6229047Y65937191D01*
X6229047Y66445191D01*
X6398380Y66445191D01*
X6446761Y66421000D01*
X6470952Y66396810D01*
X6495142Y66348429D01*
X6495142Y66300048D01*
X6470952Y66251667D01*
X6446761Y66227477D01*
X6398380Y66203286D01*
X6229047Y66203286D01*
X6688666Y66445191D02*
X7027333Y66445191D01*
X6809619Y65937191D01*
X6483047Y67715191D02*
X6241142Y67715191D01*
X6216952Y67473286D01*
X6241142Y67497477D01*
X6289523Y67521667D01*
X6410476Y67521667D01*
X6458857Y67497477D01*
X6483047Y67473286D01*
X6507238Y67424905D01*
X6507238Y67303953D01*
X6483047Y67255572D01*
X6458857Y67231381D01*
X6410476Y67207191D01*
X6289523Y67207191D01*
X6241142Y67231381D01*
X6216952Y67255572D01*
X6942666Y67715191D02*
X6845904Y67715191D01*
X6797523Y67691000D01*
X6773333Y67666810D01*
X6724952Y67594239D01*
X6700761Y67497477D01*
X6700761Y67303953D01*
X6724952Y67255572D01*
X6749142Y67231381D01*
X6797523Y67207191D01*
X6894285Y67207191D01*
X6942666Y67231381D01*
X6966857Y67255572D01*
X6991047Y67303953D01*
X6991047Y67424905D01*
X6966857Y67473286D01*
X6942666Y67497477D01*
X6894285Y67521667D01*
X6797523Y67521667D01*
X6749142Y67497477D01*
X6724952Y67473286D01*
X6700761Y67424905D01*
X6077857Y68543715D02*
X6464904Y68543715D01*
X6271380Y68350191D02*
X6271380Y68737239D01*
X6948714Y68858191D02*
X6706809Y68858191D01*
X6682619Y68616286D01*
X6706809Y68640477D01*
X6755190Y68664667D01*
X6876142Y68664667D01*
X6924523Y68640477D01*
X6948714Y68616286D01*
X6972904Y68567905D01*
X6972904Y68446953D01*
X6948714Y68398572D01*
X6924523Y68374381D01*
X6876142Y68350191D01*
X6755190Y68350191D01*
X6706809Y68374381D01*
X6682619Y68398572D01*
X7118047Y68858191D02*
X7287380Y68350191D01*
X7456714Y68858191D01*
X7486952Y70104000D02*
X7438571Y70128191D01*
X7366000Y70128191D01*
X7293428Y70104000D01*
X7245047Y70055620D01*
X7220857Y70007239D01*
X7196666Y69910477D01*
X7196666Y69837905D01*
X7220857Y69741143D01*
X7245047Y69692762D01*
X7293428Y69644381D01*
X7366000Y69620191D01*
X7414380Y69620191D01*
X7486952Y69644381D01*
X7511142Y69668572D01*
X7511142Y69837905D01*
X7414380Y69837905D01*
X7728857Y69620191D02*
X7728857Y70128191D01*
X8019142Y69620191D01*
X8019142Y70128191D01*
X8261047Y69620191D02*
X8261047Y70128191D01*
X8382000Y70128191D01*
X8454571Y70104000D01*
X8502952Y70055620D01*
X8527142Y70007239D01*
X8551333Y69910477D01*
X8551333Y69837905D01*
X8527142Y69741143D01*
X8502952Y69692762D01*
X8454571Y69644381D01*
X8382000Y69620191D01*
X8261047Y69620191D01*
D12*
X85630714Y71965429D02*
X85630714Y73465429D01*
X86487857Y71965429D01*
X86487857Y73465429D01*
X87487857Y73465429D02*
X87773571Y73465429D01*
X87916428Y73394000D01*
X88059285Y73251143D01*
X88130714Y72965429D01*
X88130714Y72465429D01*
X88059285Y72179715D01*
X87916428Y72036858D01*
X87773571Y71965429D01*
X87487857Y71965429D01*
X87345000Y72036858D01*
X87202142Y72179715D01*
X87130714Y72465429D01*
X87130714Y72965429D01*
X87202142Y73251143D01*
X87345000Y73394000D01*
X87487857Y73465429D01*
X89702142Y73465429D02*
X90559285Y73465429D01*
X90130714Y71965429D02*
X90130714Y73465429D01*
X91345000Y73465429D02*
X91630714Y73465429D01*
X91773571Y73394000D01*
X91916428Y73251143D01*
X91987857Y72965429D01*
X91987857Y72465429D01*
X91916428Y72179715D01*
X91773571Y72036858D01*
X91630714Y71965429D01*
X91345000Y71965429D01*
X91202142Y72036858D01*
X91059285Y72179715D01*
X90987857Y72465429D01*
X90987857Y72965429D01*
X91059285Y73251143D01*
X91202142Y73394000D01*
X91345000Y73465429D01*
X92630714Y73465429D02*
X92630714Y72251143D01*
X92702142Y72108286D01*
X92773571Y72036858D01*
X92916428Y71965429D01*
X93202142Y71965429D01*
X93345000Y72036858D01*
X93416428Y72108286D01*
X93487857Y72251143D01*
X93487857Y73465429D01*
X95059285Y72108286D02*
X94987857Y72036858D01*
X94773571Y71965429D01*
X94630714Y71965429D01*
X94416428Y72036858D01*
X94273571Y72179715D01*
X94202142Y72322572D01*
X94130714Y72608286D01*
X94130714Y72822572D01*
X94202142Y73108286D01*
X94273571Y73251143D01*
X94416428Y73394000D01*
X94630714Y73465429D01*
X94773571Y73465429D01*
X94987857Y73394000D01*
X95059285Y73322572D01*
X95702142Y71965429D02*
X95702142Y73465429D01*
X95702142Y72751143D02*
X96559285Y72751143D01*
X96559285Y71965429D02*
X96559285Y73465429D01*
X97273571Y71965429D02*
X97273571Y73465429D01*
X97987857Y71965429D02*
X97987857Y73465429D01*
X98845000Y71965429D01*
X98845000Y73465429D01*
X100345000Y73394000D02*
X100202142Y73465429D01*
X99987857Y73465429D01*
X99773571Y73394000D01*
X99630714Y73251143D01*
X99559285Y73108286D01*
X99487857Y72822572D01*
X99487857Y72608286D01*
X99559285Y72322572D01*
X99630714Y72179715D01*
X99773571Y72036858D01*
X99987857Y71965429D01*
X100130714Y71965429D01*
X100345000Y72036858D01*
X100416428Y72108286D01*
X100416428Y72608286D01*
X100130714Y72608286D01*
X101059285Y72108286D02*
X101130714Y72036858D01*
X101059285Y71965429D01*
X100987857Y72036858D01*
X101059285Y72108286D01*
X101059285Y71965429D01*
X101059285Y72536858D02*
X100987857Y73394000D01*
X101059285Y73465429D01*
X101130714Y73394000D01*
X101059285Y72536858D01*
X101059285Y73465429D01*
D13*
X118893166Y77787500D02*
X118850833Y77745167D01*
X118723833Y77702834D01*
X118639166Y77702834D01*
X118512166Y77745167D01*
X118427500Y77829834D01*
X118385166Y77914500D01*
X118342833Y78083834D01*
X118342833Y78210834D01*
X118385166Y78380167D01*
X118427500Y78464834D01*
X118512166Y78549500D01*
X118639166Y78591834D01*
X118723833Y78591834D01*
X118850833Y78549500D01*
X118893166Y78507167D01*
X109389333Y77956834D02*
X109812666Y77956834D01*
X109304666Y77702834D02*
X109601000Y78591834D01*
X109897333Y77702834D01*
X108225166Y76157667D02*
X107336166Y76157667D01*
X107759500Y76157667D02*
X107759500Y76665667D01*
X108225166Y76665667D02*
X107336166Y76665667D01*
X107336166Y76962000D02*
X108225166Y77258334D01*
X107336166Y77554667D01*
X107886500Y77851000D02*
X107886500Y78528334D01*
X108225166Y78189667D02*
X107547833Y78189667D01*
D11*
X23247047Y25932191D02*
X23247047Y26440191D01*
X23440571Y26440191D01*
X23488952Y26416000D01*
X23513142Y26391810D01*
X23537333Y26343429D01*
X23537333Y26270858D01*
X23513142Y26222477D01*
X23488952Y26198286D01*
X23440571Y26174096D01*
X23247047Y26174096D01*
X23706666Y26440191D02*
X23827619Y25932191D01*
X23924380Y26295048D01*
X24021142Y25932191D01*
X24142095Y26440191D01*
X24335619Y25932191D02*
X24335619Y26440191D01*
X24504952Y26077334D01*
X24674285Y26440191D01*
X24674285Y25932191D01*
X24795238Y25883810D02*
X25182285Y25883810D01*
X25279047Y26077334D02*
X25520952Y26077334D01*
X25230666Y25932191D02*
X25400000Y26440191D01*
X25569333Y25932191D01*
X25738666Y25932191D02*
X25738666Y26440191D01*
X25738666Y26198286D02*
X26028952Y26198286D01*
X26028952Y25932191D02*
X26028952Y26440191D01*
X26355523Y28472191D02*
X26355523Y28980191D01*
X26549047Y28980191D01*
X26597428Y28956000D01*
X26621619Y28931810D01*
X26645809Y28883429D01*
X26645809Y28810858D01*
X26621619Y28762477D01*
X26597428Y28738286D01*
X26549047Y28714096D01*
X26355523Y28714096D01*
X26815142Y28980191D02*
X26936095Y28472191D01*
X27032857Y28835048D01*
X27129619Y28472191D01*
X27250571Y28980191D01*
X27444095Y28472191D02*
X27444095Y28980191D01*
X27613428Y28617334D01*
X27782761Y28980191D01*
X27782761Y28472191D01*
X27903714Y28423810D02*
X28290761Y28423810D01*
X28387523Y28617334D02*
X28629428Y28617334D01*
X28339142Y28472191D02*
X28508476Y28980191D01*
X28677809Y28472191D01*
X29089047Y28472191D02*
X28847142Y28472191D01*
X28847142Y28980191D01*
X27655761Y31012191D02*
X27655761Y31520191D01*
X27849285Y31520191D01*
X27897666Y31496000D01*
X27921857Y31471810D01*
X27946047Y31423429D01*
X27946047Y31350858D01*
X27921857Y31302477D01*
X27897666Y31278286D01*
X27849285Y31254096D01*
X27655761Y31254096D01*
X28115380Y31520191D02*
X28236333Y31012191D01*
X28333095Y31375048D01*
X28429857Y31012191D01*
X28550809Y31520191D01*
X28744333Y31012191D02*
X28744333Y31520191D01*
X28913666Y31157334D01*
X29083000Y31520191D01*
X29083000Y31012191D01*
X29203952Y30963810D02*
X29591000Y30963810D01*
X29881285Y31278286D02*
X29953857Y31254096D01*
X29978047Y31229905D01*
X30002238Y31181524D01*
X30002238Y31108953D01*
X29978047Y31060572D01*
X29953857Y31036381D01*
X29905476Y31012191D01*
X29711952Y31012191D01*
X29711952Y31520191D01*
X29881285Y31520191D01*
X29929666Y31496000D01*
X29953857Y31471810D01*
X29978047Y31423429D01*
X29978047Y31375048D01*
X29953857Y31326667D01*
X29929666Y31302477D01*
X29881285Y31278286D01*
X29711952Y31278286D01*
X30219952Y31012191D02*
X30219952Y31520191D01*
X30219952Y31278286D02*
X30510238Y31278286D01*
X30510238Y31012191D02*
X30510238Y31520191D01*
X34513761Y28472191D02*
X34513761Y28980191D01*
X34707285Y28980191D01*
X34755666Y28956000D01*
X34779857Y28931810D01*
X34804047Y28883429D01*
X34804047Y28810858D01*
X34779857Y28762477D01*
X34755666Y28738286D01*
X34707285Y28714096D01*
X34513761Y28714096D01*
X34973380Y28980191D02*
X35094333Y28472191D01*
X35191095Y28835048D01*
X35287857Y28472191D01*
X35408809Y28980191D01*
X35602333Y28472191D02*
X35602333Y28980191D01*
X35771666Y28617334D01*
X35941000Y28980191D01*
X35941000Y28472191D01*
X36061952Y28423810D02*
X36449000Y28423810D01*
X36860238Y28520572D02*
X36836047Y28496381D01*
X36763476Y28472191D01*
X36715095Y28472191D01*
X36642523Y28496381D01*
X36594142Y28544762D01*
X36569952Y28593143D01*
X36545761Y28689905D01*
X36545761Y28762477D01*
X36569952Y28859239D01*
X36594142Y28907620D01*
X36642523Y28956000D01*
X36715095Y28980191D01*
X36763476Y28980191D01*
X36836047Y28956000D01*
X36860238Y28931810D01*
X37077952Y28472191D02*
X37077952Y28980191D01*
X37077952Y28738286D02*
X37368238Y28738286D01*
X37368238Y28472191D02*
X37368238Y28980191D01*
X35082238Y30758191D02*
X35082238Y31266191D01*
X35275761Y31266191D01*
X35324142Y31242000D01*
X35348333Y31217810D01*
X35372523Y31169429D01*
X35372523Y31096858D01*
X35348333Y31048477D01*
X35324142Y31024286D01*
X35275761Y31000096D01*
X35082238Y31000096D01*
X35541857Y31266191D02*
X35662809Y30758191D01*
X35759571Y31121048D01*
X35856333Y30758191D01*
X35977285Y31266191D01*
X36170809Y30758191D02*
X36170809Y31266191D01*
X36340142Y30903334D01*
X36509476Y31266191D01*
X36509476Y30758191D01*
X36630428Y30709810D02*
X37017476Y30709810D01*
X37307761Y31024286D02*
X37380333Y31000096D01*
X37404523Y30975905D01*
X37428714Y30927524D01*
X37428714Y30854953D01*
X37404523Y30806572D01*
X37380333Y30782381D01*
X37331952Y30758191D01*
X37138428Y30758191D01*
X37138428Y31266191D01*
X37307761Y31266191D01*
X37356142Y31242000D01*
X37380333Y31217810D01*
X37404523Y31169429D01*
X37404523Y31121048D01*
X37380333Y31072667D01*
X37356142Y31048477D01*
X37307761Y31024286D01*
X37138428Y31024286D01*
X37888333Y30758191D02*
X37646428Y30758191D01*
X37646428Y31266191D01*
X41928142Y42635715D02*
X42315190Y42635715D01*
X42121666Y42442191D02*
X42121666Y42829239D01*
X42871571Y42950191D02*
X43040904Y42442191D01*
X43210238Y42950191D01*
X43379571Y42442191D02*
X43379571Y42780858D01*
X43379571Y42684096D02*
X43403761Y42732477D01*
X43427952Y42756667D01*
X43476333Y42780858D01*
X43524714Y42780858D01*
X43887571Y42466381D02*
X43839190Y42442191D01*
X43742428Y42442191D01*
X43694047Y42466381D01*
X43669857Y42514762D01*
X43669857Y42708286D01*
X43694047Y42756667D01*
X43742428Y42780858D01*
X43839190Y42780858D01*
X43887571Y42756667D01*
X43911761Y42708286D01*
X43911761Y42659905D01*
X43669857Y42611524D01*
X44056904Y42780858D02*
X44250428Y42780858D01*
X44129476Y42442191D02*
X44129476Y42877620D01*
X44153666Y42926000D01*
X44202047Y42950191D01*
X44250428Y42950191D01*
X44806809Y42635715D02*
X45193857Y42635715D01*
X46004238Y30504191D02*
X46004238Y31012191D01*
X46197761Y31012191D01*
X46246142Y30988000D01*
X46270333Y30963810D01*
X46294523Y30915429D01*
X46294523Y30842858D01*
X46270333Y30794477D01*
X46246142Y30770286D01*
X46197761Y30746096D01*
X46004238Y30746096D01*
X46463857Y31012191D02*
X46584809Y30504191D01*
X46681571Y30867048D01*
X46778333Y30504191D01*
X46899285Y31012191D01*
X47092809Y30504191D02*
X47092809Y31012191D01*
X47262142Y30649334D01*
X47431476Y31012191D01*
X47431476Y30504191D01*
X47552428Y30455810D02*
X47939476Y30455810D01*
X48350714Y30552572D02*
X48326523Y30528381D01*
X48253952Y30504191D01*
X48205571Y30504191D01*
X48133000Y30528381D01*
X48084619Y30576762D01*
X48060428Y30625143D01*
X48036238Y30721905D01*
X48036238Y30794477D01*
X48060428Y30891239D01*
X48084619Y30939620D01*
X48133000Y30988000D01*
X48205571Y31012191D01*
X48253952Y31012191D01*
X48326523Y30988000D01*
X48350714Y30963810D01*
X48810333Y30504191D02*
X48568428Y30504191D01*
X48568428Y31012191D01*
X55880000Y57301191D02*
X56049333Y56793191D01*
X56218666Y57301191D01*
X56605714Y56793191D02*
X56605714Y57301191D01*
X56605714Y56817381D02*
X56557333Y56793191D01*
X56460571Y56793191D01*
X56412190Y56817381D01*
X56388000Y56841572D01*
X56363809Y56889953D01*
X56363809Y57035096D01*
X56388000Y57083477D01*
X56412190Y57107667D01*
X56460571Y57131858D01*
X56557333Y57131858D01*
X56605714Y57107667D01*
X56823428Y56817381D02*
X56871809Y56793191D01*
X56968571Y56793191D01*
X57016952Y56817381D01*
X57041142Y56865762D01*
X57041142Y56889953D01*
X57016952Y56938334D01*
X56968571Y56962524D01*
X56896000Y56962524D01*
X56847619Y56986715D01*
X56823428Y57035096D01*
X56823428Y57059286D01*
X56847619Y57107667D01*
X56896000Y57131858D01*
X56968571Y57131858D01*
X57016952Y57107667D01*
X57137904Y56744810D02*
X57524952Y56744810D01*
X57621714Y56938334D02*
X57863619Y56938334D01*
X57573333Y56793191D02*
X57742666Y57301191D01*
X57912000Y56793191D01*
X59780714Y56412191D02*
X59950047Y55904191D01*
X60119380Y56412191D01*
X60506428Y55904191D02*
X60506428Y56412191D01*
X60506428Y55928381D02*
X60458047Y55904191D01*
X60361285Y55904191D01*
X60312904Y55928381D01*
X60288714Y55952572D01*
X60264523Y56000953D01*
X60264523Y56146096D01*
X60288714Y56194477D01*
X60312904Y56218667D01*
X60361285Y56242858D01*
X60458047Y56242858D01*
X60506428Y56218667D01*
X60724142Y55928381D02*
X60772523Y55904191D01*
X60869285Y55904191D01*
X60917666Y55928381D01*
X60941857Y55976762D01*
X60941857Y56000953D01*
X60917666Y56049334D01*
X60869285Y56073524D01*
X60796714Y56073524D01*
X60748333Y56097715D01*
X60724142Y56146096D01*
X60724142Y56170286D01*
X60748333Y56218667D01*
X60796714Y56242858D01*
X60869285Y56242858D01*
X60917666Y56218667D01*
X61038619Y55855810D02*
X61425666Y55855810D01*
X61715952Y56170286D02*
X61788523Y56146096D01*
X61812714Y56121905D01*
X61836904Y56073524D01*
X61836904Y56000953D01*
X61812714Y55952572D01*
X61788523Y55928381D01*
X61740142Y55904191D01*
X61546619Y55904191D01*
X61546619Y56412191D01*
X61715952Y56412191D01*
X61764333Y56388000D01*
X61788523Y56363810D01*
X61812714Y56315429D01*
X61812714Y56267048D01*
X61788523Y56218667D01*
X61764333Y56194477D01*
X61715952Y56170286D01*
X61546619Y56170286D01*
X63082714Y54380191D02*
X63252047Y53872191D01*
X63421380Y54380191D01*
X63808428Y53872191D02*
X63808428Y54380191D01*
X63808428Y53896381D02*
X63760047Y53872191D01*
X63663285Y53872191D01*
X63614904Y53896381D01*
X63590714Y53920572D01*
X63566523Y53968953D01*
X63566523Y54114096D01*
X63590714Y54162477D01*
X63614904Y54186667D01*
X63663285Y54210858D01*
X63760047Y54210858D01*
X63808428Y54186667D01*
X64026142Y53896381D02*
X64074523Y53872191D01*
X64171285Y53872191D01*
X64219666Y53896381D01*
X64243857Y53944762D01*
X64243857Y53968953D01*
X64219666Y54017334D01*
X64171285Y54041524D01*
X64098714Y54041524D01*
X64050333Y54065715D01*
X64026142Y54114096D01*
X64026142Y54138286D01*
X64050333Y54186667D01*
X64098714Y54210858D01*
X64171285Y54210858D01*
X64219666Y54186667D01*
X64340619Y53823810D02*
X64727666Y53823810D01*
X65138904Y53920572D02*
X65114714Y53896381D01*
X65042142Y53872191D01*
X64993761Y53872191D01*
X64921190Y53896381D01*
X64872809Y53944762D01*
X64848619Y53993143D01*
X64824428Y54089905D01*
X64824428Y54162477D01*
X64848619Y54259239D01*
X64872809Y54307620D01*
X64921190Y54356000D01*
X64993761Y54380191D01*
X65042142Y54380191D01*
X65114714Y54356000D01*
X65138904Y54331810D01*
X47552428Y71017191D02*
X47721761Y70509191D01*
X47891095Y71017191D01*
X48229761Y70775286D02*
X48060428Y70775286D01*
X48060428Y70509191D02*
X48060428Y71017191D01*
X48302333Y71017191D01*
X48665190Y70775286D02*
X48737761Y70751096D01*
X48761952Y70726905D01*
X48786142Y70678524D01*
X48786142Y70605953D01*
X48761952Y70557572D01*
X48737761Y70533381D01*
X48689380Y70509191D01*
X48495857Y70509191D01*
X48495857Y71017191D01*
X48665190Y71017191D01*
X48713571Y70993000D01*
X48737761Y70968810D01*
X48761952Y70920429D01*
X48761952Y70872048D01*
X48737761Y70823667D01*
X48713571Y70799477D01*
X48665190Y70775286D01*
X48495857Y70775286D01*
X48882904Y70460810D02*
X49269952Y70460810D01*
X49681190Y70557572D02*
X49657000Y70533381D01*
X49584428Y70509191D01*
X49536047Y70509191D01*
X49463476Y70533381D01*
X49415095Y70581762D01*
X49390904Y70630143D01*
X49366714Y70726905D01*
X49366714Y70799477D01*
X49390904Y70896239D01*
X49415095Y70944620D01*
X49463476Y70993000D01*
X49536047Y71017191D01*
X49584428Y71017191D01*
X49657000Y70993000D01*
X49681190Y70968810D01*
X45218047Y61365191D02*
X45218047Y61873191D01*
X45629285Y61631286D02*
X45459952Y61631286D01*
X45459952Y61365191D02*
X45459952Y61873191D01*
X45701857Y61873191D01*
X46064714Y61631286D02*
X46137285Y61607096D01*
X46161476Y61582905D01*
X46185666Y61534524D01*
X46185666Y61461953D01*
X46161476Y61413572D01*
X46137285Y61389381D01*
X46088904Y61365191D01*
X45895380Y61365191D01*
X45895380Y61873191D01*
X46064714Y61873191D01*
X46113095Y61849000D01*
X46137285Y61824810D01*
X46161476Y61776429D01*
X46161476Y61728048D01*
X46137285Y61679667D01*
X46113095Y61655477D01*
X46064714Y61631286D01*
X45895380Y61631286D01*
X46282428Y61316810D02*
X46669476Y61316810D01*
X46766238Y61510334D02*
X47008142Y61510334D01*
X46717857Y61365191D02*
X46887190Y61873191D01*
X47056523Y61365191D01*
X38916428Y63016191D02*
X39085761Y62508191D01*
X39255095Y63016191D01*
X39593761Y62774286D02*
X39424428Y62774286D01*
X39424428Y62508191D02*
X39424428Y63016191D01*
X39666333Y63016191D01*
X40029190Y62774286D02*
X40101761Y62750096D01*
X40125952Y62725905D01*
X40150142Y62677524D01*
X40150142Y62604953D01*
X40125952Y62556572D01*
X40101761Y62532381D01*
X40053380Y62508191D01*
X39859857Y62508191D01*
X39859857Y63016191D01*
X40029190Y63016191D01*
X40077571Y62992000D01*
X40101761Y62967810D01*
X40125952Y62919429D01*
X40125952Y62871048D01*
X40101761Y62822667D01*
X40077571Y62798477D01*
X40029190Y62774286D01*
X39859857Y62774286D01*
X40246904Y62459810D02*
X40633952Y62459810D01*
X40924238Y62774286D02*
X40996809Y62750096D01*
X41021000Y62725905D01*
X41045190Y62677524D01*
X41045190Y62604953D01*
X41021000Y62556572D01*
X40996809Y62532381D01*
X40948428Y62508191D01*
X40754904Y62508191D01*
X40754904Y63016191D01*
X40924238Y63016191D01*
X40972619Y62992000D01*
X40996809Y62967810D01*
X41021000Y62919429D01*
X41021000Y62871048D01*
X40996809Y62822667D01*
X40972619Y62798477D01*
X40924238Y62774286D01*
X40754904Y62774286D01*
X41262904Y63016191D02*
X41262904Y62604953D01*
X41287095Y62556572D01*
X41311285Y62532381D01*
X41359666Y62508191D01*
X41456428Y62508191D01*
X41504809Y62532381D01*
X41529000Y62556572D01*
X41553190Y62604953D01*
X41553190Y63016191D01*
X41770904Y62532381D02*
X41843476Y62508191D01*
X41964428Y62508191D01*
X42012809Y62532381D01*
X42037000Y62556572D01*
X42061190Y62604953D01*
X42061190Y62653334D01*
X42037000Y62701715D01*
X42012809Y62725905D01*
X41964428Y62750096D01*
X41867666Y62774286D01*
X41819285Y62798477D01*
X41795095Y62822667D01*
X41770904Y62871048D01*
X41770904Y62919429D01*
X41795095Y62967810D01*
X41819285Y62992000D01*
X41867666Y63016191D01*
X41988619Y63016191D01*
X42061190Y62992000D01*
X35233428Y64032191D02*
X35402761Y63524191D01*
X35572095Y64032191D01*
X35910761Y63790286D02*
X35741428Y63790286D01*
X35741428Y63524191D02*
X35741428Y64032191D01*
X35983333Y64032191D01*
X36346190Y63790286D02*
X36418761Y63766096D01*
X36442952Y63741905D01*
X36467142Y63693524D01*
X36467142Y63620953D01*
X36442952Y63572572D01*
X36418761Y63548381D01*
X36370380Y63524191D01*
X36176857Y63524191D01*
X36176857Y64032191D01*
X36346190Y64032191D01*
X36394571Y64008000D01*
X36418761Y63983810D01*
X36442952Y63935429D01*
X36442952Y63887048D01*
X36418761Y63838667D01*
X36394571Y63814477D01*
X36346190Y63790286D01*
X36176857Y63790286D01*
X36563904Y63475810D02*
X36950952Y63475810D01*
X37241238Y63790286D02*
X37313809Y63766096D01*
X37338000Y63741905D01*
X37362190Y63693524D01*
X37362190Y63620953D01*
X37338000Y63572572D01*
X37313809Y63548381D01*
X37265428Y63524191D01*
X37071904Y63524191D01*
X37071904Y64032191D01*
X37241238Y64032191D01*
X37289619Y64008000D01*
X37313809Y63983810D01*
X37338000Y63935429D01*
X37338000Y63887048D01*
X37313809Y63838667D01*
X37289619Y63814477D01*
X37241238Y63790286D01*
X37071904Y63790286D01*
X32729714Y62762191D02*
X32899047Y62254191D01*
X33068380Y62762191D01*
X33407047Y62520286D02*
X33237714Y62520286D01*
X33237714Y62254191D02*
X33237714Y62762191D01*
X33479619Y62762191D01*
X33842476Y62520286D02*
X33915047Y62496096D01*
X33939238Y62471905D01*
X33963428Y62423524D01*
X33963428Y62350953D01*
X33939238Y62302572D01*
X33915047Y62278381D01*
X33866666Y62254191D01*
X33673142Y62254191D01*
X33673142Y62762191D01*
X33842476Y62762191D01*
X33890857Y62738000D01*
X33915047Y62713810D01*
X33939238Y62665429D01*
X33939238Y62617048D01*
X33915047Y62568667D01*
X33890857Y62544477D01*
X33842476Y62520286D01*
X33673142Y62520286D01*
X34060190Y62205810D02*
X34447238Y62205810D01*
X34544000Y62399334D02*
X34785904Y62399334D01*
X34495619Y62254191D02*
X34664952Y62762191D01*
X34834285Y62254191D01*
X43300952Y64516000D02*
X43252571Y64540191D01*
X43180000Y64540191D01*
X43107428Y64516000D01*
X43059047Y64467620D01*
X43034857Y64419239D01*
X43010666Y64322477D01*
X43010666Y64249905D01*
X43034857Y64153143D01*
X43059047Y64104762D01*
X43107428Y64056381D01*
X43180000Y64032191D01*
X43228380Y64032191D01*
X43300952Y64056381D01*
X43325142Y64080572D01*
X43325142Y64249905D01*
X43228380Y64249905D01*
X43542857Y64032191D02*
X43542857Y64540191D01*
X43833142Y64032191D01*
X43833142Y64540191D01*
X44075047Y64032191D02*
X44075047Y64540191D01*
X44196000Y64540191D01*
X44268571Y64516000D01*
X44316952Y64467620D01*
X44341142Y64419239D01*
X44365333Y64322477D01*
X44365333Y64249905D01*
X44341142Y64153143D01*
X44316952Y64104762D01*
X44268571Y64056381D01*
X44196000Y64032191D01*
X44075047Y64032191D01*
X131819952Y65405000D02*
X131771571Y65429191D01*
X131699000Y65429191D01*
X131626428Y65405000D01*
X131578047Y65356620D01*
X131553857Y65308239D01*
X131529666Y65211477D01*
X131529666Y65138905D01*
X131553857Y65042143D01*
X131578047Y64993762D01*
X131626428Y64945381D01*
X131699000Y64921191D01*
X131747380Y64921191D01*
X131819952Y64945381D01*
X131844142Y64969572D01*
X131844142Y65138905D01*
X131747380Y65138905D01*
X132061857Y64921191D02*
X132061857Y65429191D01*
X132352142Y64921191D01*
X132352142Y65429191D01*
X132594047Y64921191D02*
X132594047Y65429191D01*
X132715000Y65429191D01*
X132787571Y65405000D01*
X132835952Y65356620D01*
X132860142Y65308239D01*
X132884333Y65211477D01*
X132884333Y65138905D01*
X132860142Y65042143D01*
X132835952Y64993762D01*
X132787571Y64945381D01*
X132715000Y64921191D01*
X132594047Y64921191D01*
X94481952Y23241000D02*
X94433571Y23265191D01*
X94361000Y23265191D01*
X94288428Y23241000D01*
X94240047Y23192620D01*
X94215857Y23144239D01*
X94191666Y23047477D01*
X94191666Y22974905D01*
X94215857Y22878143D01*
X94240047Y22829762D01*
X94288428Y22781381D01*
X94361000Y22757191D01*
X94409380Y22757191D01*
X94481952Y22781381D01*
X94506142Y22805572D01*
X94506142Y22974905D01*
X94409380Y22974905D01*
X94723857Y22757191D02*
X94723857Y23265191D01*
X95014142Y22757191D01*
X95014142Y23265191D01*
X95256047Y22757191D02*
X95256047Y23265191D01*
X95377000Y23265191D01*
X95449571Y23241000D01*
X95497952Y23192620D01*
X95522142Y23144239D01*
X95546333Y23047477D01*
X95546333Y22974905D01*
X95522142Y22878143D01*
X95497952Y22829762D01*
X95449571Y22781381D01*
X95377000Y22757191D01*
X95256047Y22757191D01*
X39998952Y26289000D02*
X39950571Y26313191D01*
X39878000Y26313191D01*
X39805428Y26289000D01*
X39757047Y26240620D01*
X39732857Y26192239D01*
X39708666Y26095477D01*
X39708666Y26022905D01*
X39732857Y25926143D01*
X39757047Y25877762D01*
X39805428Y25829381D01*
X39878000Y25805191D01*
X39926380Y25805191D01*
X39998952Y25829381D01*
X40023142Y25853572D01*
X40023142Y26022905D01*
X39926380Y26022905D01*
X40240857Y25805191D02*
X40240857Y26313191D01*
X40531142Y25805191D01*
X40531142Y26313191D01*
X40773047Y25805191D02*
X40773047Y26313191D01*
X40894000Y26313191D01*
X40966571Y26289000D01*
X41014952Y26240620D01*
X41039142Y26192239D01*
X41063333Y26095477D01*
X41063333Y26022905D01*
X41039142Y25926143D01*
X41014952Y25877762D01*
X40966571Y25829381D01*
X40894000Y25805191D01*
X40773047Y25805191D01*
D14*
X112001904Y14783405D02*
X112364761Y14662453D01*
X112969523Y14662453D01*
X113211428Y14783405D01*
X113332380Y14904358D01*
X113453333Y15146262D01*
X113453333Y15388167D01*
X113332380Y15630072D01*
X113211428Y15751024D01*
X112969523Y15871977D01*
X112485714Y15992929D01*
X112243809Y16113881D01*
X112122857Y16234834D01*
X112001904Y16476739D01*
X112001904Y16718643D01*
X112122857Y16960548D01*
X112243809Y17081500D01*
X112485714Y17202453D01*
X113090476Y17202453D01*
X113453333Y17081500D01*
X114541904Y14662453D02*
X114541904Y16355786D01*
X114541904Y17202453D02*
X114420952Y17081500D01*
X114541904Y16960548D01*
X114662857Y17081500D01*
X114541904Y17202453D01*
X114541904Y16960548D01*
X117202857Y14904358D02*
X117081904Y14783405D01*
X116719047Y14662453D01*
X116477142Y14662453D01*
X116114285Y14783405D01*
X115872380Y15025310D01*
X115751428Y15267215D01*
X115630476Y15751024D01*
X115630476Y16113881D01*
X115751428Y16597691D01*
X115872380Y16839596D01*
X116114285Y17081500D01*
X116477142Y17202453D01*
X116719047Y17202453D01*
X117081904Y17081500D01*
X117202857Y16960548D01*
X117928571Y16355786D02*
X118896190Y16355786D01*
X118291428Y17202453D02*
X118291428Y15025310D01*
X118412380Y14783405D01*
X118654285Y14662453D01*
X118896190Y14662453D01*
X119742857Y14662453D02*
X119742857Y16355786D01*
X119742857Y15871977D02*
X119863809Y16113881D01*
X119984761Y16234834D01*
X120226666Y16355786D01*
X120468571Y16355786D01*
X121678095Y14662453D02*
X121436190Y14783405D01*
X121315238Y14904358D01*
X121194285Y15146262D01*
X121194285Y15871977D01*
X121315238Y16113881D01*
X121436190Y16234834D01*
X121678095Y16355786D01*
X122040952Y16355786D01*
X122282857Y16234834D01*
X122403809Y16113881D01*
X122524761Y15871977D01*
X122524761Y15146262D01*
X122403809Y14904358D01*
X122282857Y14783405D01*
X122040952Y14662453D01*
X121678095Y14662453D01*
X123976190Y14662453D02*
X123734285Y14783405D01*
X123613333Y15025310D01*
X123613333Y17202453D01*
X125306666Y14662453D02*
X125064761Y14783405D01*
X124943809Y15025310D01*
X124943809Y17202453D01*
X127241904Y14783405D02*
X127000000Y14662453D01*
X126516190Y14662453D01*
X126274285Y14783405D01*
X126153333Y15025310D01*
X126153333Y15992929D01*
X126274285Y16234834D01*
X126516190Y16355786D01*
X127000000Y16355786D01*
X127241904Y16234834D01*
X127362857Y15992929D01*
X127362857Y15751024D01*
X126153333Y15509120D01*
X128451428Y14662453D02*
X128451428Y16355786D01*
X128451428Y15871977D02*
X128572380Y16113881D01*
X128693333Y16234834D01*
X128935238Y16355786D01*
X129177142Y16355786D01*
X133289523Y14662453D02*
X131838095Y14662453D01*
X132563809Y14662453D02*
X132563809Y17202453D01*
X132321904Y16839596D01*
X132080000Y16597691D01*
X131838095Y16476739D01*
X134378095Y14904358D02*
X134499047Y14783405D01*
X134378095Y14662453D01*
X134257142Y14783405D01*
X134378095Y14904358D01*
X134378095Y14662453D01*
X136071428Y17202453D02*
X136313333Y17202453D01*
X136555238Y17081500D01*
X136676190Y16960548D01*
X136797142Y16718643D01*
X136918095Y16234834D01*
X136918095Y15630072D01*
X136797142Y15146262D01*
X136676190Y14904358D01*
X136555238Y14783405D01*
X136313333Y14662453D01*
X136071428Y14662453D01*
X135829523Y14783405D01*
X135708571Y14904358D01*
X135587619Y15146262D01*
X135466666Y15630072D01*
X135466666Y16234834D01*
X135587619Y16718643D01*
X135708571Y16960548D01*
X135829523Y17081500D01*
X136071428Y17202453D01*
X102446666Y10471453D02*
X102446666Y13011453D01*
X102446666Y11801929D02*
X103898095Y11801929D01*
X103898095Y10471453D02*
X103898095Y13011453D01*
X105107619Y10471453D02*
X105107619Y13011453D01*
X105107619Y11801929D02*
X106559047Y11801929D01*
X106559047Y10471453D02*
X106559047Y13011453D01*
X111276190Y11680977D02*
X111155238Y11801929D01*
X110913333Y11922881D01*
X110671428Y11922881D01*
X110429523Y11801929D01*
X110308571Y11680977D01*
X110187619Y11439072D01*
X110187619Y11197167D01*
X110308571Y10955262D01*
X110429523Y10834310D01*
X110671428Y10713358D01*
X110913333Y10713358D01*
X111155238Y10834310D01*
X111276190Y10955262D01*
X111276190Y11922881D02*
X111276190Y10955262D01*
X111397142Y10834310D01*
X111518095Y10834310D01*
X111760000Y10955262D01*
X111880952Y11197167D01*
X111880952Y11801929D01*
X111639047Y12164786D01*
X111276190Y12406691D01*
X110792380Y12527643D01*
X110308571Y12406691D01*
X109945714Y12164786D01*
X109703809Y11801929D01*
X109582857Y11318120D01*
X109703809Y10834310D01*
X109945714Y10471453D01*
X110308571Y10229548D01*
X110792380Y10108596D01*
X111276190Y10229548D01*
X111639047Y10471453D01*
X114904761Y10471453D02*
X114904761Y13011453D01*
X116356190Y10471453D02*
X115267619Y11922881D01*
X116356190Y13011453D02*
X114904761Y11560024D01*
X117444761Y10471453D02*
X117444761Y13011453D01*
X117444761Y11801929D02*
X118896190Y11801929D01*
X118896190Y10471453D02*
X118896190Y13011453D01*
X121920000Y12769548D02*
X122040952Y12890500D01*
X122282857Y13011453D01*
X122887619Y13011453D01*
X123129523Y12890500D01*
X123250476Y12769548D01*
X123371428Y12527643D01*
X123371428Y12285739D01*
X123250476Y11922881D01*
X121799047Y10471453D01*
X123371428Y10471453D01*
X124943809Y13011453D02*
X125185714Y13011453D01*
X125427619Y12890500D01*
X125548571Y12769548D01*
X125669523Y12527643D01*
X125790476Y12043834D01*
X125790476Y11439072D01*
X125669523Y10955262D01*
X125548571Y10713358D01*
X125427619Y10592405D01*
X125185714Y10471453D01*
X124943809Y10471453D01*
X124701904Y10592405D01*
X124580952Y10713358D01*
X124460000Y10955262D01*
X124339047Y11439072D01*
X124339047Y12043834D01*
X124460000Y12527643D01*
X124580952Y12769548D01*
X124701904Y12890500D01*
X124943809Y13011453D01*
X128209523Y10471453D02*
X126758095Y10471453D01*
X127483809Y10471453D02*
X127483809Y13011453D01*
X127241904Y12648596D01*
X127000000Y12406691D01*
X126758095Y12285739D01*
X130386666Y13011453D02*
X129902857Y13011453D01*
X129660952Y12890500D01*
X129540000Y12769548D01*
X129298095Y12406691D01*
X129177142Y11922881D01*
X129177142Y10955262D01*
X129298095Y10713358D01*
X129419047Y10592405D01*
X129660952Y10471453D01*
X130144761Y10471453D01*
X130386666Y10592405D01*
X130507619Y10713358D01*
X130628571Y10955262D01*
X130628571Y11560024D01*
X130507619Y11801929D01*
X130386666Y11922881D01*
X130144761Y12043834D01*
X129660952Y12043834D01*
X129419047Y11922881D01*
X129298095Y11801929D01*
X129177142Y11560024D01*
X131717142Y11439072D02*
X133652380Y11439072D01*
X135345714Y13011453D02*
X135587619Y13011453D01*
X135829523Y12890500D01*
X135950476Y12769548D01*
X136071428Y12527643D01*
X136192380Y12043834D01*
X136192380Y11439072D01*
X136071428Y10955262D01*
X135950476Y10713358D01*
X135829523Y10592405D01*
X135587619Y10471453D01*
X135345714Y10471453D01*
X135103809Y10592405D01*
X134982857Y10713358D01*
X134861904Y10955262D01*
X134740952Y11439072D01*
X134740952Y12043834D01*
X134861904Y12527643D01*
X134982857Y12769548D01*
X135103809Y12890500D01*
X135345714Y13011453D01*
X137643809Y11922881D02*
X137401904Y12043834D01*
X137280952Y12164786D01*
X137160000Y12406691D01*
X137160000Y12527643D01*
X137280952Y12769548D01*
X137401904Y12890500D01*
X137643809Y13011453D01*
X138127619Y13011453D01*
X138369523Y12890500D01*
X138490476Y12769548D01*
X138611428Y12527643D01*
X138611428Y12406691D01*
X138490476Y12164786D01*
X138369523Y12043834D01*
X138127619Y11922881D01*
X137643809Y11922881D01*
X137401904Y11801929D01*
X137280952Y11680977D01*
X137160000Y11439072D01*
X137160000Y10955262D01*
X137280952Y10713358D01*
X137401904Y10592405D01*
X137643809Y10471453D01*
X138127619Y10471453D01*
X138369523Y10592405D01*
X138490476Y10713358D01*
X138611428Y10955262D01*
X138611428Y11439072D01*
X138490476Y11680977D01*
X138369523Y11801929D01*
X138127619Y11922881D01*
X139700000Y11439072D02*
X141635238Y11439072D01*
X143328571Y13011453D02*
X143570476Y13011453D01*
X143812380Y12890500D01*
X143933333Y12769548D01*
X144054285Y12527643D01*
X144175238Y12043834D01*
X144175238Y11439072D01*
X144054285Y10955262D01*
X143933333Y10713358D01*
X143812380Y10592405D01*
X143570476Y10471453D01*
X143328571Y10471453D01*
X143086666Y10592405D01*
X142965714Y10713358D01*
X142844761Y10955262D01*
X142723809Y11439072D01*
X142723809Y12043834D01*
X142844761Y12527643D01*
X142965714Y12769548D01*
X143086666Y12890500D01*
X143328571Y13011453D01*
X145021904Y13011453D02*
X146715238Y13011453D01*
X145626666Y10471453D01*
D15*
X5732000Y70807000D02*
X4032000Y70807000D01*
X4032000Y70807000D02*
X4032000Y74007000D01*
X4032000Y74007000D02*
X132000Y74007000D01*
X132000Y74007000D02*
X132000Y57057000D01*
X132000Y57057000D02*
X4032000Y57057000D01*
X4032000Y57057000D02*
X4032000Y58057000D01*
X6232000Y69907000D02*
X6732000Y70407000D01*
X6732000Y70407000D02*
X6732000Y69407000D01*
X6732000Y69407000D02*
X6232000Y69907000D01*
X74979000Y7350000D02*
X74979000Y5350000D01*
X77929000Y5350000D02*
X77929000Y7350000D01*
X90647000Y16799000D02*
X89947000Y16799000D01*
X89947000Y17999000D02*
X90647000Y17999000D01*
X86884000Y2335000D02*
X88884000Y2335000D01*
X88884000Y5285000D02*
X86884000Y5285000D01*
X100790000Y7580000D02*
X94790000Y7580000D01*
X94790000Y2580000D02*
X100790000Y2580000D01*
X49862000Y17034000D02*
X49862000Y19034000D01*
X46912000Y19034000D02*
X46912000Y17034000D01*
X40308000Y20685000D02*
X40308000Y18685000D01*
X43258000Y18685000D02*
X43258000Y20685000D01*
X108173000Y69758000D02*
X107473000Y69758000D01*
X107473000Y70958000D02*
X108173000Y70958000D01*
X110394000Y70958000D02*
X111094000Y70958000D01*
X111094000Y69758000D02*
X110394000Y69758000D01*
X110394000Y61433000D02*
X111094000Y61433000D01*
X111094000Y60233000D02*
X110394000Y60233000D01*
X42592500Y55831000D02*
X40592500Y55831000D01*
X40592500Y52881000D02*
X42592500Y52881000D01*
X31575500Y52881000D02*
X33575500Y52881000D01*
X33575500Y55831000D02*
X31575500Y55831000D01*
X114646000Y71343000D02*
X114646000Y70643000D01*
X113446000Y70643000D02*
X113446000Y71343000D01*
X104363000Y77378000D02*
X103663000Y77378000D01*
X103663000Y78578000D02*
X104363000Y78578000D01*
X102139000Y85563000D02*
X102839000Y85563000D01*
X102839000Y84363000D02*
X102139000Y84363000D01*
X31575500Y56246500D02*
X33575500Y56246500D01*
X33575500Y59196500D02*
X31575500Y59196500D01*
X42592500Y59196500D02*
X40592500Y59196500D01*
X40592500Y56246500D02*
X42592500Y56246500D01*
X117252000Y61433000D02*
X117952000Y61433000D01*
X117952000Y60233000D02*
X117252000Y60233000D01*
X121570000Y72609000D02*
X122270000Y72609000D01*
X122270000Y71409000D02*
X121570000Y71409000D01*
X125949000Y80868000D02*
X125949000Y80168000D01*
X124749000Y80168000D02*
X124749000Y80868000D01*
X45116000Y55845000D02*
X45816000Y55845000D01*
X45816000Y54645000D02*
X45116000Y54645000D01*
X124364000Y61433000D02*
X125064000Y61433000D01*
X125064000Y60233000D02*
X124364000Y60233000D01*
X48037000Y55845000D02*
X48737000Y55845000D01*
X48737000Y54645000D02*
X48037000Y54645000D01*
X50958000Y55845000D02*
X51658000Y55845000D01*
X51658000Y54645000D02*
X50958000Y54645000D01*
X54006000Y55845000D02*
X54706000Y55845000D01*
X54706000Y54645000D02*
X54006000Y54645000D01*
X37049000Y17622000D02*
X37049000Y16922000D01*
X35849000Y16922000D02*
X35849000Y17622000D01*
X37176000Y13304000D02*
X37176000Y12604000D01*
X35976000Y12604000D02*
X35976000Y13304000D01*
X43653000Y14955000D02*
X43653000Y14255000D01*
X42453000Y14255000D02*
X42453000Y14955000D01*
X12827000Y21463000D02*
X12192000Y21463000D01*
X12192000Y21463000D02*
X12192000Y20447000D01*
X13970000Y20447000D02*
X13970000Y21463000D01*
X13970000Y21463000D02*
X13335000Y21463000D01*
X12827000Y21590000D02*
X12827000Y21463000D01*
X13335000Y21463000D02*
X13335000Y21590000D01*
X12192000Y20447000D02*
X13970000Y20447000D01*
X13335000Y21590000D02*
X12827000Y21590000D01*
X111204000Y75794500D02*
X111204000Y75413500D01*
X111204000Y76810500D02*
X111204000Y76429500D01*
X111204000Y76429500D02*
X111585000Y75794500D01*
X111585000Y75794500D02*
X110823000Y75794500D01*
X110823000Y75794500D02*
X111204000Y76429500D01*
X111712000Y76429500D02*
X110696000Y76429500D01*
X110304000Y78112000D02*
X110304000Y74572000D01*
X112104000Y78112000D02*
X112104000Y74572000D01*
X114204000Y75794500D02*
X114204000Y75413500D01*
X114204000Y76810500D02*
X114204000Y76429500D01*
X114204000Y76429500D02*
X114585000Y75794500D01*
X114585000Y75794500D02*
X113823000Y75794500D01*
X113823000Y75794500D02*
X114204000Y76429500D01*
X114712000Y76429500D02*
X113696000Y76429500D01*
X113304000Y78112000D02*
X113304000Y74572000D01*
X115104000Y78112000D02*
X115104000Y74572000D01*
X117204000Y75794500D02*
X117204000Y75413500D01*
X117204000Y76810500D02*
X117204000Y76429500D01*
X117204000Y76429500D02*
X117585000Y75794500D01*
X117585000Y75794500D02*
X116823000Y75794500D01*
X116823000Y75794500D02*
X117204000Y76429500D01*
X117712000Y76429500D02*
X116696000Y76429500D01*
X116304000Y78112000D02*
X116304000Y74572000D01*
X118104000Y78112000D02*
X118104000Y74572000D01*
X116967000Y57340500D02*
X116967000Y56959500D01*
X116967000Y58356500D02*
X116967000Y57975500D01*
X116967000Y57975500D02*
X117348000Y57340500D01*
X117348000Y57340500D02*
X116586000Y57340500D01*
X116586000Y57340500D02*
X116967000Y57975500D01*
X117475000Y57975500D02*
X116459000Y57975500D01*
X116067000Y59658000D02*
X116067000Y56118000D01*
X117867000Y59658000D02*
X117867000Y56118000D01*
X7742000Y52538000D02*
X7742000Y44998000D01*
X7742000Y44998000D02*
X105542000Y44998000D01*
X105542000Y44998000D02*
X105542000Y52538000D01*
X105542000Y52538000D02*
X7742000Y52538000D01*
X0Y23114000D02*
X2286000Y23622000D01*
X2286000Y23622000D02*
X0Y24130000D01*
X0Y22606000D02*
X0Y33782000D01*
X13462000Y23876000D02*
X13462000Y32512000D01*
X8890000Y30734000D02*
X8890000Y25654000D01*
X3302000Y30734000D02*
X3302000Y32004000D01*
X3302000Y25654000D02*
X3302000Y24638000D01*
X8890000Y30734000D02*
X3302000Y30734000D01*
X8890000Y25654000D02*
X3302000Y25654000D01*
X3302000Y32004000D02*
X0Y32004000D01*
X3302000Y24638000D02*
X0Y24638000D01*
X11938000Y22606000D02*
X0Y22606000D01*
X0Y33782000D02*
X11938000Y33782000D01*
X13462000Y23876000D02*
X11938000Y23876000D01*
X11938000Y23876000D02*
X11938000Y22606000D01*
X13462000Y32512000D02*
X11938000Y32512000D01*
X11938000Y32512000D02*
X11938000Y33782000D01*
X64587120Y3619500D02*
X73588880Y3619500D01*
X64587120Y119380D02*
X73588880Y119380D01*
X73588880Y119380D02*
X73588880Y14620240D01*
X73588880Y14620240D02*
X64587120Y14620240D01*
X64587120Y14620240D02*
X64587120Y119380D01*
X124204000Y92312000D02*
X124204000Y78962000D01*
X124204000Y78962000D02*
X104204000Y78962000D01*
X104204000Y78962000D02*
X104204000Y92312000D01*
X104204000Y92312000D02*
X124204000Y92312000D01*
X129540000Y92456000D02*
X130048000Y90170000D01*
X130048000Y90170000D02*
X130556000Y92456000D01*
X134620000Y89154000D02*
X135890000Y89154000D01*
X132080000Y89154000D02*
X131064000Y89154000D01*
X134620000Y83566000D02*
X134620000Y89154000D01*
X132080000Y83566000D02*
X132080000Y89154000D01*
X135890000Y89154000D02*
X135890000Y92456000D01*
X131064000Y89154000D02*
X131064000Y92456000D01*
X134620000Y83566000D02*
X132080000Y83566000D01*
X129032000Y80518000D02*
X129032000Y92456000D01*
X137668000Y92456000D02*
X137668000Y80518000D01*
X130302000Y78994000D02*
X130302000Y80518000D01*
X130302000Y80518000D02*
X129032000Y80518000D01*
X130302000Y78994000D02*
X136398000Y78994000D01*
X136398000Y78994000D02*
X136398000Y80518000D01*
X136398000Y80518000D02*
X137668000Y80518000D01*
X133350000Y92456000D02*
X137668000Y92456000D01*
X133350000Y92456000D02*
X129032000Y92456000D01*
X152400000Y77724000D02*
X150114000Y77216000D01*
X150114000Y77216000D02*
X152400000Y76708000D01*
X152400000Y78232000D02*
X152400000Y67056000D01*
X138938000Y76962000D02*
X138938000Y68326000D01*
X143510000Y70104000D02*
X143510000Y75184000D01*
X149098000Y70104000D02*
X149098000Y68834000D01*
X149098000Y75184000D02*
X149098000Y76200000D01*
X143510000Y70104000D02*
X149098000Y70104000D01*
X143510000Y75184000D02*
X149098000Y75184000D01*
X149098000Y68834000D02*
X152400000Y68834000D01*
X149098000Y76200000D02*
X152400000Y76200000D01*
X140462000Y78232000D02*
X152400000Y78232000D01*
X152400000Y67056000D02*
X140462000Y67056000D01*
X138938000Y76962000D02*
X140462000Y76962000D01*
X140462000Y76962000D02*
X140462000Y78232000D01*
X138938000Y68326000D02*
X140462000Y68326000D01*
X140462000Y68326000D02*
X140462000Y67056000D01*
X152400000Y61595000D02*
X150114000Y61087000D01*
X150114000Y61087000D02*
X152400000Y60579000D01*
X152400000Y62103000D02*
X152400000Y50927000D01*
X138938000Y60833000D02*
X138938000Y52197000D01*
X143510000Y53975000D02*
X143510000Y59055000D01*
X149098000Y53975000D02*
X149098000Y52705000D01*
X149098000Y59055000D02*
X149098000Y60071000D01*
X143510000Y53975000D02*
X149098000Y53975000D01*
X143510000Y59055000D02*
X149098000Y59055000D01*
X149098000Y52705000D02*
X152400000Y52705000D01*
X149098000Y60071000D02*
X152400000Y60071000D01*
X140462000Y62103000D02*
X152400000Y62103000D01*
X152400000Y50927000D02*
X140462000Y50927000D01*
X138938000Y60833000D02*
X140462000Y60833000D01*
X140462000Y60833000D02*
X140462000Y62103000D01*
X138938000Y52197000D02*
X140462000Y52197000D01*
X140462000Y52197000D02*
X140462000Y50927000D01*
X152400000Y45466000D02*
X150114000Y44958000D01*
X150114000Y44958000D02*
X152400000Y44450000D01*
X152400000Y45974000D02*
X152400000Y34798000D01*
X138938000Y44704000D02*
X138938000Y36068000D01*
X143510000Y37846000D02*
X143510000Y42926000D01*
X149098000Y37846000D02*
X149098000Y36576000D01*
X149098000Y42926000D02*
X149098000Y43942000D01*
X143510000Y37846000D02*
X149098000Y37846000D01*
X143510000Y42926000D02*
X149098000Y42926000D01*
X149098000Y36576000D02*
X152400000Y36576000D01*
X149098000Y43942000D02*
X152400000Y43942000D01*
X140462000Y45974000D02*
X152400000Y45974000D01*
X152400000Y34798000D02*
X140462000Y34798000D01*
X138938000Y44704000D02*
X140462000Y44704000D01*
X140462000Y44704000D02*
X140462000Y45974000D01*
X138938000Y36068000D02*
X140462000Y36068000D01*
X140462000Y36068000D02*
X140462000Y34798000D01*
X152400000Y29337000D02*
X150114000Y28829000D01*
X150114000Y28829000D02*
X152400000Y28321000D01*
X152400000Y29845000D02*
X152400000Y18669000D01*
X138938000Y28575000D02*
X138938000Y19939000D01*
X143510000Y21717000D02*
X143510000Y26797000D01*
X149098000Y21717000D02*
X149098000Y20447000D01*
X149098000Y26797000D02*
X149098000Y27813000D01*
X143510000Y21717000D02*
X149098000Y21717000D01*
X143510000Y26797000D02*
X149098000Y26797000D01*
X149098000Y20447000D02*
X152400000Y20447000D01*
X149098000Y27813000D02*
X152400000Y27813000D01*
X140462000Y29845000D02*
X152400000Y29845000D01*
X152400000Y18669000D02*
X140462000Y18669000D01*
X138938000Y28575000D02*
X140462000Y28575000D01*
X140462000Y28575000D02*
X140462000Y29845000D01*
X138938000Y19939000D02*
X140462000Y19939000D01*
X140462000Y19939000D02*
X140462000Y18669000D01*
X18542000Y9884000D02*
X59182000Y9884000D01*
X19082000Y9334000D02*
X58622000Y9334000D01*
X18542000Y784000D02*
X59182000Y784000D01*
X19082000Y1334000D02*
X36612000Y1334000D01*
X41112000Y1334000D02*
X58622000Y1334000D01*
X36612000Y1334000D02*
X36612000Y784000D01*
X41112000Y1334000D02*
X41112000Y784000D01*
X18542000Y9884000D02*
X18542000Y784000D01*
X19082000Y9334000D02*
X19082000Y1334000D01*
X59182000Y9884000D02*
X59182000Y784000D01*
X58622000Y9334000D02*
X58622000Y1334000D01*
X18542000Y9884000D02*
X19082000Y9334000D01*
X59182000Y9884000D02*
X58622000Y9334000D01*
X18542000Y784000D02*
X19082000Y1334000D01*
X59182000Y784000D02*
X58622000Y1334000D01*
X17078960Y30878780D02*
X17078960Y31488380D01*
X17078960Y31488380D02*
X16647160Y31498540D01*
X14986000Y13088000D02*
X17526000Y13088000D01*
X17526000Y13088000D02*
X17526000Y23248000D01*
X17526000Y23248000D02*
X14986000Y23248000D01*
X14986000Y23248000D02*
X14986000Y13088000D01*
X16256000Y24398000D02*
X16256000Y23248000D01*
X16256000Y11938000D02*
X16256000Y13088000D01*
X104957500Y42251000D02*
X103957500Y42251000D01*
X103957500Y43601000D02*
X104957500Y43601000D01*
X119467000Y76716000D02*
X119467000Y77716000D01*
X120817000Y77716000D02*
X120817000Y76716000D01*
X112387000Y71334000D02*
X111387000Y71334000D01*
X111387000Y72684000D02*
X112387000Y72684000D01*
X28625000Y53600000D02*
X28625000Y54600000D01*
X29975000Y54600000D02*
X29975000Y53600000D01*
X108625000Y60698000D02*
X108625000Y59698000D01*
X107275000Y59698000D02*
X107275000Y60698000D01*
X105624000Y59698000D02*
X105624000Y60698000D01*
X106974000Y60698000D02*
X106974000Y59698000D01*
X37742500Y53983000D02*
X37742500Y54983000D01*
X39092500Y54983000D02*
X39092500Y53983000D01*
X35075500Y53983000D02*
X35075500Y54983000D01*
X36425500Y54983000D02*
X36425500Y53983000D01*
X103052500Y82637000D02*
X102052500Y82637000D01*
X102052500Y83987000D02*
X103052500Y83987000D01*
X26925000Y53600000D02*
X26925000Y54600000D01*
X28275000Y54600000D02*
X28275000Y53600000D01*
X116705000Y69683000D02*
X115705000Y69683000D01*
X115705000Y71033000D02*
X116705000Y71033000D01*
X35075500Y57475500D02*
X35075500Y58475500D01*
X36425500Y58475500D02*
X36425500Y57475500D01*
X37742500Y57475500D02*
X37742500Y58475500D01*
X39092500Y58475500D02*
X39092500Y57475500D01*
X115483000Y60698000D02*
X115483000Y59698000D01*
X114133000Y59698000D02*
X114133000Y60698000D01*
X112482000Y59698000D02*
X112482000Y60698000D01*
X113832000Y60698000D02*
X113832000Y59698000D01*
X120912000Y71033000D02*
X121912000Y71033000D01*
X121912000Y69683000D02*
X120912000Y69683000D01*
X45966000Y56221000D02*
X44966000Y56221000D01*
X44966000Y57571000D02*
X45966000Y57571000D01*
X44966000Y54269000D02*
X45966000Y54269000D01*
X45966000Y52919000D02*
X44966000Y52919000D01*
X48887000Y56221000D02*
X47887000Y56221000D01*
X47887000Y57571000D02*
X48887000Y57571000D01*
X47887000Y54269000D02*
X48887000Y54269000D01*
X48887000Y52919000D02*
X47887000Y52919000D01*
X122722000Y60698000D02*
X122722000Y59698000D01*
X121372000Y59698000D02*
X121372000Y60698000D01*
X119721000Y59698000D02*
X119721000Y60698000D01*
X121071000Y60698000D02*
X121071000Y59698000D01*
X51808000Y56221000D02*
X50808000Y56221000D01*
X50808000Y57571000D02*
X51808000Y57571000D01*
X50808000Y54269000D02*
X51808000Y54269000D01*
X51808000Y52919000D02*
X50808000Y52919000D01*
X76033000Y10549000D02*
X76033000Y11549000D01*
X77383000Y11549000D02*
X77383000Y10549000D01*
X54856000Y56221000D02*
X53856000Y56221000D01*
X53856000Y57571000D02*
X54856000Y57571000D01*
X53856000Y54269000D02*
X54856000Y54269000D01*
X54856000Y52919000D02*
X53856000Y52919000D01*
X32673000Y20982000D02*
X30573000Y20982000D01*
X32673000Y27532000D02*
X30573000Y27532000D01*
X38711500Y19359500D02*
X38711500Y18359500D01*
X37361500Y18359500D02*
X37361500Y19359500D01*
X42378000Y11057000D02*
X42378000Y12057000D01*
X43728000Y12057000D02*
X43728000Y11057000D01*
X78486000Y14478000D02*
X93726000Y14478000D01*
X93726000Y14478000D02*
X93726000Y5842000D01*
X93726000Y5842000D02*
X78486000Y5842000D01*
X78486000Y5842000D02*
X78486000Y14478000D01*
X45735240Y18258840D02*
X45735240Y18307100D01*
X45034200Y21057820D02*
X45735240Y21057820D01*
X45735240Y21057820D02*
X45735240Y20808900D01*
X45735240Y18258840D02*
X45735240Y18058180D01*
X45735240Y18058180D02*
X45034200Y18058180D01*
X111760000Y63246000D02*
X106680000Y63246000D01*
X106680000Y63246000D02*
X106680000Y67818000D01*
X106680000Y67818000D02*
X111760000Y67818000D01*
X111760000Y67818000D02*
X111760000Y63246000D01*
X111760000Y64770000D02*
X111252000Y64770000D01*
X111252000Y64770000D02*
X111252000Y66040000D01*
X111252000Y66040000D02*
X111760000Y66040000D01*
X118618000Y63246000D02*
X113538000Y63246000D01*
X113538000Y63246000D02*
X113538000Y67818000D01*
X113538000Y67818000D02*
X118618000Y67818000D01*
X118618000Y67818000D02*
X118618000Y63246000D01*
X118618000Y64770000D02*
X118110000Y64770000D01*
X118110000Y64770000D02*
X118110000Y66040000D01*
X118110000Y66040000D02*
X118618000Y66040000D01*
X125730000Y63246000D02*
X120650000Y63246000D01*
X120650000Y63246000D02*
X120650000Y67818000D01*
X120650000Y67818000D02*
X125730000Y67818000D01*
X125730000Y67818000D02*
X125730000Y63246000D01*
X125730000Y64770000D02*
X125222000Y64770000D01*
X125222000Y64770000D02*
X125222000Y66040000D01*
X125222000Y66040000D02*
X125730000Y66040000D01*
X35457500Y17374500D02*
X35432500Y17374500D01*
X35457500Y12724500D02*
X35432500Y12724500D01*
X27407500Y12724500D02*
X27432500Y12724500D01*
X27407500Y17374500D02*
X27432500Y17374500D01*
X35457500Y17374500D02*
X35457500Y12724500D01*
X27407500Y17374500D02*
X27407500Y12724500D01*
X35432500Y17374500D02*
X35432500Y18449500D01*
X44500800Y12476480D02*
X44991020Y12476480D01*
X44500800Y13177520D02*
X44500800Y12476480D01*
X47701200Y13177520D02*
X47701200Y12476480D01*
X5732000Y53876000D02*
X4032000Y53876000D01*
X4032000Y53876000D02*
X4032000Y57076000D01*
X4032000Y57076000D02*
X132000Y57076000D01*
X132000Y57076000D02*
X132000Y35126000D01*
X132000Y35126000D02*
X4032000Y35126000D01*
X4032000Y35126000D02*
X4032000Y36126000D01*
X6232000Y52976000D02*
X6732000Y53476000D01*
X6732000Y53476000D02*
X6732000Y52476000D01*
X6732000Y52476000D02*
X6232000Y52976000D01*
X137650000Y80200000D02*
X138350000Y80200000D01*
X138350000Y79000000D02*
X137650000Y79000000D01*
X137400000Y71050000D02*
X137400000Y71750000D01*
X138600000Y71750000D02*
X138600000Y71050000D01*
X137400000Y54891000D02*
X137400000Y55591000D01*
X138600000Y55591000D02*
X138600000Y54891000D01*
X137449000Y38639000D02*
X137449000Y39339000D01*
X138649000Y39339000D02*
X138649000Y38639000D01*
X137400000Y22573000D02*
X137400000Y23273000D01*
X138600000Y23273000D02*
X138600000Y22573000D01*
D16*
X93472000Y86487000D02*
X102362000Y75057000D01*
X102362000Y75057000D02*
X84582000Y75057000D01*
X84582000Y75057000D02*
X93472000Y86487000D01*
D14*
X93853000Y81788000D02*
X92456000Y79883000D01*
X92456000Y79883000D02*
X93726000Y79883000D01*
X92202000Y77978000D02*
X92075000Y76962000D01*
X92075000Y76962000D02*
X92837000Y77597000D01*
X92837000Y77597000D02*
X92329000Y77343000D01*
X92329000Y77343000D02*
X94107000Y80137000D01*
X94107000Y80137000D02*
X92837000Y80137000D01*
X92837000Y80137000D02*
X94615000Y82169000D01*
X94615000Y82169000D02*
X93853000Y81661000D01*
X93853000Y81661000D02*
X93726000Y82169000D01*
X93599000Y82042000D02*
X92075000Y79756000D01*
X92075000Y79756000D02*
X93472000Y79756000D01*
X93472000Y79756000D02*
X92329000Y77470000D01*
X92329000Y77470000D02*
X92202000Y77978000D01*
D15*
X4405380Y58467667D02*
X5119666Y58467667D01*
X5262523Y58420048D01*
X5357761Y58324810D01*
X5405380Y58181953D01*
X5405380Y58086715D01*
X5405380Y59467667D02*
X5405380Y58896239D01*
X5405380Y59181953D02*
X4405380Y59181953D01*
X4548238Y59086715D01*
X4643476Y58991477D01*
X4691095Y58896239D01*
D11*
X76496333Y3120572D02*
X76472142Y3096381D01*
X76399571Y3072191D01*
X76351190Y3072191D01*
X76278619Y3096381D01*
X76230238Y3144762D01*
X76206047Y3193143D01*
X76181857Y3289905D01*
X76181857Y3362477D01*
X76206047Y3459239D01*
X76230238Y3507620D01*
X76278619Y3556000D01*
X76351190Y3580191D01*
X76399571Y3580191D01*
X76472142Y3556000D01*
X76496333Y3531810D01*
X76980142Y3072191D02*
X76689857Y3072191D01*
X76835000Y3072191D02*
X76835000Y3580191D01*
X76786619Y3507620D01*
X76738238Y3459239D01*
X76689857Y3435048D01*
X90212333Y18360572D02*
X90188142Y18336381D01*
X90115571Y18312191D01*
X90067190Y18312191D01*
X89994619Y18336381D01*
X89946238Y18384762D01*
X89922047Y18433143D01*
X89897857Y18529905D01*
X89897857Y18602477D01*
X89922047Y18699239D01*
X89946238Y18747620D01*
X89994619Y18796000D01*
X90067190Y18820191D01*
X90115571Y18820191D01*
X90188142Y18796000D01*
X90212333Y18771810D01*
X90405857Y18771810D02*
X90430047Y18796000D01*
X90478428Y18820191D01*
X90599380Y18820191D01*
X90647761Y18796000D01*
X90671952Y18771810D01*
X90696142Y18723429D01*
X90696142Y18675048D01*
X90671952Y18602477D01*
X90381666Y18312191D01*
X90696142Y18312191D01*
X87799333Y1215572D02*
X87775142Y1191381D01*
X87702571Y1167191D01*
X87654190Y1167191D01*
X87581619Y1191381D01*
X87533238Y1239762D01*
X87509047Y1288143D01*
X87484857Y1384905D01*
X87484857Y1457477D01*
X87509047Y1554239D01*
X87533238Y1602620D01*
X87581619Y1651000D01*
X87654190Y1675191D01*
X87702571Y1675191D01*
X87775142Y1651000D01*
X87799333Y1626810D01*
X87968666Y1675191D02*
X88283142Y1675191D01*
X88113809Y1481667D01*
X88186380Y1481667D01*
X88234761Y1457477D01*
X88258952Y1433286D01*
X88283142Y1384905D01*
X88283142Y1263953D01*
X88258952Y1215572D01*
X88234761Y1191381D01*
X88186380Y1167191D01*
X88041238Y1167191D01*
X87992857Y1191381D01*
X87968666Y1215572D01*
D15*
X97623333Y8278858D02*
X97575714Y8231239D01*
X97432857Y8183620D01*
X97337619Y8183620D01*
X97194761Y8231239D01*
X97099523Y8326477D01*
X97051904Y8421715D01*
X97004285Y8612191D01*
X97004285Y8755048D01*
X97051904Y8945524D01*
X97099523Y9040762D01*
X97194761Y9136000D01*
X97337619Y9183620D01*
X97432857Y9183620D01*
X97575714Y9136000D01*
X97623333Y9088381D01*
X98480476Y8850286D02*
X98480476Y8183620D01*
X98242380Y9231239D02*
X98004285Y8516953D01*
X98623333Y8516953D01*
D11*
X50600428Y17822334D02*
X50624619Y17798143D01*
X50648809Y17725572D01*
X50648809Y17677191D01*
X50624619Y17604620D01*
X50576238Y17556239D01*
X50527857Y17532048D01*
X50431095Y17507858D01*
X50358523Y17507858D01*
X50261761Y17532048D01*
X50213380Y17556239D01*
X50165000Y17604620D01*
X50140809Y17677191D01*
X50140809Y17725572D01*
X50165000Y17798143D01*
X50189190Y17822334D01*
X50140809Y18281953D02*
X50140809Y18040048D01*
X50382714Y18015858D01*
X50358523Y18040048D01*
X50334333Y18088429D01*
X50334333Y18209381D01*
X50358523Y18257762D01*
X50382714Y18281953D01*
X50431095Y18306143D01*
X50552047Y18306143D01*
X50600428Y18281953D01*
X50624619Y18257762D01*
X50648809Y18209381D01*
X50648809Y18088429D01*
X50624619Y18040048D01*
X50600428Y18015858D01*
X40186428Y21251334D02*
X40210619Y21227143D01*
X40234809Y21154572D01*
X40234809Y21106191D01*
X40210619Y21033620D01*
X40162238Y20985239D01*
X40113857Y20961048D01*
X40017095Y20936858D01*
X39944523Y20936858D01*
X39847761Y20961048D01*
X39799380Y20985239D01*
X39751000Y21033620D01*
X39726809Y21106191D01*
X39726809Y21154572D01*
X39751000Y21227143D01*
X39775190Y21251334D01*
X39726809Y21686762D02*
X39726809Y21590000D01*
X39751000Y21541620D01*
X39775190Y21517429D01*
X39847761Y21469048D01*
X39944523Y21444858D01*
X40138047Y21444858D01*
X40186428Y21469048D01*
X40210619Y21493239D01*
X40234809Y21541620D01*
X40234809Y21638381D01*
X40210619Y21686762D01*
X40186428Y21710953D01*
X40138047Y21735143D01*
X40017095Y21735143D01*
X39968714Y21710953D01*
X39944523Y21686762D01*
X39920333Y21638381D01*
X39920333Y21541620D01*
X39944523Y21493239D01*
X39968714Y21469048D01*
X40017095Y21444858D01*
X107738333Y71319572D02*
X107714142Y71295381D01*
X107641571Y71271191D01*
X107593190Y71271191D01*
X107520619Y71295381D01*
X107472238Y71343762D01*
X107448047Y71392143D01*
X107423857Y71488905D01*
X107423857Y71561477D01*
X107448047Y71658239D01*
X107472238Y71706620D01*
X107520619Y71755000D01*
X107593190Y71779191D01*
X107641571Y71779191D01*
X107714142Y71755000D01*
X107738333Y71730810D01*
X107907666Y71779191D02*
X108246333Y71779191D01*
X108028619Y71271191D01*
X109770333Y71192572D02*
X109746142Y71168381D01*
X109673571Y71144191D01*
X109625190Y71144191D01*
X109552619Y71168381D01*
X109504238Y71216762D01*
X109480047Y71265143D01*
X109455857Y71361905D01*
X109455857Y71434477D01*
X109480047Y71531239D01*
X109504238Y71579620D01*
X109552619Y71628000D01*
X109625190Y71652191D01*
X109673571Y71652191D01*
X109746142Y71628000D01*
X109770333Y71603810D01*
X110060619Y71434477D02*
X110012238Y71458667D01*
X109988047Y71482858D01*
X109963857Y71531239D01*
X109963857Y71555429D01*
X109988047Y71603810D01*
X110012238Y71628000D01*
X110060619Y71652191D01*
X110157380Y71652191D01*
X110205761Y71628000D01*
X110229952Y71603810D01*
X110254142Y71555429D01*
X110254142Y71531239D01*
X110229952Y71482858D01*
X110205761Y71458667D01*
X110157380Y71434477D01*
X110060619Y71434477D01*
X110012238Y71410286D01*
X109988047Y71386096D01*
X109963857Y71337715D01*
X109963857Y71240953D01*
X109988047Y71192572D01*
X110012238Y71168381D01*
X110060619Y71144191D01*
X110157380Y71144191D01*
X110205761Y71168381D01*
X110229952Y71192572D01*
X110254142Y71240953D01*
X110254142Y71337715D01*
X110229952Y71386096D01*
X110205761Y71410286D01*
X110157380Y71434477D01*
X110532333Y59127572D02*
X110508142Y59103381D01*
X110435571Y59079191D01*
X110387190Y59079191D01*
X110314619Y59103381D01*
X110266238Y59151762D01*
X110242047Y59200143D01*
X110217857Y59296905D01*
X110217857Y59369477D01*
X110242047Y59466239D01*
X110266238Y59514620D01*
X110314619Y59563000D01*
X110387190Y59587191D01*
X110435571Y59587191D01*
X110508142Y59563000D01*
X110532333Y59538810D01*
X110774238Y59079191D02*
X110871000Y59079191D01*
X110919380Y59103381D01*
X110943571Y59127572D01*
X110991952Y59200143D01*
X111016142Y59296905D01*
X111016142Y59490429D01*
X110991952Y59538810D01*
X110967761Y59563000D01*
X110919380Y59587191D01*
X110822619Y59587191D01*
X110774238Y59563000D01*
X110750047Y59538810D01*
X110725857Y59490429D01*
X110725857Y59369477D01*
X110750047Y59321096D01*
X110774238Y59296905D01*
X110822619Y59272715D01*
X110919380Y59272715D01*
X110967761Y59296905D01*
X110991952Y59321096D01*
X111016142Y59369477D01*
X41329428Y59508572D02*
X41305238Y59484381D01*
X41232666Y59460191D01*
X41184285Y59460191D01*
X41111714Y59484381D01*
X41063333Y59532762D01*
X41039142Y59581143D01*
X41014952Y59677905D01*
X41014952Y59750477D01*
X41039142Y59847239D01*
X41063333Y59895620D01*
X41111714Y59944000D01*
X41184285Y59968191D01*
X41232666Y59968191D01*
X41305238Y59944000D01*
X41329428Y59919810D01*
X41813238Y59460191D02*
X41522952Y59460191D01*
X41668095Y59460191D02*
X41668095Y59968191D01*
X41619714Y59895620D01*
X41571333Y59847239D01*
X41522952Y59823048D01*
X42127714Y59968191D02*
X42176095Y59968191D01*
X42224476Y59944000D01*
X42248666Y59919810D01*
X42272857Y59871429D01*
X42297047Y59774667D01*
X42297047Y59653715D01*
X42272857Y59556953D01*
X42248666Y59508572D01*
X42224476Y59484381D01*
X42176095Y59460191D01*
X42127714Y59460191D01*
X42079333Y59484381D01*
X42055142Y59508572D01*
X42030952Y59556953D01*
X42006761Y59653715D01*
X42006761Y59774667D01*
X42030952Y59871429D01*
X42055142Y59919810D01*
X42079333Y59944000D01*
X42127714Y59968191D01*
X32058428Y59508572D02*
X32034238Y59484381D01*
X31961666Y59460191D01*
X31913285Y59460191D01*
X31840714Y59484381D01*
X31792333Y59532762D01*
X31768142Y59581143D01*
X31743952Y59677905D01*
X31743952Y59750477D01*
X31768142Y59847239D01*
X31792333Y59895620D01*
X31840714Y59944000D01*
X31913285Y59968191D01*
X31961666Y59968191D01*
X32034238Y59944000D01*
X32058428Y59919810D01*
X32542238Y59460191D02*
X32251952Y59460191D01*
X32397095Y59460191D02*
X32397095Y59968191D01*
X32348714Y59895620D01*
X32300333Y59847239D01*
X32251952Y59823048D01*
X33026047Y59460191D02*
X32735761Y59460191D01*
X32880904Y59460191D02*
X32880904Y59968191D01*
X32832523Y59895620D01*
X32784142Y59847239D01*
X32735761Y59823048D01*
X115116428Y72063429D02*
X115140619Y72039239D01*
X115164809Y71966667D01*
X115164809Y71918286D01*
X115140619Y71845715D01*
X115092238Y71797334D01*
X115043857Y71773143D01*
X114947095Y71748953D01*
X114874523Y71748953D01*
X114777761Y71773143D01*
X114729380Y71797334D01*
X114681000Y71845715D01*
X114656809Y71918286D01*
X114656809Y71966667D01*
X114681000Y72039239D01*
X114705190Y72063429D01*
X115164809Y72547239D02*
X115164809Y72256953D01*
X115164809Y72402096D02*
X114656809Y72402096D01*
X114729380Y72353715D01*
X114777761Y72305334D01*
X114801952Y72256953D01*
X114705190Y72740762D02*
X114681000Y72764953D01*
X114656809Y72813334D01*
X114656809Y72934286D01*
X114681000Y72982667D01*
X114705190Y73006858D01*
X114753571Y73031048D01*
X114801952Y73031048D01*
X114874523Y73006858D01*
X115164809Y72716572D01*
X115164809Y73031048D01*
X103686428Y76526572D02*
X103662238Y76502381D01*
X103589666Y76478191D01*
X103541285Y76478191D01*
X103468714Y76502381D01*
X103420333Y76550762D01*
X103396142Y76599143D01*
X103371952Y76695905D01*
X103371952Y76768477D01*
X103396142Y76865239D01*
X103420333Y76913620D01*
X103468714Y76962000D01*
X103541285Y76986191D01*
X103589666Y76986191D01*
X103662238Y76962000D01*
X103686428Y76937810D01*
X104170238Y76478191D02*
X103879952Y76478191D01*
X104025095Y76478191D02*
X104025095Y76986191D01*
X103976714Y76913620D01*
X103928333Y76865239D01*
X103879952Y76841048D01*
X104339571Y76986191D02*
X104654047Y76986191D01*
X104484714Y76792667D01*
X104557285Y76792667D01*
X104605666Y76768477D01*
X104629857Y76744286D01*
X104654047Y76695905D01*
X104654047Y76574953D01*
X104629857Y76526572D01*
X104605666Y76502381D01*
X104557285Y76478191D01*
X104412142Y76478191D01*
X104363761Y76502381D01*
X104339571Y76526572D01*
X99876428Y84654572D02*
X99852238Y84630381D01*
X99779666Y84606191D01*
X99731285Y84606191D01*
X99658714Y84630381D01*
X99610333Y84678762D01*
X99586142Y84727143D01*
X99561952Y84823905D01*
X99561952Y84896477D01*
X99586142Y84993239D01*
X99610333Y85041620D01*
X99658714Y85090000D01*
X99731285Y85114191D01*
X99779666Y85114191D01*
X99852238Y85090000D01*
X99876428Y85065810D01*
X100360238Y84606191D02*
X100069952Y84606191D01*
X100215095Y84606191D02*
X100215095Y85114191D01*
X100166714Y85041620D01*
X100118333Y84993239D01*
X100069952Y84969048D01*
X100795666Y84944858D02*
X100795666Y84606191D01*
X100674714Y85138381D02*
X100553761Y84775524D01*
X100868238Y84775524D01*
X32058428Y60270572D02*
X32034238Y60246381D01*
X31961666Y60222191D01*
X31913285Y60222191D01*
X31840714Y60246381D01*
X31792333Y60294762D01*
X31768142Y60343143D01*
X31743952Y60439905D01*
X31743952Y60512477D01*
X31768142Y60609239D01*
X31792333Y60657620D01*
X31840714Y60706000D01*
X31913285Y60730191D01*
X31961666Y60730191D01*
X32034238Y60706000D01*
X32058428Y60681810D01*
X32542238Y60222191D02*
X32251952Y60222191D01*
X32397095Y60222191D02*
X32397095Y60730191D01*
X32348714Y60657620D01*
X32300333Y60609239D01*
X32251952Y60585048D01*
X33001857Y60730191D02*
X32759952Y60730191D01*
X32735761Y60488286D01*
X32759952Y60512477D01*
X32808333Y60536667D01*
X32929285Y60536667D01*
X32977666Y60512477D01*
X33001857Y60488286D01*
X33026047Y60439905D01*
X33026047Y60318953D01*
X33001857Y60270572D01*
X32977666Y60246381D01*
X32929285Y60222191D01*
X32808333Y60222191D01*
X32759952Y60246381D01*
X32735761Y60270572D01*
X41329428Y60270572D02*
X41305238Y60246381D01*
X41232666Y60222191D01*
X41184285Y60222191D01*
X41111714Y60246381D01*
X41063333Y60294762D01*
X41039142Y60343143D01*
X41014952Y60439905D01*
X41014952Y60512477D01*
X41039142Y60609239D01*
X41063333Y60657620D01*
X41111714Y60706000D01*
X41184285Y60730191D01*
X41232666Y60730191D01*
X41305238Y60706000D01*
X41329428Y60681810D01*
X41813238Y60222191D02*
X41522952Y60222191D01*
X41668095Y60222191D02*
X41668095Y60730191D01*
X41619714Y60657620D01*
X41571333Y60609239D01*
X41522952Y60585048D01*
X42248666Y60730191D02*
X42151904Y60730191D01*
X42103523Y60706000D01*
X42079333Y60681810D01*
X42030952Y60609239D01*
X42006761Y60512477D01*
X42006761Y60318953D01*
X42030952Y60270572D01*
X42055142Y60246381D01*
X42103523Y60222191D01*
X42200285Y60222191D01*
X42248666Y60246381D01*
X42272857Y60270572D01*
X42297047Y60318953D01*
X42297047Y60439905D01*
X42272857Y60488286D01*
X42248666Y60512477D01*
X42200285Y60536667D01*
X42103523Y60536667D01*
X42055142Y60512477D01*
X42030952Y60488286D01*
X42006761Y60439905D01*
X117275428Y62551572D02*
X117251238Y62527381D01*
X117178666Y62503191D01*
X117130285Y62503191D01*
X117057714Y62527381D01*
X117009333Y62575762D01*
X116985142Y62624143D01*
X116960952Y62720905D01*
X116960952Y62793477D01*
X116985142Y62890239D01*
X117009333Y62938620D01*
X117057714Y62987000D01*
X117130285Y63011191D01*
X117178666Y63011191D01*
X117251238Y62987000D01*
X117275428Y62962810D01*
X117759238Y62503191D02*
X117468952Y62503191D01*
X117614095Y62503191D02*
X117614095Y63011191D01*
X117565714Y62938620D01*
X117517333Y62890239D01*
X117468952Y62866048D01*
X117928571Y63011191D02*
X118267238Y63011191D01*
X118049523Y62503191D01*
X121466428Y72970572D02*
X121442238Y72946381D01*
X121369666Y72922191D01*
X121321285Y72922191D01*
X121248714Y72946381D01*
X121200333Y72994762D01*
X121176142Y73043143D01*
X121151952Y73139905D01*
X121151952Y73212477D01*
X121176142Y73309239D01*
X121200333Y73357620D01*
X121248714Y73406000D01*
X121321285Y73430191D01*
X121369666Y73430191D01*
X121442238Y73406000D01*
X121466428Y73381810D01*
X121950238Y72922191D02*
X121659952Y72922191D01*
X121805095Y72922191D02*
X121805095Y73430191D01*
X121756714Y73357620D01*
X121708333Y73309239D01*
X121659952Y73285048D01*
X122240523Y73212477D02*
X122192142Y73236667D01*
X122167952Y73260858D01*
X122143761Y73309239D01*
X122143761Y73333429D01*
X122167952Y73381810D01*
X122192142Y73406000D01*
X122240523Y73430191D01*
X122337285Y73430191D01*
X122385666Y73406000D01*
X122409857Y73381810D01*
X122434047Y73333429D01*
X122434047Y73309239D01*
X122409857Y73260858D01*
X122385666Y73236667D01*
X122337285Y73212477D01*
X122240523Y73212477D01*
X122192142Y73188286D01*
X122167952Y73164096D01*
X122143761Y73115715D01*
X122143761Y73018953D01*
X122167952Y72970572D01*
X122192142Y72946381D01*
X122240523Y72922191D01*
X122337285Y72922191D01*
X122385666Y72946381D01*
X122409857Y72970572D01*
X122434047Y73018953D01*
X122434047Y73115715D01*
X122409857Y73164096D01*
X122385666Y73188286D01*
X122337285Y73212477D01*
X126800428Y80191429D02*
X126824619Y80167239D01*
X126848809Y80094667D01*
X126848809Y80046286D01*
X126824619Y79973715D01*
X126776238Y79925334D01*
X126727857Y79901143D01*
X126631095Y79876953D01*
X126558523Y79876953D01*
X126461761Y79901143D01*
X126413380Y79925334D01*
X126365000Y79973715D01*
X126340809Y80046286D01*
X126340809Y80094667D01*
X126365000Y80167239D01*
X126389190Y80191429D01*
X126848809Y80675239D02*
X126848809Y80384953D01*
X126848809Y80530096D02*
X126340809Y80530096D01*
X126413380Y80481715D01*
X126461761Y80433334D01*
X126485952Y80384953D01*
X126848809Y80917143D02*
X126848809Y81013905D01*
X126824619Y81062286D01*
X126800428Y81086477D01*
X126727857Y81134858D01*
X126631095Y81159048D01*
X126437571Y81159048D01*
X126389190Y81134858D01*
X126365000Y81110667D01*
X126340809Y81062286D01*
X126340809Y80965524D01*
X126365000Y80917143D01*
X126389190Y80892953D01*
X126437571Y80868762D01*
X126558523Y80868762D01*
X126606904Y80892953D01*
X126631095Y80917143D01*
X126655285Y80965524D01*
X126655285Y81062286D01*
X126631095Y81110667D01*
X126606904Y81134858D01*
X126558523Y81159048D01*
X46155428Y58492572D02*
X46131238Y58468381D01*
X46058666Y58444191D01*
X46010285Y58444191D01*
X45937714Y58468381D01*
X45889333Y58516762D01*
X45865142Y58565143D01*
X45840952Y58661905D01*
X45840952Y58734477D01*
X45865142Y58831239D01*
X45889333Y58879620D01*
X45937714Y58928000D01*
X46010285Y58952191D01*
X46058666Y58952191D01*
X46131238Y58928000D01*
X46155428Y58903810D01*
X46348952Y58903810D02*
X46373142Y58928000D01*
X46421523Y58952191D01*
X46542476Y58952191D01*
X46590857Y58928000D01*
X46615047Y58903810D01*
X46639238Y58855429D01*
X46639238Y58807048D01*
X46615047Y58734477D01*
X46324761Y58444191D01*
X46639238Y58444191D01*
X46953714Y58952191D02*
X47002095Y58952191D01*
X47050476Y58928000D01*
X47074666Y58903810D01*
X47098857Y58855429D01*
X47123047Y58758667D01*
X47123047Y58637715D01*
X47098857Y58540953D01*
X47074666Y58492572D01*
X47050476Y58468381D01*
X47002095Y58444191D01*
X46953714Y58444191D01*
X46905333Y58468381D01*
X46881142Y58492572D01*
X46856952Y58540953D01*
X46832761Y58637715D01*
X46832761Y58758667D01*
X46856952Y58855429D01*
X46881142Y58903810D01*
X46905333Y58928000D01*
X46953714Y58952191D01*
X124387428Y59508572D02*
X124363238Y59484381D01*
X124290666Y59460191D01*
X124242285Y59460191D01*
X124169714Y59484381D01*
X124121333Y59532762D01*
X124097142Y59581143D01*
X124072952Y59677905D01*
X124072952Y59750477D01*
X124097142Y59847239D01*
X124121333Y59895620D01*
X124169714Y59944000D01*
X124242285Y59968191D01*
X124290666Y59968191D01*
X124363238Y59944000D01*
X124387428Y59919810D01*
X124580952Y59919810D02*
X124605142Y59944000D01*
X124653523Y59968191D01*
X124774476Y59968191D01*
X124822857Y59944000D01*
X124847047Y59919810D01*
X124871238Y59871429D01*
X124871238Y59823048D01*
X124847047Y59750477D01*
X124556761Y59460191D01*
X124871238Y59460191D01*
X125355047Y59460191D02*
X125064761Y59460191D01*
X125209904Y59460191D02*
X125209904Y59968191D01*
X125161523Y59895620D01*
X125113142Y59847239D01*
X125064761Y59823048D01*
X48060428Y58492572D02*
X48036238Y58468381D01*
X47963666Y58444191D01*
X47915285Y58444191D01*
X47842714Y58468381D01*
X47794333Y58516762D01*
X47770142Y58565143D01*
X47745952Y58661905D01*
X47745952Y58734477D01*
X47770142Y58831239D01*
X47794333Y58879620D01*
X47842714Y58928000D01*
X47915285Y58952191D01*
X47963666Y58952191D01*
X48036238Y58928000D01*
X48060428Y58903810D01*
X48253952Y58903810D02*
X48278142Y58928000D01*
X48326523Y58952191D01*
X48447476Y58952191D01*
X48495857Y58928000D01*
X48520047Y58903810D01*
X48544238Y58855429D01*
X48544238Y58807048D01*
X48520047Y58734477D01*
X48229761Y58444191D01*
X48544238Y58444191D01*
X48737761Y58903810D02*
X48761952Y58928000D01*
X48810333Y58952191D01*
X48931285Y58952191D01*
X48979666Y58928000D01*
X49003857Y58903810D01*
X49028047Y58855429D01*
X49028047Y58807048D01*
X49003857Y58734477D01*
X48713571Y58444191D01*
X49028047Y58444191D01*
X50981428Y58492572D02*
X50957238Y58468381D01*
X50884666Y58444191D01*
X50836285Y58444191D01*
X50763714Y58468381D01*
X50715333Y58516762D01*
X50691142Y58565143D01*
X50666952Y58661905D01*
X50666952Y58734477D01*
X50691142Y58831239D01*
X50715333Y58879620D01*
X50763714Y58928000D01*
X50836285Y58952191D01*
X50884666Y58952191D01*
X50957238Y58928000D01*
X50981428Y58903810D01*
X51174952Y58903810D02*
X51199142Y58928000D01*
X51247523Y58952191D01*
X51368476Y58952191D01*
X51416857Y58928000D01*
X51441047Y58903810D01*
X51465238Y58855429D01*
X51465238Y58807048D01*
X51441047Y58734477D01*
X51150761Y58444191D01*
X51465238Y58444191D01*
X51634571Y58952191D02*
X51949047Y58952191D01*
X51779714Y58758667D01*
X51852285Y58758667D01*
X51900666Y58734477D01*
X51924857Y58710286D01*
X51949047Y58661905D01*
X51949047Y58540953D01*
X51924857Y58492572D01*
X51900666Y58468381D01*
X51852285Y58444191D01*
X51707142Y58444191D01*
X51658761Y58468381D01*
X51634571Y58492572D01*
X54029428Y58492572D02*
X54005238Y58468381D01*
X53932666Y58444191D01*
X53884285Y58444191D01*
X53811714Y58468381D01*
X53763333Y58516762D01*
X53739142Y58565143D01*
X53714952Y58661905D01*
X53714952Y58734477D01*
X53739142Y58831239D01*
X53763333Y58879620D01*
X53811714Y58928000D01*
X53884285Y58952191D01*
X53932666Y58952191D01*
X54005238Y58928000D01*
X54029428Y58903810D01*
X54222952Y58903810D02*
X54247142Y58928000D01*
X54295523Y58952191D01*
X54416476Y58952191D01*
X54464857Y58928000D01*
X54489047Y58903810D01*
X54513238Y58855429D01*
X54513238Y58807048D01*
X54489047Y58734477D01*
X54198761Y58444191D01*
X54513238Y58444191D01*
X54948666Y58782858D02*
X54948666Y58444191D01*
X54827714Y58976381D02*
X54706761Y58613524D01*
X55021238Y58613524D01*
X36630428Y19104429D02*
X36654619Y19080239D01*
X36678809Y19007667D01*
X36678809Y18959286D01*
X36654619Y18886715D01*
X36606238Y18838334D01*
X36557857Y18814143D01*
X36461095Y18789953D01*
X36388523Y18789953D01*
X36291761Y18814143D01*
X36243380Y18838334D01*
X36195000Y18886715D01*
X36170809Y18959286D01*
X36170809Y19007667D01*
X36195000Y19080239D01*
X36219190Y19104429D01*
X36219190Y19297953D02*
X36195000Y19322143D01*
X36170809Y19370524D01*
X36170809Y19491477D01*
X36195000Y19539858D01*
X36219190Y19564048D01*
X36267571Y19588239D01*
X36315952Y19588239D01*
X36388523Y19564048D01*
X36678809Y19273762D01*
X36678809Y19588239D01*
X36170809Y20047858D02*
X36170809Y19805953D01*
X36412714Y19781762D01*
X36388523Y19805953D01*
X36364333Y19854334D01*
X36364333Y19975286D01*
X36388523Y20023667D01*
X36412714Y20047858D01*
X36461095Y20072048D01*
X36582047Y20072048D01*
X36630428Y20047858D01*
X36654619Y20023667D01*
X36678809Y19975286D01*
X36678809Y19854334D01*
X36654619Y19805953D01*
X36630428Y19781762D01*
X37900428Y12627429D02*
X37924619Y12603239D01*
X37948809Y12530667D01*
X37948809Y12482286D01*
X37924619Y12409715D01*
X37876238Y12361334D01*
X37827857Y12337143D01*
X37731095Y12312953D01*
X37658523Y12312953D01*
X37561761Y12337143D01*
X37513380Y12361334D01*
X37465000Y12409715D01*
X37440809Y12482286D01*
X37440809Y12530667D01*
X37465000Y12603239D01*
X37489190Y12627429D01*
X37489190Y12820953D02*
X37465000Y12845143D01*
X37440809Y12893524D01*
X37440809Y13014477D01*
X37465000Y13062858D01*
X37489190Y13087048D01*
X37537571Y13111239D01*
X37585952Y13111239D01*
X37658523Y13087048D01*
X37948809Y12796762D01*
X37948809Y13111239D01*
X37440809Y13546667D02*
X37440809Y13449905D01*
X37465000Y13401524D01*
X37489190Y13377334D01*
X37561761Y13328953D01*
X37658523Y13304762D01*
X37852047Y13304762D01*
X37900428Y13328953D01*
X37924619Y13353143D01*
X37948809Y13401524D01*
X37948809Y13498286D01*
X37924619Y13546667D01*
X37900428Y13570858D01*
X37852047Y13595048D01*
X37731095Y13595048D01*
X37682714Y13570858D01*
X37658523Y13546667D01*
X37634333Y13498286D01*
X37634333Y13401524D01*
X37658523Y13353143D01*
X37682714Y13328953D01*
X37731095Y13304762D01*
X42091428Y14278429D02*
X42115619Y14254239D01*
X42139809Y14181667D01*
X42139809Y14133286D01*
X42115619Y14060715D01*
X42067238Y14012334D01*
X42018857Y13988143D01*
X41922095Y13963953D01*
X41849523Y13963953D01*
X41752761Y13988143D01*
X41704380Y14012334D01*
X41656000Y14060715D01*
X41631809Y14133286D01*
X41631809Y14181667D01*
X41656000Y14254239D01*
X41680190Y14278429D01*
X41680190Y14471953D02*
X41656000Y14496143D01*
X41631809Y14544524D01*
X41631809Y14665477D01*
X41656000Y14713858D01*
X41680190Y14738048D01*
X41728571Y14762239D01*
X41776952Y14762239D01*
X41849523Y14738048D01*
X42139809Y14447762D01*
X42139809Y14762239D01*
X41631809Y14931572D02*
X41631809Y15270239D01*
X42139809Y15052524D01*
D15*
X10183904Y20502620D02*
X10183904Y21502620D01*
X10422000Y21502620D01*
X10564857Y21455000D01*
X10660095Y21359762D01*
X10707714Y21264524D01*
X10755333Y21074048D01*
X10755333Y20931191D01*
X10707714Y20740715D01*
X10660095Y20645477D01*
X10564857Y20550239D01*
X10422000Y20502620D01*
X10183904Y20502620D01*
X11707714Y20502620D02*
X11136285Y20502620D01*
X11422000Y20502620D02*
X11422000Y21502620D01*
X11326761Y21359762D01*
X11231523Y21264524D01*
X11136285Y21216905D01*
D11*
X111354809Y73031048D02*
X110846809Y73031048D01*
X110846809Y73152000D01*
X110871000Y73224572D01*
X110919380Y73272953D01*
X110967761Y73297143D01*
X111064523Y73321334D01*
X111137095Y73321334D01*
X111233857Y73297143D01*
X111282238Y73272953D01*
X111330619Y73224572D01*
X111354809Y73152000D01*
X111354809Y73031048D01*
X110895190Y73514858D02*
X110871000Y73539048D01*
X110846809Y73587429D01*
X110846809Y73708381D01*
X110871000Y73756762D01*
X110895190Y73780953D01*
X110943571Y73805143D01*
X110991952Y73805143D01*
X111064523Y73780953D01*
X111354809Y73490667D01*
X111354809Y73805143D01*
X114402809Y73031048D02*
X113894809Y73031048D01*
X113894809Y73152000D01*
X113919000Y73224572D01*
X113967380Y73272953D01*
X114015761Y73297143D01*
X114112523Y73321334D01*
X114185095Y73321334D01*
X114281857Y73297143D01*
X114330238Y73272953D01*
X114378619Y73224572D01*
X114402809Y73152000D01*
X114402809Y73031048D01*
X113894809Y73490667D02*
X113894809Y73805143D01*
X114088333Y73635810D01*
X114088333Y73708381D01*
X114112523Y73756762D01*
X114136714Y73780953D01*
X114185095Y73805143D01*
X114306047Y73805143D01*
X114354428Y73780953D01*
X114378619Y73756762D01*
X114402809Y73708381D01*
X114402809Y73563239D01*
X114378619Y73514858D01*
X114354428Y73490667D01*
X117450809Y73031048D02*
X116942809Y73031048D01*
X116942809Y73152000D01*
X116967000Y73224572D01*
X117015380Y73272953D01*
X117063761Y73297143D01*
X117160523Y73321334D01*
X117233095Y73321334D01*
X117329857Y73297143D01*
X117378238Y73272953D01*
X117426619Y73224572D01*
X117450809Y73152000D01*
X117450809Y73031048D01*
X117112142Y73756762D02*
X117450809Y73756762D01*
X116918619Y73635810D02*
X117281476Y73514858D01*
X117281476Y73829334D01*
X117196809Y54489048D02*
X116688809Y54489048D01*
X116688809Y54610000D01*
X116713000Y54682572D01*
X116761380Y54730953D01*
X116809761Y54755143D01*
X116906523Y54779334D01*
X116979095Y54779334D01*
X117075857Y54755143D01*
X117124238Y54730953D01*
X117172619Y54682572D01*
X117196809Y54610000D01*
X117196809Y54489048D01*
X116688809Y55238953D02*
X116688809Y54997048D01*
X116930714Y54972858D01*
X116906523Y54997048D01*
X116882333Y55045429D01*
X116882333Y55166381D01*
X116906523Y55214762D01*
X116930714Y55238953D01*
X116979095Y55263143D01*
X117100047Y55263143D01*
X117148428Y55238953D01*
X117172619Y55214762D01*
X117196809Y55166381D01*
X117196809Y55045429D01*
X117172619Y54997048D01*
X117148428Y54972858D01*
D15*
X9348666Y54035620D02*
X9348666Y53321334D01*
X9301047Y53178477D01*
X9205809Y53083239D01*
X9062952Y53035620D01*
X8967714Y53035620D01*
X9729619Y54035620D02*
X10348666Y54035620D01*
X10015333Y53654667D01*
X10158190Y53654667D01*
X10253428Y53607048D01*
X10301047Y53559429D01*
X10348666Y53464191D01*
X10348666Y53226096D01*
X10301047Y53130858D01*
X10253428Y53083239D01*
X10158190Y53035620D01*
X9872476Y53035620D01*
X9777238Y53083239D01*
X9729619Y53130858D01*
X12406380Y33575667D02*
X13120666Y33575667D01*
X13263523Y33528048D01*
X13358761Y33432810D01*
X13406380Y33289953D01*
X13406380Y33194715D01*
X12739714Y34480429D02*
X13406380Y34480429D01*
X12358761Y34242334D02*
X13073047Y34004239D01*
X13073047Y34623286D01*
X70913666Y16041620D02*
X70913666Y15327334D01*
X70866047Y15184477D01*
X70770809Y15089239D01*
X70627952Y15041620D01*
X70532714Y15041620D01*
X71866047Y16041620D02*
X71389857Y16041620D01*
X71342238Y15565429D01*
X71389857Y15613048D01*
X71485095Y15660667D01*
X71723190Y15660667D01*
X71818428Y15613048D01*
X71866047Y15565429D01*
X71913666Y15470191D01*
X71913666Y15232096D01*
X71866047Y15136858D01*
X71818428Y15089239D01*
X71723190Y15041620D01*
X71485095Y15041620D01*
X71389857Y15089239D01*
X71342238Y15136858D01*
D17*
X102410260Y90589645D02*
X102410260Y89876630D01*
X102362725Y89734028D01*
X102267657Y89638959D01*
X102125054Y89591425D01*
X102029985Y89591425D01*
X103313411Y90589645D02*
X103123274Y90589645D01*
X103028205Y90542110D01*
X102980671Y90494576D01*
X102885602Y90351973D01*
X102838068Y90161836D01*
X102838068Y89781562D01*
X102885602Y89686493D01*
X102933137Y89638959D01*
X103028205Y89591425D01*
X103218342Y89591425D01*
X103313411Y89638959D01*
X103360945Y89686493D01*
X103408480Y89781562D01*
X103408480Y90019233D01*
X103360945Y90114302D01*
X103313411Y90161836D01*
X103218342Y90209370D01*
X103028205Y90209370D01*
X102933137Y90161836D01*
X102885602Y90114302D01*
X102838068Y90019233D01*
D15*
X138858666Y91479620D02*
X138858666Y90765334D01*
X138811047Y90622477D01*
X138715809Y90527239D01*
X138572952Y90479620D01*
X138477714Y90479620D01*
X139239619Y91479620D02*
X139906285Y91479620D01*
X139477714Y90479620D01*
X144446666Y66714620D02*
X144446666Y66000334D01*
X144399047Y65857477D01*
X144303809Y65762239D01*
X144160952Y65714620D01*
X144065714Y65714620D01*
X145065714Y66286048D02*
X144970476Y66333667D01*
X144922857Y66381286D01*
X144875238Y66476524D01*
X144875238Y66524143D01*
X144922857Y66619381D01*
X144970476Y66667000D01*
X145065714Y66714620D01*
X145256190Y66714620D01*
X145351428Y66667000D01*
X145399047Y66619381D01*
X145446666Y66524143D01*
X145446666Y66476524D01*
X145399047Y66381286D01*
X145351428Y66333667D01*
X145256190Y66286048D01*
X145065714Y66286048D01*
X144970476Y66238429D01*
X144922857Y66190810D01*
X144875238Y66095572D01*
X144875238Y65905096D01*
X144922857Y65809858D01*
X144970476Y65762239D01*
X145065714Y65714620D01*
X145256190Y65714620D01*
X145351428Y65762239D01*
X145399047Y65809858D01*
X145446666Y65905096D01*
X145446666Y66095572D01*
X145399047Y66190810D01*
X145351428Y66238429D01*
X145256190Y66286048D01*
X144192666Y50585620D02*
X144192666Y49871334D01*
X144145047Y49728477D01*
X144049809Y49633239D01*
X143906952Y49585620D01*
X143811714Y49585620D01*
X144716476Y49585620D02*
X144906952Y49585620D01*
X145002190Y49633239D01*
X145049809Y49680858D01*
X145145047Y49823715D01*
X145192666Y50014191D01*
X145192666Y50395143D01*
X145145047Y50490381D01*
X145097428Y50538000D01*
X145002190Y50585620D01*
X144811714Y50585620D01*
X144716476Y50538000D01*
X144668857Y50490381D01*
X144621238Y50395143D01*
X144621238Y50157048D01*
X144668857Y50061810D01*
X144716476Y50014191D01*
X144811714Y49966572D01*
X145002190Y49966572D01*
X145097428Y50014191D01*
X145145047Y50061810D01*
X145192666Y50157048D01*
X143970476Y34456620D02*
X143970476Y33742334D01*
X143922857Y33599477D01*
X143827619Y33504239D01*
X143684761Y33456620D01*
X143589523Y33456620D01*
X144970476Y33456620D02*
X144399047Y33456620D01*
X144684761Y33456620D02*
X144684761Y34456620D01*
X144589523Y34313762D01*
X144494285Y34218524D01*
X144399047Y34170905D01*
X145589523Y34456620D02*
X145684761Y34456620D01*
X145780000Y34409000D01*
X145827619Y34361381D01*
X145875238Y34266143D01*
X145922857Y34075667D01*
X145922857Y33837572D01*
X145875238Y33647096D01*
X145827619Y33551858D01*
X145780000Y33504239D01*
X145684761Y33456620D01*
X145589523Y33456620D01*
X145494285Y33504239D01*
X145446666Y33551858D01*
X145399047Y33647096D01*
X145351428Y33837572D01*
X145351428Y34075667D01*
X145399047Y34266143D01*
X145446666Y34361381D01*
X145494285Y34409000D01*
X145589523Y34456620D01*
X144097476Y18200620D02*
X144097476Y17486334D01*
X144049857Y17343477D01*
X143954619Y17248239D01*
X143811761Y17200620D01*
X143716523Y17200620D01*
X145097476Y17200620D02*
X144526047Y17200620D01*
X144811761Y17200620D02*
X144811761Y18200620D01*
X144716523Y18057762D01*
X144621285Y17962524D01*
X144526047Y17914905D01*
X146049857Y17200620D02*
X145478428Y17200620D01*
X145764142Y17200620D02*
X145764142Y18200620D01*
X145668904Y18057762D01*
X145573666Y17962524D01*
X145478428Y17914905D01*
D11*
X57754761Y11073191D02*
X57754761Y10710334D01*
X57730571Y10637762D01*
X57682190Y10589381D01*
X57609619Y10565191D01*
X57561238Y10565191D01*
X58262761Y10565191D02*
X57972476Y10565191D01*
X58117619Y10565191D02*
X58117619Y11073191D01*
X58069238Y11000620D01*
X58020857Y10952239D01*
X57972476Y10928048D01*
X58456285Y11024810D02*
X58480476Y11049000D01*
X58528857Y11073191D01*
X58649809Y11073191D01*
X58698190Y11049000D01*
X58722380Y11024810D01*
X58746571Y10976429D01*
X58746571Y10928048D01*
X58722380Y10855477D01*
X58432095Y10565191D01*
X58746571Y10565191D01*
D15*
X15906761Y32345381D02*
X15811523Y32393000D01*
X15716285Y32488239D01*
X15573428Y32631096D01*
X15478190Y32678715D01*
X15382952Y32678715D01*
X15430571Y32440620D02*
X15335333Y32488239D01*
X15240095Y32583477D01*
X15192476Y32773953D01*
X15192476Y33107286D01*
X15240095Y33297762D01*
X15335333Y33393000D01*
X15430571Y33440620D01*
X15621047Y33440620D01*
X15716285Y33393000D01*
X15811523Y33297762D01*
X15859142Y33107286D01*
X15859142Y32773953D01*
X15811523Y32583477D01*
X15716285Y32488239D01*
X15621047Y32440620D01*
X15430571Y32440620D01*
X16811523Y32440620D02*
X16240095Y32440620D01*
X16525809Y32440620D02*
X16525809Y33440620D01*
X16430571Y33297762D01*
X16335333Y33202524D01*
X16240095Y33154905D01*
D11*
X18644809Y17949334D02*
X18402904Y17780000D01*
X18644809Y17659048D02*
X18136809Y17659048D01*
X18136809Y17852572D01*
X18161000Y17900953D01*
X18185190Y17925143D01*
X18233571Y17949334D01*
X18306142Y17949334D01*
X18354523Y17925143D01*
X18378714Y17900953D01*
X18402904Y17852572D01*
X18402904Y17659048D01*
X18644809Y18433143D02*
X18644809Y18142858D01*
X18644809Y18288000D02*
X18136809Y18288000D01*
X18209380Y18239620D01*
X18257761Y18191239D01*
X18281952Y18142858D01*
X104436333Y41426191D02*
X104267000Y41668096D01*
X104146047Y41426191D02*
X104146047Y41934191D01*
X104339571Y41934191D01*
X104387952Y41910000D01*
X104412142Y41885810D01*
X104436333Y41837429D01*
X104436333Y41764858D01*
X104412142Y41716477D01*
X104387952Y41692286D01*
X104339571Y41668096D01*
X104146047Y41668096D01*
X104629857Y41885810D02*
X104654047Y41910000D01*
X104702428Y41934191D01*
X104823380Y41934191D01*
X104871761Y41910000D01*
X104895952Y41885810D01*
X104920142Y41837429D01*
X104920142Y41789048D01*
X104895952Y41716477D01*
X104605666Y41426191D01*
X104920142Y41426191D01*
X121641809Y77004334D02*
X121399904Y76835000D01*
X121641809Y76714048D02*
X121133809Y76714048D01*
X121133809Y76907572D01*
X121158000Y76955953D01*
X121182190Y76980143D01*
X121230571Y77004334D01*
X121303142Y77004334D01*
X121351523Y76980143D01*
X121375714Y76955953D01*
X121399904Y76907572D01*
X121399904Y76714048D01*
X121133809Y77173667D02*
X121133809Y77488143D01*
X121327333Y77318810D01*
X121327333Y77391381D01*
X121351523Y77439762D01*
X121375714Y77463953D01*
X121424095Y77488143D01*
X121545047Y77488143D01*
X121593428Y77463953D01*
X121617619Y77439762D01*
X121641809Y77391381D01*
X121641809Y77246239D01*
X121617619Y77197858D01*
X121593428Y77173667D01*
X110151333Y72033191D02*
X109982000Y72275096D01*
X109861047Y72033191D02*
X109861047Y72541191D01*
X110054571Y72541191D01*
X110102952Y72517000D01*
X110127142Y72492810D01*
X110151333Y72444429D01*
X110151333Y72371858D01*
X110127142Y72323477D01*
X110102952Y72299286D01*
X110054571Y72275096D01*
X109861047Y72275096D01*
X110586761Y72371858D02*
X110586761Y72033191D01*
X110465809Y72565381D02*
X110344857Y72202524D01*
X110659333Y72202524D01*
X29566809Y56557334D02*
X29324904Y56388000D01*
X29566809Y56267048D02*
X29058809Y56267048D01*
X29058809Y56460572D01*
X29083000Y56508953D01*
X29107190Y56533143D01*
X29155571Y56557334D01*
X29228142Y56557334D01*
X29276523Y56533143D01*
X29300714Y56508953D01*
X29324904Y56460572D01*
X29324904Y56267048D01*
X29058809Y57016953D02*
X29058809Y56775048D01*
X29300714Y56750858D01*
X29276523Y56775048D01*
X29252333Y56823429D01*
X29252333Y56944381D01*
X29276523Y56992762D01*
X29300714Y57016953D01*
X29349095Y57041143D01*
X29470047Y57041143D01*
X29518428Y57016953D01*
X29542619Y56992762D01*
X29566809Y56944381D01*
X29566809Y56823429D01*
X29542619Y56775048D01*
X29518428Y56750858D01*
X106528809Y58335334D02*
X106286904Y58166000D01*
X106528809Y58045048D02*
X106020809Y58045048D01*
X106020809Y58238572D01*
X106045000Y58286953D01*
X106069190Y58311143D01*
X106117571Y58335334D01*
X106190142Y58335334D01*
X106238523Y58311143D01*
X106262714Y58286953D01*
X106286904Y58238572D01*
X106286904Y58045048D01*
X106020809Y58770762D02*
X106020809Y58674000D01*
X106045000Y58625620D01*
X106069190Y58601429D01*
X106141761Y58553048D01*
X106238523Y58528858D01*
X106432047Y58528858D01*
X106480428Y58553048D01*
X106504619Y58577239D01*
X106528809Y58625620D01*
X106528809Y58722381D01*
X106504619Y58770762D01*
X106480428Y58794953D01*
X106432047Y58819143D01*
X106311095Y58819143D01*
X106262714Y58794953D01*
X106238523Y58770762D01*
X106214333Y58722381D01*
X106214333Y58625620D01*
X106238523Y58577239D01*
X106262714Y58553048D01*
X106311095Y58528858D01*
X108179809Y58335334D02*
X107937904Y58166000D01*
X108179809Y58045048D02*
X107671809Y58045048D01*
X107671809Y58238572D01*
X107696000Y58286953D01*
X107720190Y58311143D01*
X107768571Y58335334D01*
X107841142Y58335334D01*
X107889523Y58311143D01*
X107913714Y58286953D01*
X107937904Y58238572D01*
X107937904Y58045048D01*
X107671809Y58504667D02*
X107671809Y58843334D01*
X108179809Y58625620D01*
X37694809Y55680429D02*
X37452904Y55511096D01*
X37694809Y55390143D02*
X37186809Y55390143D01*
X37186809Y55583667D01*
X37211000Y55632048D01*
X37235190Y55656239D01*
X37283571Y55680429D01*
X37356142Y55680429D01*
X37404523Y55656239D01*
X37428714Y55632048D01*
X37452904Y55583667D01*
X37452904Y55390143D01*
X37694809Y56164239D02*
X37694809Y55873953D01*
X37694809Y56019096D02*
X37186809Y56019096D01*
X37259380Y55970715D01*
X37307761Y55922334D01*
X37331952Y55873953D01*
X37186809Y56478715D02*
X37186809Y56527096D01*
X37211000Y56575477D01*
X37235190Y56599667D01*
X37283571Y56623858D01*
X37380333Y56648048D01*
X37501285Y56648048D01*
X37598047Y56623858D01*
X37646428Y56599667D01*
X37670619Y56575477D01*
X37694809Y56527096D01*
X37694809Y56478715D01*
X37670619Y56430334D01*
X37646428Y56406143D01*
X37598047Y56381953D01*
X37501285Y56357762D01*
X37380333Y56357762D01*
X37283571Y56381953D01*
X37235190Y56406143D01*
X37211000Y56430334D01*
X37186809Y56478715D01*
X36932809Y55680429D02*
X36690904Y55511096D01*
X36932809Y55390143D02*
X36424809Y55390143D01*
X36424809Y55583667D01*
X36449000Y55632048D01*
X36473190Y55656239D01*
X36521571Y55680429D01*
X36594142Y55680429D01*
X36642523Y55656239D01*
X36666714Y55632048D01*
X36690904Y55583667D01*
X36690904Y55390143D01*
X36932809Y56164239D02*
X36932809Y55873953D01*
X36932809Y56019096D02*
X36424809Y56019096D01*
X36497380Y55970715D01*
X36545761Y55922334D01*
X36569952Y55873953D01*
X36424809Y56333572D02*
X36424809Y56648048D01*
X36618333Y56478715D01*
X36618333Y56551286D01*
X36642523Y56599667D01*
X36666714Y56623858D01*
X36715095Y56648048D01*
X36836047Y56648048D01*
X36884428Y56623858D01*
X36908619Y56599667D01*
X36932809Y56551286D01*
X36932809Y56406143D01*
X36908619Y56357762D01*
X36884428Y56333572D01*
X99876428Y83209191D02*
X99707095Y83451096D01*
X99586142Y83209191D02*
X99586142Y83717191D01*
X99779666Y83717191D01*
X99828047Y83693000D01*
X99852238Y83668810D01*
X99876428Y83620429D01*
X99876428Y83547858D01*
X99852238Y83499477D01*
X99828047Y83475286D01*
X99779666Y83451096D01*
X99586142Y83451096D01*
X100360238Y83209191D02*
X100069952Y83209191D01*
X100215095Y83209191D02*
X100215095Y83717191D01*
X100166714Y83644620D01*
X100118333Y83596239D01*
X100069952Y83572048D01*
X100795666Y83547858D02*
X100795666Y83209191D01*
X100674714Y83741381D02*
X100553761Y83378524D01*
X100868238Y83378524D01*
X27788809Y56442429D02*
X27546904Y56273096D01*
X27788809Y56152143D02*
X27280809Y56152143D01*
X27280809Y56345667D01*
X27305000Y56394048D01*
X27329190Y56418239D01*
X27377571Y56442429D01*
X27450142Y56442429D01*
X27498523Y56418239D01*
X27522714Y56394048D01*
X27546904Y56345667D01*
X27546904Y56152143D01*
X27788809Y56926239D02*
X27788809Y56635953D01*
X27788809Y56781096D02*
X27280809Y56781096D01*
X27353380Y56732715D01*
X27401761Y56684334D01*
X27425952Y56635953D01*
X27280809Y57385858D02*
X27280809Y57143953D01*
X27522714Y57119762D01*
X27498523Y57143953D01*
X27474333Y57192334D01*
X27474333Y57313286D01*
X27498523Y57361667D01*
X27522714Y57385858D01*
X27571095Y57410048D01*
X27692047Y57410048D01*
X27740428Y57385858D01*
X27764619Y57361667D01*
X27788809Y57313286D01*
X27788809Y57192334D01*
X27764619Y57143953D01*
X27740428Y57119762D01*
X116005428Y71271191D02*
X115836095Y71513096D01*
X115715142Y71271191D02*
X115715142Y71779191D01*
X115908666Y71779191D01*
X115957047Y71755000D01*
X115981238Y71730810D01*
X116005428Y71682429D01*
X116005428Y71609858D01*
X115981238Y71561477D01*
X115957047Y71537286D01*
X115908666Y71513096D01*
X115715142Y71513096D01*
X116489238Y71271191D02*
X116198952Y71271191D01*
X116344095Y71271191D02*
X116344095Y71779191D01*
X116295714Y71706620D01*
X116247333Y71658239D01*
X116198952Y71634048D01*
X116924666Y71779191D02*
X116827904Y71779191D01*
X116779523Y71755000D01*
X116755333Y71730810D01*
X116706952Y71658239D01*
X116682761Y71561477D01*
X116682761Y71367953D01*
X116706952Y71319572D01*
X116731142Y71295381D01*
X116779523Y71271191D01*
X116876285Y71271191D01*
X116924666Y71295381D01*
X116948857Y71319572D01*
X116973047Y71367953D01*
X116973047Y71488905D01*
X116948857Y71537286D01*
X116924666Y71561477D01*
X116876285Y71585667D01*
X116779523Y71585667D01*
X116731142Y71561477D01*
X116706952Y71537286D01*
X116682761Y71488905D01*
X35916809Y59617429D02*
X35674904Y59448096D01*
X35916809Y59327143D02*
X35408809Y59327143D01*
X35408809Y59520667D01*
X35433000Y59569048D01*
X35457190Y59593239D01*
X35505571Y59617429D01*
X35578142Y59617429D01*
X35626523Y59593239D01*
X35650714Y59569048D01*
X35674904Y59520667D01*
X35674904Y59327143D01*
X35916809Y60101239D02*
X35916809Y59810953D01*
X35916809Y59956096D02*
X35408809Y59956096D01*
X35481380Y59907715D01*
X35529761Y59859334D01*
X35553952Y59810953D01*
X35916809Y60343143D02*
X35916809Y60439905D01*
X35892619Y60488286D01*
X35868428Y60512477D01*
X35795857Y60560858D01*
X35699095Y60585048D01*
X35505571Y60585048D01*
X35457190Y60560858D01*
X35433000Y60536667D01*
X35408809Y60488286D01*
X35408809Y60391524D01*
X35433000Y60343143D01*
X35457190Y60318953D01*
X35505571Y60294762D01*
X35626523Y60294762D01*
X35674904Y60318953D01*
X35699095Y60343143D01*
X35723285Y60391524D01*
X35723285Y60488286D01*
X35699095Y60536667D01*
X35674904Y60560858D01*
X35626523Y60585048D01*
X38837809Y59617429D02*
X38595904Y59448096D01*
X38837809Y59327143D02*
X38329809Y59327143D01*
X38329809Y59520667D01*
X38354000Y59569048D01*
X38378190Y59593239D01*
X38426571Y59617429D01*
X38499142Y59617429D01*
X38547523Y59593239D01*
X38571714Y59569048D01*
X38595904Y59520667D01*
X38595904Y59327143D01*
X38378190Y59810953D02*
X38354000Y59835143D01*
X38329809Y59883524D01*
X38329809Y60004477D01*
X38354000Y60052858D01*
X38378190Y60077048D01*
X38426571Y60101239D01*
X38474952Y60101239D01*
X38547523Y60077048D01*
X38837809Y59786762D01*
X38837809Y60101239D01*
X38378190Y60294762D02*
X38354000Y60318953D01*
X38329809Y60367334D01*
X38329809Y60488286D01*
X38354000Y60536667D01*
X38378190Y60560858D01*
X38426571Y60585048D01*
X38474952Y60585048D01*
X38547523Y60560858D01*
X38837809Y60270572D01*
X38837809Y60585048D01*
X115037809Y57966429D02*
X114795904Y57797096D01*
X115037809Y57676143D02*
X114529809Y57676143D01*
X114529809Y57869667D01*
X114554000Y57918048D01*
X114578190Y57942239D01*
X114626571Y57966429D01*
X114699142Y57966429D01*
X114747523Y57942239D01*
X114771714Y57918048D01*
X114795904Y57869667D01*
X114795904Y57676143D01*
X114578190Y58159953D02*
X114554000Y58184143D01*
X114529809Y58232524D01*
X114529809Y58353477D01*
X114554000Y58401858D01*
X114578190Y58426048D01*
X114626571Y58450239D01*
X114674952Y58450239D01*
X114747523Y58426048D01*
X115037809Y58135762D01*
X115037809Y58450239D01*
X114529809Y58619572D02*
X114529809Y58934048D01*
X114723333Y58764715D01*
X114723333Y58837286D01*
X114747523Y58885667D01*
X114771714Y58909858D01*
X114820095Y58934048D01*
X114941047Y58934048D01*
X114989428Y58909858D01*
X115013619Y58885667D01*
X115037809Y58837286D01*
X115037809Y58692143D01*
X115013619Y58643762D01*
X114989428Y58619572D01*
X113386809Y57966429D02*
X113144904Y57797096D01*
X113386809Y57676143D02*
X112878809Y57676143D01*
X112878809Y57869667D01*
X112903000Y57918048D01*
X112927190Y57942239D01*
X112975571Y57966429D01*
X113048142Y57966429D01*
X113096523Y57942239D01*
X113120714Y57918048D01*
X113144904Y57869667D01*
X113144904Y57676143D01*
X112927190Y58159953D02*
X112903000Y58184143D01*
X112878809Y58232524D01*
X112878809Y58353477D01*
X112903000Y58401858D01*
X112927190Y58426048D01*
X112975571Y58450239D01*
X113023952Y58450239D01*
X113096523Y58426048D01*
X113386809Y58135762D01*
X113386809Y58450239D01*
X113048142Y58885667D02*
X113386809Y58885667D01*
X112854619Y58764715D02*
X113217476Y58643762D01*
X113217476Y58958239D01*
X123117428Y69747191D02*
X122948095Y69989096D01*
X122827142Y69747191D02*
X122827142Y70255191D01*
X123020666Y70255191D01*
X123069047Y70231000D01*
X123093238Y70206810D01*
X123117428Y70158429D01*
X123117428Y70085858D01*
X123093238Y70037477D01*
X123069047Y70013286D01*
X123020666Y69989096D01*
X122827142Y69989096D01*
X123310952Y70206810D02*
X123335142Y70231000D01*
X123383523Y70255191D01*
X123504476Y70255191D01*
X123552857Y70231000D01*
X123577047Y70206810D01*
X123601238Y70158429D01*
X123601238Y70110048D01*
X123577047Y70037477D01*
X123286761Y69747191D01*
X123601238Y69747191D01*
X124060857Y70255191D02*
X123818952Y70255191D01*
X123794761Y70013286D01*
X123818952Y70037477D01*
X123867333Y70061667D01*
X123988285Y70061667D01*
X124036666Y70037477D01*
X124060857Y70013286D01*
X124085047Y69964905D01*
X124085047Y69843953D01*
X124060857Y69795572D01*
X124036666Y69771381D01*
X123988285Y69747191D01*
X123867333Y69747191D01*
X123818952Y69771381D01*
X123794761Y69795572D01*
X46155428Y59079191D02*
X45986095Y59321096D01*
X45865142Y59079191D02*
X45865142Y59587191D01*
X46058666Y59587191D01*
X46107047Y59563000D01*
X46131238Y59538810D01*
X46155428Y59490429D01*
X46155428Y59417858D01*
X46131238Y59369477D01*
X46107047Y59345286D01*
X46058666Y59321096D01*
X45865142Y59321096D01*
X46348952Y59538810D02*
X46373142Y59563000D01*
X46421523Y59587191D01*
X46542476Y59587191D01*
X46590857Y59563000D01*
X46615047Y59538810D01*
X46639238Y59490429D01*
X46639238Y59442048D01*
X46615047Y59369477D01*
X46324761Y59079191D01*
X46639238Y59079191D01*
X47074666Y59587191D02*
X46977904Y59587191D01*
X46929523Y59563000D01*
X46905333Y59538810D01*
X46856952Y59466239D01*
X46832761Y59369477D01*
X46832761Y59175953D01*
X46856952Y59127572D01*
X46881142Y59103381D01*
X46929523Y59079191D01*
X47026285Y59079191D01*
X47074666Y59103381D01*
X47098857Y59127572D01*
X47123047Y59175953D01*
X47123047Y59296905D01*
X47098857Y59345286D01*
X47074666Y59369477D01*
X47026285Y59393667D01*
X46929523Y59393667D01*
X46881142Y59369477D01*
X46856952Y59345286D01*
X46832761Y59296905D01*
X46155428Y57809191D02*
X45986095Y58051096D01*
X45865142Y57809191D02*
X45865142Y58317191D01*
X46058666Y58317191D01*
X46107047Y58293000D01*
X46131238Y58268810D01*
X46155428Y58220429D01*
X46155428Y58147858D01*
X46131238Y58099477D01*
X46107047Y58075286D01*
X46058666Y58051096D01*
X45865142Y58051096D01*
X46348952Y58268810D02*
X46373142Y58293000D01*
X46421523Y58317191D01*
X46542476Y58317191D01*
X46590857Y58293000D01*
X46615047Y58268810D01*
X46639238Y58220429D01*
X46639238Y58172048D01*
X46615047Y58099477D01*
X46324761Y57809191D01*
X46639238Y57809191D01*
X46808571Y58317191D02*
X47147238Y58317191D01*
X46929523Y57809191D01*
X48060428Y59079191D02*
X47891095Y59321096D01*
X47770142Y59079191D02*
X47770142Y59587191D01*
X47963666Y59587191D01*
X48012047Y59563000D01*
X48036238Y59538810D01*
X48060428Y59490429D01*
X48060428Y59417858D01*
X48036238Y59369477D01*
X48012047Y59345286D01*
X47963666Y59321096D01*
X47770142Y59321096D01*
X48253952Y59538810D02*
X48278142Y59563000D01*
X48326523Y59587191D01*
X48447476Y59587191D01*
X48495857Y59563000D01*
X48520047Y59538810D01*
X48544238Y59490429D01*
X48544238Y59442048D01*
X48520047Y59369477D01*
X48229761Y59079191D01*
X48544238Y59079191D01*
X48834523Y59369477D02*
X48786142Y59393667D01*
X48761952Y59417858D01*
X48737761Y59466239D01*
X48737761Y59490429D01*
X48761952Y59538810D01*
X48786142Y59563000D01*
X48834523Y59587191D01*
X48931285Y59587191D01*
X48979666Y59563000D01*
X49003857Y59538810D01*
X49028047Y59490429D01*
X49028047Y59466239D01*
X49003857Y59417858D01*
X48979666Y59393667D01*
X48931285Y59369477D01*
X48834523Y59369477D01*
X48786142Y59345286D01*
X48761952Y59321096D01*
X48737761Y59272715D01*
X48737761Y59175953D01*
X48761952Y59127572D01*
X48786142Y59103381D01*
X48834523Y59079191D01*
X48931285Y59079191D01*
X48979666Y59103381D01*
X49003857Y59127572D01*
X49028047Y59175953D01*
X49028047Y59272715D01*
X49003857Y59321096D01*
X48979666Y59345286D01*
X48931285Y59369477D01*
X48060428Y57809191D02*
X47891095Y58051096D01*
X47770142Y57809191D02*
X47770142Y58317191D01*
X47963666Y58317191D01*
X48012047Y58293000D01*
X48036238Y58268810D01*
X48060428Y58220429D01*
X48060428Y58147858D01*
X48036238Y58099477D01*
X48012047Y58075286D01*
X47963666Y58051096D01*
X47770142Y58051096D01*
X48253952Y58268810D02*
X48278142Y58293000D01*
X48326523Y58317191D01*
X48447476Y58317191D01*
X48495857Y58293000D01*
X48520047Y58268810D01*
X48544238Y58220429D01*
X48544238Y58172048D01*
X48520047Y58099477D01*
X48229761Y57809191D01*
X48544238Y57809191D01*
X48786142Y57809191D02*
X48882904Y57809191D01*
X48931285Y57833381D01*
X48955476Y57857572D01*
X49003857Y57930143D01*
X49028047Y58026905D01*
X49028047Y58220429D01*
X49003857Y58268810D01*
X48979666Y58293000D01*
X48931285Y58317191D01*
X48834523Y58317191D01*
X48786142Y58293000D01*
X48761952Y58268810D01*
X48737761Y58220429D01*
X48737761Y58099477D01*
X48761952Y58051096D01*
X48786142Y58026905D01*
X48834523Y58002715D01*
X48931285Y58002715D01*
X48979666Y58026905D01*
X49003857Y58051096D01*
X49028047Y58099477D01*
X122276809Y57839429D02*
X122034904Y57670096D01*
X122276809Y57549143D02*
X121768809Y57549143D01*
X121768809Y57742667D01*
X121793000Y57791048D01*
X121817190Y57815239D01*
X121865571Y57839429D01*
X121938142Y57839429D01*
X121986523Y57815239D01*
X122010714Y57791048D01*
X122034904Y57742667D01*
X122034904Y57549143D01*
X121768809Y58008762D02*
X121768809Y58323239D01*
X121962333Y58153905D01*
X121962333Y58226477D01*
X121986523Y58274858D01*
X122010714Y58299048D01*
X122059095Y58323239D01*
X122180047Y58323239D01*
X122228428Y58299048D01*
X122252619Y58274858D01*
X122276809Y58226477D01*
X122276809Y58081334D01*
X122252619Y58032953D01*
X122228428Y58008762D01*
X121768809Y58637715D02*
X121768809Y58686096D01*
X121793000Y58734477D01*
X121817190Y58758667D01*
X121865571Y58782858D01*
X121962333Y58807048D01*
X122083285Y58807048D01*
X122180047Y58782858D01*
X122228428Y58758667D01*
X122252619Y58734477D01*
X122276809Y58686096D01*
X122276809Y58637715D01*
X122252619Y58589334D01*
X122228428Y58565143D01*
X122180047Y58540953D01*
X122083285Y58516762D01*
X121962333Y58516762D01*
X121865571Y58540953D01*
X121817190Y58565143D01*
X121793000Y58589334D01*
X121768809Y58637715D01*
X120625809Y57839429D02*
X120383904Y57670096D01*
X120625809Y57549143D02*
X120117809Y57549143D01*
X120117809Y57742667D01*
X120142000Y57791048D01*
X120166190Y57815239D01*
X120214571Y57839429D01*
X120287142Y57839429D01*
X120335523Y57815239D01*
X120359714Y57791048D01*
X120383904Y57742667D01*
X120383904Y57549143D01*
X120117809Y58008762D02*
X120117809Y58323239D01*
X120311333Y58153905D01*
X120311333Y58226477D01*
X120335523Y58274858D01*
X120359714Y58299048D01*
X120408095Y58323239D01*
X120529047Y58323239D01*
X120577428Y58299048D01*
X120601619Y58274858D01*
X120625809Y58226477D01*
X120625809Y58081334D01*
X120601619Y58032953D01*
X120577428Y58008762D01*
X120625809Y58807048D02*
X120625809Y58516762D01*
X120625809Y58661905D02*
X120117809Y58661905D01*
X120190380Y58613524D01*
X120238761Y58565143D01*
X120262952Y58516762D01*
X50981428Y59079191D02*
X50812095Y59321096D01*
X50691142Y59079191D02*
X50691142Y59587191D01*
X50884666Y59587191D01*
X50933047Y59563000D01*
X50957238Y59538810D01*
X50981428Y59490429D01*
X50981428Y59417858D01*
X50957238Y59369477D01*
X50933047Y59345286D01*
X50884666Y59321096D01*
X50691142Y59321096D01*
X51150761Y59587191D02*
X51465238Y59587191D01*
X51295904Y59393667D01*
X51368476Y59393667D01*
X51416857Y59369477D01*
X51441047Y59345286D01*
X51465238Y59296905D01*
X51465238Y59175953D01*
X51441047Y59127572D01*
X51416857Y59103381D01*
X51368476Y59079191D01*
X51223333Y59079191D01*
X51174952Y59103381D01*
X51150761Y59127572D01*
X51658761Y59538810D02*
X51682952Y59563000D01*
X51731333Y59587191D01*
X51852285Y59587191D01*
X51900666Y59563000D01*
X51924857Y59538810D01*
X51949047Y59490429D01*
X51949047Y59442048D01*
X51924857Y59369477D01*
X51634571Y59079191D01*
X51949047Y59079191D01*
X50981428Y57682191D02*
X50812095Y57924096D01*
X50691142Y57682191D02*
X50691142Y58190191D01*
X50884666Y58190191D01*
X50933047Y58166000D01*
X50957238Y58141810D01*
X50981428Y58093429D01*
X50981428Y58020858D01*
X50957238Y57972477D01*
X50933047Y57948286D01*
X50884666Y57924096D01*
X50691142Y57924096D01*
X51150761Y58190191D02*
X51465238Y58190191D01*
X51295904Y57996667D01*
X51368476Y57996667D01*
X51416857Y57972477D01*
X51441047Y57948286D01*
X51465238Y57899905D01*
X51465238Y57778953D01*
X51441047Y57730572D01*
X51416857Y57706381D01*
X51368476Y57682191D01*
X51223333Y57682191D01*
X51174952Y57706381D01*
X51150761Y57730572D01*
X51634571Y58190191D02*
X51949047Y58190191D01*
X51779714Y57996667D01*
X51852285Y57996667D01*
X51900666Y57972477D01*
X51924857Y57948286D01*
X51949047Y57899905D01*
X51949047Y57778953D01*
X51924857Y57730572D01*
X51900666Y57706381D01*
X51852285Y57682191D01*
X51707142Y57682191D01*
X51658761Y57706381D01*
X51634571Y57730572D01*
X76937809Y12754429D02*
X76695904Y12585096D01*
X76937809Y12464143D02*
X76429809Y12464143D01*
X76429809Y12657667D01*
X76454000Y12706048D01*
X76478190Y12730239D01*
X76526571Y12754429D01*
X76599142Y12754429D01*
X76647523Y12730239D01*
X76671714Y12706048D01*
X76695904Y12657667D01*
X76695904Y12464143D01*
X76429809Y12923762D02*
X76429809Y13238239D01*
X76623333Y13068905D01*
X76623333Y13141477D01*
X76647523Y13189858D01*
X76671714Y13214048D01*
X76720095Y13238239D01*
X76841047Y13238239D01*
X76889428Y13214048D01*
X76913619Y13189858D01*
X76937809Y13141477D01*
X76937809Y12996334D01*
X76913619Y12947953D01*
X76889428Y12923762D01*
X76599142Y13673667D02*
X76937809Y13673667D01*
X76405619Y13552715D02*
X76768476Y13431762D01*
X76768476Y13746239D01*
X54029428Y59079191D02*
X53860095Y59321096D01*
X53739142Y59079191D02*
X53739142Y59587191D01*
X53932666Y59587191D01*
X53981047Y59563000D01*
X54005238Y59538810D01*
X54029428Y59490429D01*
X54029428Y59417858D01*
X54005238Y59369477D01*
X53981047Y59345286D01*
X53932666Y59321096D01*
X53739142Y59321096D01*
X54198761Y59587191D02*
X54513238Y59587191D01*
X54343904Y59393667D01*
X54416476Y59393667D01*
X54464857Y59369477D01*
X54489047Y59345286D01*
X54513238Y59296905D01*
X54513238Y59175953D01*
X54489047Y59127572D01*
X54464857Y59103381D01*
X54416476Y59079191D01*
X54271333Y59079191D01*
X54222952Y59103381D01*
X54198761Y59127572D01*
X54972857Y59587191D02*
X54730952Y59587191D01*
X54706761Y59345286D01*
X54730952Y59369477D01*
X54779333Y59393667D01*
X54900285Y59393667D01*
X54948666Y59369477D01*
X54972857Y59345286D01*
X54997047Y59296905D01*
X54997047Y59175953D01*
X54972857Y59127572D01*
X54948666Y59103381D01*
X54900285Y59079191D01*
X54779333Y59079191D01*
X54730952Y59103381D01*
X54706761Y59127572D01*
X54029428Y57809191D02*
X53860095Y58051096D01*
X53739142Y57809191D02*
X53739142Y58317191D01*
X53932666Y58317191D01*
X53981047Y58293000D01*
X54005238Y58268810D01*
X54029428Y58220429D01*
X54029428Y58147858D01*
X54005238Y58099477D01*
X53981047Y58075286D01*
X53932666Y58051096D01*
X53739142Y58051096D01*
X54198761Y58317191D02*
X54513238Y58317191D01*
X54343904Y58123667D01*
X54416476Y58123667D01*
X54464857Y58099477D01*
X54489047Y58075286D01*
X54513238Y58026905D01*
X54513238Y57905953D01*
X54489047Y57857572D01*
X54464857Y57833381D01*
X54416476Y57809191D01*
X54271333Y57809191D01*
X54222952Y57833381D01*
X54198761Y57857572D01*
X54948666Y58317191D02*
X54851904Y58317191D01*
X54803523Y58293000D01*
X54779333Y58268810D01*
X54730952Y58196239D01*
X54706761Y58099477D01*
X54706761Y57905953D01*
X54730952Y57857572D01*
X54755142Y57833381D01*
X54803523Y57809191D01*
X54900285Y57809191D01*
X54948666Y57833381D01*
X54972857Y57857572D01*
X54997047Y57905953D01*
X54997047Y58026905D01*
X54972857Y58075286D01*
X54948666Y58099477D01*
X54900285Y58123667D01*
X54803523Y58123667D01*
X54755142Y58099477D01*
X54730952Y58075286D01*
X54706761Y58026905D01*
X31677428Y20217191D02*
X31508095Y20459096D01*
X31387142Y20217191D02*
X31387142Y20725191D01*
X31580666Y20725191D01*
X31629047Y20701000D01*
X31653238Y20676810D01*
X31677428Y20628429D01*
X31677428Y20555858D01*
X31653238Y20507477D01*
X31629047Y20483286D01*
X31580666Y20459096D01*
X31387142Y20459096D01*
X31846761Y20725191D02*
X32161238Y20725191D01*
X31991904Y20531667D01*
X32064476Y20531667D01*
X32112857Y20507477D01*
X32137047Y20483286D01*
X32161238Y20434905D01*
X32161238Y20313953D01*
X32137047Y20265572D01*
X32112857Y20241381D01*
X32064476Y20217191D01*
X31919333Y20217191D01*
X31870952Y20241381D01*
X31846761Y20265572D01*
X32330571Y20725191D02*
X32669238Y20725191D01*
X32451523Y20217191D01*
X38329809Y20501429D02*
X38087904Y20332096D01*
X38329809Y20211143D02*
X37821809Y20211143D01*
X37821809Y20404667D01*
X37846000Y20453048D01*
X37870190Y20477239D01*
X37918571Y20501429D01*
X37991142Y20501429D01*
X38039523Y20477239D01*
X38063714Y20453048D01*
X38087904Y20404667D01*
X38087904Y20211143D01*
X37821809Y20670762D02*
X37821809Y20985239D01*
X38015333Y20815905D01*
X38015333Y20888477D01*
X38039523Y20936858D01*
X38063714Y20961048D01*
X38112095Y20985239D01*
X38233047Y20985239D01*
X38281428Y20961048D01*
X38305619Y20936858D01*
X38329809Y20888477D01*
X38329809Y20743334D01*
X38305619Y20694953D01*
X38281428Y20670762D01*
X38039523Y21275524D02*
X38015333Y21227143D01*
X37991142Y21202953D01*
X37942761Y21178762D01*
X37918571Y21178762D01*
X37870190Y21202953D01*
X37846000Y21227143D01*
X37821809Y21275524D01*
X37821809Y21372286D01*
X37846000Y21420667D01*
X37870190Y21444858D01*
X37918571Y21469048D01*
X37942761Y21469048D01*
X37991142Y21444858D01*
X38015333Y21420667D01*
X38039523Y21372286D01*
X38039523Y21275524D01*
X38063714Y21227143D01*
X38087904Y21202953D01*
X38136285Y21178762D01*
X38233047Y21178762D01*
X38281428Y21202953D01*
X38305619Y21227143D01*
X38329809Y21275524D01*
X38329809Y21372286D01*
X38305619Y21420667D01*
X38281428Y21444858D01*
X38233047Y21469048D01*
X38136285Y21469048D01*
X38087904Y21444858D01*
X38063714Y21420667D01*
X38039523Y21372286D01*
X42139809Y11103429D02*
X41897904Y10934096D01*
X42139809Y10813143D02*
X41631809Y10813143D01*
X41631809Y11006667D01*
X41656000Y11055048D01*
X41680190Y11079239D01*
X41728571Y11103429D01*
X41801142Y11103429D01*
X41849523Y11079239D01*
X41873714Y11055048D01*
X41897904Y11006667D01*
X41897904Y10813143D01*
X41631809Y11272762D02*
X41631809Y11587239D01*
X41825333Y11417905D01*
X41825333Y11490477D01*
X41849523Y11538858D01*
X41873714Y11563048D01*
X41922095Y11587239D01*
X42043047Y11587239D01*
X42091428Y11563048D01*
X42115619Y11538858D01*
X42139809Y11490477D01*
X42139809Y11345334D01*
X42115619Y11296953D01*
X42091428Y11272762D01*
X42139809Y11829143D02*
X42139809Y11925905D01*
X42115619Y11974286D01*
X42091428Y11998477D01*
X42018857Y12046858D01*
X41922095Y12071048D01*
X41728571Y12071048D01*
X41680190Y12046858D01*
X41656000Y12022667D01*
X41631809Y11974286D01*
X41631809Y11877524D01*
X41656000Y11829143D01*
X41680190Y11804953D01*
X41728571Y11780762D01*
X41849523Y11780762D01*
X41897904Y11804953D01*
X41922095Y11829143D01*
X41946285Y11877524D01*
X41946285Y11974286D01*
X41922095Y12022667D01*
X41897904Y12046858D01*
X41849523Y12071048D01*
D15*
X81915095Y5500620D02*
X81915095Y4691096D01*
X81962714Y4595858D01*
X82010333Y4548239D01*
X82105571Y4500620D01*
X82296047Y4500620D01*
X82391285Y4548239D01*
X82438904Y4595858D01*
X82486523Y4691096D01*
X82486523Y5500620D01*
X83486523Y4500620D02*
X82915095Y4500620D01*
X83200809Y4500620D02*
X83200809Y5500620D01*
X83105571Y5357762D01*
X83010333Y5262524D01*
X82915095Y5214905D01*
X43815095Y22645620D02*
X43815095Y21836096D01*
X43862714Y21740858D01*
X43910333Y21693239D01*
X44005571Y21645620D01*
X44196047Y21645620D01*
X44291285Y21693239D01*
X44338904Y21740858D01*
X44386523Y21836096D01*
X44386523Y22645620D01*
X44815095Y22550381D02*
X44862714Y22598000D01*
X44957952Y22645620D01*
X45196047Y22645620D01*
X45291285Y22598000D01*
X45338904Y22550381D01*
X45386523Y22455143D01*
X45386523Y22359905D01*
X45338904Y22217048D01*
X44767476Y21645620D01*
X45386523Y21645620D01*
X104648095Y65444620D02*
X104648095Y64635096D01*
X104695714Y64539858D01*
X104743333Y64492239D01*
X104838571Y64444620D01*
X105029047Y64444620D01*
X105124285Y64492239D01*
X105171904Y64539858D01*
X105219523Y64635096D01*
X105219523Y65444620D01*
X105600476Y65444620D02*
X106219523Y65444620D01*
X105886190Y65063667D01*
X106029047Y65063667D01*
X106124285Y65016048D01*
X106171904Y64968429D01*
X106219523Y64873191D01*
X106219523Y64635096D01*
X106171904Y64539858D01*
X106124285Y64492239D01*
X106029047Y64444620D01*
X105743333Y64444620D01*
X105648095Y64492239D01*
X105600476Y64539858D01*
X118959380Y64897096D02*
X119768904Y64897096D01*
X119864142Y64944715D01*
X119911761Y64992334D01*
X119959380Y65087572D01*
X119959380Y65278048D01*
X119911761Y65373286D01*
X119864142Y65420905D01*
X119768904Y65468524D01*
X118959380Y65468524D01*
X119292714Y66373286D02*
X119959380Y66373286D01*
X118911761Y66135191D02*
X119626047Y65897096D01*
X119626047Y66516143D01*
X126111095Y65444620D02*
X126111095Y64635096D01*
X126158714Y64539858D01*
X126206333Y64492239D01*
X126301571Y64444620D01*
X126492047Y64444620D01*
X126587285Y64492239D01*
X126634904Y64539858D01*
X126682523Y64635096D01*
X126682523Y65444620D01*
X127634904Y65444620D02*
X127158714Y65444620D01*
X127111095Y64968429D01*
X127158714Y65016048D01*
X127253952Y65063667D01*
X127492047Y65063667D01*
X127587285Y65016048D01*
X127634904Y64968429D01*
X127682523Y64873191D01*
X127682523Y64635096D01*
X127634904Y64539858D01*
X127587285Y64492239D01*
X127492047Y64444620D01*
X127253952Y64444620D01*
X127158714Y64492239D01*
X127111095Y64539858D01*
X25527095Y15533620D02*
X25527095Y14724096D01*
X25574714Y14628858D01*
X25622333Y14581239D01*
X25717571Y14533620D01*
X25908047Y14533620D01*
X26003285Y14581239D01*
X26050904Y14628858D01*
X26098523Y14724096D01*
X26098523Y15533620D01*
X27003285Y15533620D02*
X26812809Y15533620D01*
X26717571Y15486000D01*
X26669952Y15438381D01*
X26574714Y15295524D01*
X26527095Y15105048D01*
X26527095Y14724096D01*
X26574714Y14628858D01*
X26622333Y14581239D01*
X26717571Y14533620D01*
X26908047Y14533620D01*
X27003285Y14581239D01*
X27050904Y14628858D01*
X27098523Y14724096D01*
X27098523Y14962191D01*
X27050904Y15057429D01*
X27003285Y15105048D01*
X26908047Y15152667D01*
X26717571Y15152667D01*
X26622333Y15105048D01*
X26574714Y15057429D01*
X26527095Y14962191D01*
X48006095Y12104620D02*
X48006095Y11295096D01*
X48053714Y11199858D01*
X48101333Y11152239D01*
X48196571Y11104620D01*
X48387047Y11104620D01*
X48482285Y11152239D01*
X48529904Y11199858D01*
X48577523Y11295096D01*
X48577523Y12104620D01*
X48958476Y12104620D02*
X49625142Y12104620D01*
X49196571Y11104620D01*
X4532380Y55038667D02*
X5246666Y55038667D01*
X5389523Y54991048D01*
X5484761Y54895810D01*
X5532380Y54752953D01*
X5532380Y54657715D01*
X4627619Y55467239D02*
X4580000Y55514858D01*
X4532380Y55610096D01*
X4532380Y55848191D01*
X4580000Y55943429D01*
X4627619Y55991048D01*
X4722857Y56038667D01*
X4818095Y56038667D01*
X4960952Y55991048D01*
X5532380Y55419620D01*
X5532380Y56038667D01*
D11*
X139754428Y79447572D02*
X139730238Y79423381D01*
X139657666Y79399191D01*
X139609285Y79399191D01*
X139536714Y79423381D01*
X139488333Y79471762D01*
X139464142Y79520143D01*
X139439952Y79616905D01*
X139439952Y79689477D01*
X139464142Y79786239D01*
X139488333Y79834620D01*
X139536714Y79883000D01*
X139609285Y79907191D01*
X139657666Y79907191D01*
X139730238Y79883000D01*
X139754428Y79858810D01*
X139923761Y79907191D02*
X140238238Y79907191D01*
X140068904Y79713667D01*
X140141476Y79713667D01*
X140189857Y79689477D01*
X140214047Y79665286D01*
X140238238Y79616905D01*
X140238238Y79495953D01*
X140214047Y79447572D01*
X140189857Y79423381D01*
X140141476Y79399191D01*
X139996333Y79399191D01*
X139947952Y79423381D01*
X139923761Y79447572D01*
X140431761Y79858810D02*
X140455952Y79883000D01*
X140504333Y79907191D01*
X140625285Y79907191D01*
X140673666Y79883000D01*
X140697857Y79858810D01*
X140722047Y79810429D01*
X140722047Y79762048D01*
X140697857Y79689477D01*
X140407571Y79399191D01*
X140722047Y79399191D01*
X137087428Y71047429D02*
X137111619Y71023239D01*
X137135809Y70950667D01*
X137135809Y70902286D01*
X137111619Y70829715D01*
X137063238Y70781334D01*
X137014857Y70757143D01*
X136918095Y70732953D01*
X136845523Y70732953D01*
X136748761Y70757143D01*
X136700380Y70781334D01*
X136652000Y70829715D01*
X136627809Y70902286D01*
X136627809Y70950667D01*
X136652000Y71023239D01*
X136676190Y71047429D01*
X136627809Y71216762D02*
X136627809Y71531239D01*
X136821333Y71361905D01*
X136821333Y71434477D01*
X136845523Y71482858D01*
X136869714Y71507048D01*
X136918095Y71531239D01*
X137039047Y71531239D01*
X137087428Y71507048D01*
X137111619Y71482858D01*
X137135809Y71434477D01*
X137135809Y71289334D01*
X137111619Y71240953D01*
X137087428Y71216762D01*
X136627809Y71700572D02*
X136627809Y72015048D01*
X136821333Y71845715D01*
X136821333Y71918286D01*
X136845523Y71966667D01*
X136869714Y71990858D01*
X136918095Y72015048D01*
X137039047Y72015048D01*
X137087428Y71990858D01*
X137111619Y71966667D01*
X137135809Y71918286D01*
X137135809Y71773143D01*
X137111619Y71724762D01*
X137087428Y71700572D01*
X137087428Y54918429D02*
X137111619Y54894239D01*
X137135809Y54821667D01*
X137135809Y54773286D01*
X137111619Y54700715D01*
X137063238Y54652334D01*
X137014857Y54628143D01*
X136918095Y54603953D01*
X136845523Y54603953D01*
X136748761Y54628143D01*
X136700380Y54652334D01*
X136652000Y54700715D01*
X136627809Y54773286D01*
X136627809Y54821667D01*
X136652000Y54894239D01*
X136676190Y54918429D01*
X136627809Y55087762D02*
X136627809Y55402239D01*
X136821333Y55232905D01*
X136821333Y55305477D01*
X136845523Y55353858D01*
X136869714Y55378048D01*
X136918095Y55402239D01*
X137039047Y55402239D01*
X137087428Y55378048D01*
X137111619Y55353858D01*
X137135809Y55305477D01*
X137135809Y55160334D01*
X137111619Y55111953D01*
X137087428Y55087762D01*
X136797142Y55837667D02*
X137135809Y55837667D01*
X136603619Y55716715D02*
X136966476Y55595762D01*
X136966476Y55910239D01*
X137087428Y38662429D02*
X137111619Y38638239D01*
X137135809Y38565667D01*
X137135809Y38517286D01*
X137111619Y38444715D01*
X137063238Y38396334D01*
X137014857Y38372143D01*
X136918095Y38347953D01*
X136845523Y38347953D01*
X136748761Y38372143D01*
X136700380Y38396334D01*
X136652000Y38444715D01*
X136627809Y38517286D01*
X136627809Y38565667D01*
X136652000Y38638239D01*
X136676190Y38662429D01*
X136627809Y38831762D02*
X136627809Y39146239D01*
X136821333Y38976905D01*
X136821333Y39049477D01*
X136845523Y39097858D01*
X136869714Y39122048D01*
X136918095Y39146239D01*
X137039047Y39146239D01*
X137087428Y39122048D01*
X137111619Y39097858D01*
X137135809Y39049477D01*
X137135809Y38904334D01*
X137111619Y38855953D01*
X137087428Y38831762D01*
X136627809Y39605858D02*
X136627809Y39363953D01*
X136869714Y39339762D01*
X136845523Y39363953D01*
X136821333Y39412334D01*
X136821333Y39533286D01*
X136845523Y39581667D01*
X136869714Y39605858D01*
X136918095Y39630048D01*
X137039047Y39630048D01*
X137087428Y39605858D01*
X137111619Y39581667D01*
X137135809Y39533286D01*
X137135809Y39412334D01*
X137111619Y39363953D01*
X137087428Y39339762D01*
X137087428Y22533429D02*
X137111619Y22509239D01*
X137135809Y22436667D01*
X137135809Y22388286D01*
X137111619Y22315715D01*
X137063238Y22267334D01*
X137014857Y22243143D01*
X136918095Y22218953D01*
X136845523Y22218953D01*
X136748761Y22243143D01*
X136700380Y22267334D01*
X136652000Y22315715D01*
X136627809Y22388286D01*
X136627809Y22436667D01*
X136652000Y22509239D01*
X136676190Y22533429D01*
X136627809Y22702762D02*
X136627809Y23017239D01*
X136821333Y22847905D01*
X136821333Y22920477D01*
X136845523Y22968858D01*
X136869714Y22993048D01*
X136918095Y23017239D01*
X137039047Y23017239D01*
X137087428Y22993048D01*
X137111619Y22968858D01*
X137135809Y22920477D01*
X137135809Y22775334D01*
X137111619Y22726953D01*
X137087428Y22702762D01*
X136627809Y23452667D02*
X136627809Y23355905D01*
X136652000Y23307524D01*
X136676190Y23283334D01*
X136748761Y23234953D01*
X136845523Y23210762D01*
X137039047Y23210762D01*
X137087428Y23234953D01*
X137111619Y23259143D01*
X137135809Y23307524D01*
X137135809Y23404286D01*
X137111619Y23452667D01*
X137087428Y23476858D01*
X137039047Y23501048D01*
X136918095Y23501048D01*
X136869714Y23476858D01*
X136845523Y23452667D01*
X136821333Y23404286D01*
X136821333Y23307524D01*
X136845523Y23259143D01*
X136869714Y23234953D01*
X136918095Y23210762D01*
M02*
