M48
;DRILL file {KiCad (2016-07-28 BZR 6996, Git e15ad93)-product} date Mon Aug  8 00:12:20 2016
;FORMAT={-:-/ absolute / inch / decimal}
FMAT,2
INCH,TZ
T1C0.010
T2C0.032
T3C0.032
T4C0.039
T5C0.043
T6C0.043
T7C0.048
T8C0.055
T9C0.177
T10C0.100
T11C0.122
T12C0.134
%
G90
G05
M72
T1
X0.135Y2.08
X0.135Y2.035
X0.14Y2.75
X0.14Y2.7
X0.305Y2.435
X0.305Y2.335
X0.35Y2.435
X0.385Y2.65
X0.59Y1.17
X0.65Y1.24
X1.025Y2.135
X1.065Y0.83
X1.085Y2.185
X1.09Y0.52
X1.1Y0.755
X1.11Y0.66
X1.155Y2.185
X1.19Y1.295
X1.205Y0.81
X1.26Y2.27
X1.26Y2.14
X1.33Y0.54
X1.34Y2.36
X1.37Y0.54
X1.395Y0.795
X1.4Y0.65
X1.41Y2.285
X1.41Y2.15
X1.44Y0.43
X1.45Y2.4
X1.48Y0.675
X1.49Y2.36
X1.51Y2.285
X1.515Y2.15
X1.575Y2.66
X1.645Y0.79
X1.66Y2.27
X1.66Y2.14
X1.71Y1.43
X1.74Y0.545
X1.745Y1.455
X1.77Y1.48
X1.775Y0.83
X1.795Y1.505
X1.8Y2.635
X1.815Y0.415
X1.8195Y2.1457
X1.82Y1.535
X1.845Y1.56
X1.87Y1.59
X1.875Y0.725
X1.89Y2.75
X1.895Y1.615
X1.92Y1.64
X1.93Y0.695
X1.9345Y2.1457
X1.95Y1.67
X2.0495Y2.1417
X2.17Y2.145
X2.225Y1.82
X2.255Y2.365
X2.255Y1.77
X2.73Y1.74
X2.755Y1.705
X2.755Y1.67
X2.755Y1.635
X2.755Y1.6
X2.76Y1.56
X2.76Y1.525
X2.785Y1.76
X2.905Y1.67
X2.96Y1.72
X2.985Y1.765
X3.01Y0.27
X3.085Y1.74
X3.29Y0.535
X3.4Y0.225
X3.485Y0.685
X3.49Y0.535
X3.52Y0.225
X3.7Y0.2
X3.76Y0.32
X3.785Y2.205
X3.82Y2.165
X3.905Y2.325
X3.94Y2.285
X3.94Y0.32
X4.Y0.2
X4.01Y1.69
X4.065Y3.385
X4.065Y3.12
X4.13Y3.34
X4.135Y2.96
X4.185Y2.43
X4.205Y1.69
X4.225Y2.67
X4.375Y2.665
X4.415Y2.43
X4.435Y2.74
X4.44Y2.895
X4.455Y2.43
X4.495Y2.665
X4.555Y2.895
X4.555Y2.205
X4.58Y2.77
X4.645Y2.665
X4.655Y2.33
X4.675Y2.43
X4.71Y0.98
X4.72Y2.77
X4.73Y2.98
X4.73Y2.925
X4.735Y2.43
X4.775Y2.665
X4.845Y2.785
X4.895Y3.28
X4.925Y2.665
X4.935Y3.1
X4.975Y2.395
X5.46Y3.17
T2
X1.07Y1.03
X1.19Y1.13
X1.335Y2.41
X1.525Y1.0275
X1.715Y2.48
X1.775Y2.37
X2.24Y2.195
X3.6675Y0.9075
X5.135Y2.565
T3
X0.805Y2.0325
X0.805Y1.8825
X0.855Y1.9575
X0.855Y1.8075
X0.905Y2.0325
X0.905Y1.8825
X0.955Y1.9575
X0.955Y1.8075
X1.005Y2.0325
X1.005Y1.8825
X1.055Y1.9575
X1.055Y1.8075
X1.305Y2.0325
X1.305Y1.8825
X1.355Y1.9575
X1.355Y1.8075
X1.405Y2.0325
X1.405Y1.8825
X1.455Y1.9575
X1.455Y1.8075
X1.505Y2.0325
X1.505Y1.8825
X1.555Y1.9575
X1.555Y1.8075
X1.605Y2.0325
X1.605Y1.8825
X1.655Y1.9575
X1.655Y1.8075
X1.705Y2.0325
X1.705Y1.8825
X1.755Y1.9575
X1.755Y1.8075
X1.805Y2.0325
X1.805Y1.8825
X1.855Y1.9575
X1.855Y1.8075
X1.905Y2.0325
X1.905Y1.8825
X1.955Y1.9575
X1.955Y1.8075
X2.005Y2.0325
X2.005Y1.8825
X2.055Y1.9575
X2.055Y1.8075
X2.305Y2.0325
X2.305Y1.8825
X2.355Y1.9575
X2.355Y1.8075
X2.405Y2.0325
X2.405Y1.8825
X2.455Y1.9575
X2.455Y1.8075
X2.505Y2.0325
X2.505Y1.8825
X2.555Y1.9575
X2.555Y1.8075
X2.605Y2.0325
X2.605Y1.8825
X2.655Y1.9575
X2.655Y1.8075
X2.705Y2.0325
X2.705Y1.8825
X2.755Y1.9575
X2.755Y1.8075
X2.805Y2.0325
X2.805Y1.8825
X2.855Y1.9575
X2.855Y1.8075
X2.905Y2.0325
X2.905Y1.8825
X2.955Y1.9575
X2.955Y1.8075
X3.005Y2.0325
X3.005Y1.8825
X3.055Y1.9575
X3.055Y1.8075
X3.105Y2.0325
X3.105Y1.8825
X3.155Y1.9575
X3.155Y1.8075
X3.205Y2.0325
X3.205Y1.8825
X3.255Y1.9575
X3.255Y1.8075
X3.305Y2.0325
X3.305Y1.8825
X3.355Y1.9575
X3.355Y1.8075
X3.405Y2.0325
X3.405Y1.8825
X3.455Y1.9575
X3.455Y1.8075
X3.505Y2.0325
X3.505Y1.8825
X3.555Y1.9575
X3.555Y1.8075
X3.605Y2.0325
X3.605Y1.8825
X3.655Y1.9575
X3.655Y1.8075
T4
X0.64Y1.0106
X0.64Y0.42
T5
X0.5Y1.21
X0.5Y1.11
X0.5Y1.01
X5.2Y3.14
X5.3Y3.14
X5.5Y2.96
X5.5Y2.86
X5.5Y2.76
X5.5Y2.325
X5.5Y2.225
X5.5Y2.125
X5.5Y1.69
X5.5Y1.59
X5.5Y1.49
X5.5Y1.055
X5.5Y0.955
X5.5Y0.855
T6
X4.26Y3.28
X4.26Y3.1619
X4.3781Y3.28
X4.3781Y3.1619
X4.4962Y3.28
X4.4962Y3.1619
X4.6143Y3.28
X4.6143Y3.1619
X4.7324Y3.28
X4.7324Y3.1619
T7
X0.93Y0.26
X0.93Y0.16
X1.03Y0.26
X1.03Y0.16
X1.13Y0.26
X1.13Y0.16
X1.23Y0.26
X1.23Y0.16
X1.33Y0.26
X1.33Y0.16
X1.43Y0.26
X1.43Y0.16
X1.53Y0.26
X1.53Y0.16
X1.63Y0.26
X1.63Y0.16
X1.73Y0.26
X1.73Y0.16
X1.83Y0.26
X1.83Y0.16
X1.93Y0.26
X1.93Y0.16
X2.03Y0.26
X2.03Y0.16
X2.13Y0.26
X2.13Y0.16
T8
X2.72Y0.5441
X2.72Y0.3079
X2.905Y0.426
T9
X0.15Y3.49
X0.15Y0.15
X3.Y1.
X5.85Y3.49
X5.85Y0.15
T10
X0.68Y1.92
X3.78Y1.92
T11
X4.3427Y3.4501
X4.6458Y3.4501
T12
X0.1598Y1.31
X0.1598Y0.91
X5.1Y3.4802
X5.4Y3.4802
X5.8402Y3.06
X5.8402Y2.66
X5.8402Y2.425
X5.8402Y2.025
X5.8402Y1.79
X5.8402Y1.39
X5.8402Y1.155
X5.8402Y0.755
T0
M30
