G04 #@! TF.FileFunction,Soldermask,Bot*
%FSLAX46Y46*%
G04 Gerber Fmt 4.6, Leading zero omitted, Abs format (unit mm)*
G04 Created by KiCad (PCBNEW (2016-07-28 BZR 6996, Git e15ad93)-product) date Mon Aug  8 00:28:43 2016*
%MOMM*%
%LPD*%
G01*
G04 APERTURE LIST*
%ADD10C,0.100000*%
%ADD11R,1.300000X0.700000*%
%ADD12R,0.800000X0.750000*%
%ADD13C,2.540000*%
%ADD14C,1.270000*%
%ADD15C,1.778000*%
%ADD16R,1.778000X1.778000*%
%ADD17C,3.400000*%
%ADD18C,2.500000*%
%ADD19C,1.500000*%
%ADD20C,3.100000*%
%ADD21R,1.905000X1.905000*%
%ADD22O,1.905000X1.905000*%
%ADD23C,1.998980*%
%ADD24C,1.501140*%
%ADD25R,0.750000X0.800000*%
G04 APERTURE END LIST*
D10*
D11*
X114204000Y73562000D03*
X114204000Y75462000D03*
D12*
X114185000Y72644000D03*
X115685000Y72644000D03*
X118630000Y73406000D03*
X120130000Y73406000D03*
D13*
X17272000Y48768000D03*
X96012000Y48768000D03*
D14*
X20447000Y47815500D03*
X21717000Y45910500D03*
X22987000Y47815500D03*
X24257000Y45910500D03*
X25527000Y47815500D03*
X26797000Y45910500D03*
X33147000Y47815500D03*
X34417000Y45910500D03*
X35687000Y47815500D03*
X36957000Y45910500D03*
X38227000Y47815500D03*
X39497000Y45910500D03*
X40767000Y47815500D03*
X42037000Y45910500D03*
X43307000Y47815500D03*
X44577000Y45910500D03*
X45847000Y47815500D03*
X47117000Y45910500D03*
X48387000Y47815500D03*
X49657000Y45910500D03*
X50927000Y47815500D03*
X52197000Y45910500D03*
X58547000Y47815500D03*
X59817000Y45910500D03*
X61087000Y47815500D03*
X62357000Y45910500D03*
X63627000Y47815500D03*
X64897000Y45910500D03*
X66167000Y47815500D03*
X67437000Y45910500D03*
X68707000Y47815500D03*
X69977000Y45910500D03*
X71247000Y47815500D03*
X72517000Y45910500D03*
X73787000Y47815500D03*
X75057000Y45910500D03*
X76327000Y47815500D03*
X77597000Y45910500D03*
X78867000Y47815500D03*
X80137000Y45910500D03*
X81407000Y47815500D03*
X82677000Y45910500D03*
X83947000Y47815500D03*
X85217000Y45910500D03*
X86487000Y47815500D03*
X87757000Y45910500D03*
X89027000Y47815500D03*
X90297000Y45910500D03*
X91567000Y47815500D03*
X92837000Y45910500D03*
X20447000Y51625500D03*
X21717000Y49720500D03*
X22987000Y51625500D03*
X24257000Y49720500D03*
X25527000Y51625500D03*
X26797000Y49720500D03*
X33147000Y51625500D03*
X34417000Y49720500D03*
X35687000Y51625500D03*
X36957000Y49720500D03*
X38227000Y51625500D03*
X39497000Y49720500D03*
X40767000Y51625500D03*
X42037000Y49720500D03*
X43307000Y51625500D03*
X44577000Y49720500D03*
X45847000Y51625500D03*
X47117000Y49720500D03*
X48387000Y51625500D03*
X49657000Y49720500D03*
X50927000Y51625500D03*
X52197000Y49720500D03*
X58547000Y51625500D03*
X59817000Y49720500D03*
X61087000Y51625500D03*
X62357000Y49720500D03*
X63627000Y51625500D03*
X64897000Y49720500D03*
X66167000Y51625500D03*
X67437000Y49720500D03*
X68707000Y51625500D03*
X69977000Y49720500D03*
X71247000Y51625500D03*
X72517000Y49720500D03*
X73787000Y51625500D03*
X75057000Y49720500D03*
X76327000Y51625500D03*
X77597000Y49720500D03*
X78867000Y51625500D03*
X80137000Y49720500D03*
X81407000Y51625500D03*
X82677000Y49720500D03*
X83947000Y51625500D03*
X85217000Y49720500D03*
X86487000Y51625500D03*
X87757000Y49720500D03*
X89027000Y51625500D03*
X90297000Y49720500D03*
X91567000Y51625500D03*
X92837000Y49720500D03*
D15*
X12700000Y30734000D03*
X12700000Y28194000D03*
D16*
X12700000Y25654000D03*
D17*
X4060000Y23114000D03*
X4060000Y33274000D03*
D18*
X69088000Y13820140D03*
X69088000Y7820660D03*
X73787000Y10820400D03*
D19*
X108204000Y83312000D03*
X108204000Y80312000D03*
D20*
X110304000Y87632000D03*
D19*
X111204000Y80312000D03*
X111204000Y83312000D03*
X114204000Y83312000D03*
X114204000Y80312000D03*
X117204000Y80312000D03*
X117204000Y83312000D03*
X120204000Y80312000D03*
X120204000Y83312000D03*
D20*
X118004000Y87632000D03*
D15*
X134620000Y79756000D03*
D16*
X132080000Y79756000D03*
D17*
X129540000Y88396000D03*
X137160000Y88396000D03*
D15*
X139700000Y70104000D03*
X139700000Y72644000D03*
D16*
X139700000Y75184000D03*
D17*
X148340000Y77724000D03*
X148340000Y67564000D03*
D15*
X139700000Y53975000D03*
X139700000Y56515000D03*
D16*
X139700000Y59055000D03*
D17*
X148340000Y61595000D03*
X148340000Y51435000D03*
D15*
X139700000Y37846000D03*
X139700000Y40386000D03*
D16*
X139700000Y42926000D03*
D17*
X148340000Y45466000D03*
X148340000Y35306000D03*
D15*
X139700000Y21717000D03*
X139700000Y24257000D03*
D16*
X139700000Y26797000D03*
D17*
X148340000Y29337000D03*
X148340000Y19177000D03*
D21*
X23622000Y4064000D03*
D22*
X23622000Y6604000D03*
X26162000Y4064000D03*
X26162000Y6604000D03*
X28702000Y4064000D03*
X28702000Y6604000D03*
X31242000Y4064000D03*
X31242000Y6604000D03*
X33782000Y4064000D03*
X33782000Y6604000D03*
X36322000Y4064000D03*
X36322000Y6604000D03*
X38862000Y4064000D03*
X38862000Y6604000D03*
X41402000Y4064000D03*
X41402000Y6604000D03*
X43942000Y4064000D03*
X43942000Y6604000D03*
X46482000Y4064000D03*
X46482000Y6604000D03*
X49022000Y4064000D03*
X49022000Y6604000D03*
X51562000Y4064000D03*
X51562000Y6604000D03*
X54102000Y4064000D03*
X54102000Y6604000D03*
D23*
X16256000Y10668000D03*
X16256000Y25668000D03*
D11*
X117204000Y76762000D03*
X117204000Y78662000D03*
X117204000Y73562000D03*
X117204000Y75462000D03*
X114204000Y76762000D03*
X114204000Y78662000D03*
X111204000Y76762000D03*
X111204000Y78662000D03*
X111204000Y73562000D03*
X111204000Y75462000D03*
X108204000Y76762000D03*
X108204000Y78662000D03*
X108204000Y73562000D03*
X108204000Y75462000D03*
D24*
X38735000Y26098500D03*
X130429000Y65151000D03*
X93154500Y23050500D03*
X43561000Y62992000D03*
X56896000Y55753000D03*
X33909000Y61214000D03*
X45085000Y60198000D03*
X27178000Y26162000D03*
X30226000Y28702000D03*
D12*
X111264000Y72644000D03*
X112764000Y72644000D03*
D25*
X105918000Y73672000D03*
X105918000Y75172000D03*
M02*
