G04 #@! TF.FileFunction,Legend,Bot*
%FSLAX46Y46*%
G04 Gerber Fmt 4.6, Leading zero omitted, Abs format (unit mm)*
G04 Created by KiCad (PCBNEW (2016-07-28 BZR 6996, Git e15ad93)-product) date Mon Aug  8 00:28:43 2016*
%MOMM*%
%LPD*%
G01*
G04 APERTURE LIST*
%ADD10C,0.100000*%
%ADD11C,0.150000*%
%ADD12C,0.076200*%
G04 APERTURE END LIST*
D10*
D11*
X113329000Y75112000D02*
X113329000Y73912000D01*
X115079000Y73912000D02*
X115079000Y75112000D01*
X114585000Y72044000D02*
X115285000Y72044000D01*
X115285000Y73244000D02*
X114585000Y73244000D01*
X119030000Y72806000D02*
X119730000Y72806000D01*
X119730000Y74006000D02*
X119030000Y74006000D01*
X116329000Y78312000D02*
X116329000Y77112000D01*
X118079000Y77112000D02*
X118079000Y78312000D01*
X116329000Y75112000D02*
X116329000Y73912000D01*
X118079000Y73912000D02*
X118079000Y75112000D01*
X113329000Y78312000D02*
X113329000Y77112000D01*
X115079000Y77112000D02*
X115079000Y78312000D01*
X110329000Y78312000D02*
X110329000Y77112000D01*
X112079000Y77112000D02*
X112079000Y78312000D01*
X110329000Y75112000D02*
X110329000Y73912000D01*
X112079000Y73912000D02*
X112079000Y75112000D01*
X107329000Y78312000D02*
X107329000Y77112000D01*
X109079000Y77112000D02*
X109079000Y78312000D01*
X107329000Y75112000D02*
X107329000Y73912000D01*
X109079000Y73912000D02*
X109079000Y75112000D01*
X111664000Y72044000D02*
X112364000Y72044000D01*
X112364000Y73244000D02*
X111664000Y73244000D01*
X106518000Y74072000D02*
X106518000Y74772000D01*
X105318000Y74772000D02*
X105318000Y74072000D01*
D12*
X115799809Y75002572D02*
X115557904Y75171905D01*
X115799809Y75292858D02*
X115291809Y75292858D01*
X115291809Y75099334D01*
X115316000Y75050953D01*
X115340190Y75026762D01*
X115388571Y75002572D01*
X115461142Y75002572D01*
X115509523Y75026762D01*
X115533714Y75050953D01*
X115557904Y75099334D01*
X115557904Y75292858D01*
X115799809Y74518762D02*
X115799809Y74809048D01*
X115799809Y74663905D02*
X115291809Y74663905D01*
X115364380Y74712286D01*
X115412761Y74760667D01*
X115436952Y74809048D01*
X115340190Y74325239D02*
X115316000Y74301048D01*
X115291809Y74252667D01*
X115291809Y74131715D01*
X115316000Y74083334D01*
X115340190Y74059143D01*
X115388571Y74034953D01*
X115436952Y74034953D01*
X115509523Y74059143D01*
X115799809Y74349429D01*
X115799809Y74034953D01*
X115261571Y71319572D02*
X115285761Y71295381D01*
X115358333Y71271191D01*
X115406714Y71271191D01*
X115479285Y71295381D01*
X115527666Y71343762D01*
X115551857Y71392143D01*
X115576047Y71488905D01*
X115576047Y71561477D01*
X115551857Y71658239D01*
X115527666Y71706620D01*
X115479285Y71755000D01*
X115406714Y71779191D01*
X115358333Y71779191D01*
X115285761Y71755000D01*
X115261571Y71730810D01*
X115068047Y71730810D02*
X115043857Y71755000D01*
X114995476Y71779191D01*
X114874523Y71779191D01*
X114826142Y71755000D01*
X114801952Y71730810D01*
X114777761Y71682429D01*
X114777761Y71634048D01*
X114801952Y71561477D01*
X115092238Y71271191D01*
X114777761Y71271191D01*
X114535857Y71271191D02*
X114439095Y71271191D01*
X114390714Y71295381D01*
X114366523Y71319572D01*
X114318142Y71392143D01*
X114293952Y71488905D01*
X114293952Y71682429D01*
X114318142Y71730810D01*
X114342333Y71755000D01*
X114390714Y71779191D01*
X114487476Y71779191D01*
X114535857Y71755000D01*
X114560047Y71730810D01*
X114584238Y71682429D01*
X114584238Y71561477D01*
X114560047Y71513096D01*
X114535857Y71488905D01*
X114487476Y71464715D01*
X114390714Y71464715D01*
X114342333Y71488905D01*
X114318142Y71513096D01*
X114293952Y71561477D01*
X119706571Y72081572D02*
X119730761Y72057381D01*
X119803333Y72033191D01*
X119851714Y72033191D01*
X119924285Y72057381D01*
X119972666Y72105762D01*
X119996857Y72154143D01*
X120021047Y72250905D01*
X120021047Y72323477D01*
X119996857Y72420239D01*
X119972666Y72468620D01*
X119924285Y72517000D01*
X119851714Y72541191D01*
X119803333Y72541191D01*
X119730761Y72517000D01*
X119706571Y72492810D01*
X119513047Y72492810D02*
X119488857Y72517000D01*
X119440476Y72541191D01*
X119319523Y72541191D01*
X119271142Y72517000D01*
X119246952Y72492810D01*
X119222761Y72444429D01*
X119222761Y72396048D01*
X119246952Y72323477D01*
X119537238Y72033191D01*
X119222761Y72033191D01*
X118932476Y72323477D02*
X118980857Y72347667D01*
X119005047Y72371858D01*
X119029238Y72420239D01*
X119029238Y72444429D01*
X119005047Y72492810D01*
X118980857Y72517000D01*
X118932476Y72541191D01*
X118835714Y72541191D01*
X118787333Y72517000D01*
X118763142Y72492810D01*
X118738952Y72444429D01*
X118738952Y72420239D01*
X118763142Y72371858D01*
X118787333Y72347667D01*
X118835714Y72323477D01*
X118932476Y72323477D01*
X118980857Y72299286D01*
X119005047Y72275096D01*
X119029238Y72226715D01*
X119029238Y72129953D01*
X119005047Y72081572D01*
X118980857Y72057381D01*
X118932476Y72033191D01*
X118835714Y72033191D01*
X118787333Y72057381D01*
X118763142Y72081572D01*
X118738952Y72129953D01*
X118738952Y72226715D01*
X118763142Y72275096D01*
X118787333Y72299286D01*
X118835714Y72323477D01*
X118847809Y77681667D02*
X118605904Y77851000D01*
X118847809Y77971953D02*
X118339809Y77971953D01*
X118339809Y77778429D01*
X118364000Y77730048D01*
X118388190Y77705858D01*
X118436571Y77681667D01*
X118509142Y77681667D01*
X118557523Y77705858D01*
X118581714Y77730048D01*
X118605904Y77778429D01*
X118605904Y77971953D01*
X118557523Y77391381D02*
X118533333Y77439762D01*
X118509142Y77463953D01*
X118460761Y77488143D01*
X118436571Y77488143D01*
X118388190Y77463953D01*
X118364000Y77439762D01*
X118339809Y77391381D01*
X118339809Y77294620D01*
X118364000Y77246239D01*
X118388190Y77222048D01*
X118436571Y77197858D01*
X118460761Y77197858D01*
X118509142Y77222048D01*
X118533333Y77246239D01*
X118557523Y77294620D01*
X118557523Y77391381D01*
X118581714Y77439762D01*
X118605904Y77463953D01*
X118654285Y77488143D01*
X118751047Y77488143D01*
X118799428Y77463953D01*
X118823619Y77439762D01*
X118847809Y77391381D01*
X118847809Y77294620D01*
X118823619Y77246239D01*
X118799428Y77222048D01*
X118751047Y77197858D01*
X118654285Y77197858D01*
X118605904Y77222048D01*
X118581714Y77246239D01*
X118557523Y77294620D01*
X118847809Y74760667D02*
X118605904Y74930000D01*
X118847809Y75050953D02*
X118339809Y75050953D01*
X118339809Y74857429D01*
X118364000Y74809048D01*
X118388190Y74784858D01*
X118436571Y74760667D01*
X118509142Y74760667D01*
X118557523Y74784858D01*
X118581714Y74809048D01*
X118605904Y74857429D01*
X118605904Y75050953D01*
X118847809Y74518762D02*
X118847809Y74422000D01*
X118823619Y74373620D01*
X118799428Y74349429D01*
X118726857Y74301048D01*
X118630095Y74276858D01*
X118436571Y74276858D01*
X118388190Y74301048D01*
X118364000Y74325239D01*
X118339809Y74373620D01*
X118339809Y74470381D01*
X118364000Y74518762D01*
X118388190Y74542953D01*
X118436571Y74567143D01*
X118557523Y74567143D01*
X118605904Y74542953D01*
X118630095Y74518762D01*
X118654285Y74470381D01*
X118654285Y74373620D01*
X118630095Y74325239D01*
X118605904Y74301048D01*
X118557523Y74276858D01*
X115799809Y78050572D02*
X115557904Y78219905D01*
X115799809Y78340858D02*
X115291809Y78340858D01*
X115291809Y78147334D01*
X115316000Y78098953D01*
X115340190Y78074762D01*
X115388571Y78050572D01*
X115461142Y78050572D01*
X115509523Y78074762D01*
X115533714Y78098953D01*
X115557904Y78147334D01*
X115557904Y78340858D01*
X115799809Y77566762D02*
X115799809Y77857048D01*
X115799809Y77711905D02*
X115291809Y77711905D01*
X115364380Y77760286D01*
X115412761Y77808667D01*
X115436952Y77857048D01*
X115799809Y77082953D02*
X115799809Y77373239D01*
X115799809Y77228096D02*
X115291809Y77228096D01*
X115364380Y77276477D01*
X115412761Y77324858D01*
X115436952Y77373239D01*
X112751809Y78050572D02*
X112509904Y78219905D01*
X112751809Y78340858D02*
X112243809Y78340858D01*
X112243809Y78147334D01*
X112268000Y78098953D01*
X112292190Y78074762D01*
X112340571Y78050572D01*
X112413142Y78050572D01*
X112461523Y78074762D01*
X112485714Y78098953D01*
X112509904Y78147334D01*
X112509904Y78340858D01*
X112751809Y77566762D02*
X112751809Y77857048D01*
X112751809Y77711905D02*
X112243809Y77711905D01*
X112316380Y77760286D01*
X112364761Y77808667D01*
X112388952Y77857048D01*
X112243809Y77397429D02*
X112243809Y77058762D01*
X112751809Y77276477D01*
X112751809Y75002572D02*
X112509904Y75171905D01*
X112751809Y75292858D02*
X112243809Y75292858D01*
X112243809Y75099334D01*
X112268000Y75050953D01*
X112292190Y75026762D01*
X112340571Y75002572D01*
X112413142Y75002572D01*
X112461523Y75026762D01*
X112485714Y75050953D01*
X112509904Y75099334D01*
X112509904Y75292858D01*
X112751809Y74518762D02*
X112751809Y74809048D01*
X112751809Y74663905D02*
X112243809Y74663905D01*
X112316380Y74712286D01*
X112364761Y74760667D01*
X112388952Y74809048D01*
X112461523Y74228477D02*
X112437333Y74276858D01*
X112413142Y74301048D01*
X112364761Y74325239D01*
X112340571Y74325239D01*
X112292190Y74301048D01*
X112268000Y74276858D01*
X112243809Y74228477D01*
X112243809Y74131715D01*
X112268000Y74083334D01*
X112292190Y74059143D01*
X112340571Y74034953D01*
X112364761Y74034953D01*
X112413142Y74059143D01*
X112437333Y74083334D01*
X112461523Y74131715D01*
X112461523Y74228477D01*
X112485714Y74276858D01*
X112509904Y74301048D01*
X112558285Y74325239D01*
X112655047Y74325239D01*
X112703428Y74301048D01*
X112727619Y74276858D01*
X112751809Y74228477D01*
X112751809Y74131715D01*
X112727619Y74083334D01*
X112703428Y74059143D01*
X112655047Y74034953D01*
X112558285Y74034953D01*
X112509904Y74059143D01*
X112485714Y74083334D01*
X112461523Y74131715D01*
X109830809Y78050572D02*
X109588904Y78219905D01*
X109830809Y78340858D02*
X109322809Y78340858D01*
X109322809Y78147334D01*
X109347000Y78098953D01*
X109371190Y78074762D01*
X109419571Y78050572D01*
X109492142Y78050572D01*
X109540523Y78074762D01*
X109564714Y78098953D01*
X109588904Y78147334D01*
X109588904Y78340858D01*
X109371190Y77857048D02*
X109347000Y77832858D01*
X109322809Y77784477D01*
X109322809Y77663524D01*
X109347000Y77615143D01*
X109371190Y77590953D01*
X109419571Y77566762D01*
X109467952Y77566762D01*
X109540523Y77590953D01*
X109830809Y77881239D01*
X109830809Y77566762D01*
X109322809Y77252286D02*
X109322809Y77203905D01*
X109347000Y77155524D01*
X109371190Y77131334D01*
X109419571Y77107143D01*
X109516333Y77082953D01*
X109637285Y77082953D01*
X109734047Y77107143D01*
X109782428Y77131334D01*
X109806619Y77155524D01*
X109830809Y77203905D01*
X109830809Y77252286D01*
X109806619Y77300667D01*
X109782428Y77324858D01*
X109734047Y77349048D01*
X109637285Y77373239D01*
X109516333Y77373239D01*
X109419571Y77349048D01*
X109371190Y77324858D01*
X109347000Y77300667D01*
X109322809Y77252286D01*
X109830809Y74748572D02*
X109588904Y74917905D01*
X109830809Y75038858D02*
X109322809Y75038858D01*
X109322809Y74845334D01*
X109347000Y74796953D01*
X109371190Y74772762D01*
X109419571Y74748572D01*
X109492142Y74748572D01*
X109540523Y74772762D01*
X109564714Y74796953D01*
X109588904Y74845334D01*
X109588904Y75038858D01*
X109371190Y74555048D02*
X109347000Y74530858D01*
X109322809Y74482477D01*
X109322809Y74361524D01*
X109347000Y74313143D01*
X109371190Y74288953D01*
X109419571Y74264762D01*
X109467952Y74264762D01*
X109540523Y74288953D01*
X109830809Y74579239D01*
X109830809Y74264762D01*
X109830809Y73780953D02*
X109830809Y74071239D01*
X109830809Y73926096D02*
X109322809Y73926096D01*
X109395380Y73974477D01*
X109443761Y74022858D01*
X109467952Y74071239D01*
X112340571Y71319572D02*
X112364761Y71295381D01*
X112437333Y71271191D01*
X112485714Y71271191D01*
X112558285Y71295381D01*
X112606666Y71343762D01*
X112630857Y71392143D01*
X112655047Y71488905D01*
X112655047Y71561477D01*
X112630857Y71658239D01*
X112606666Y71706620D01*
X112558285Y71755000D01*
X112485714Y71779191D01*
X112437333Y71779191D01*
X112364761Y71755000D01*
X112340571Y71730810D01*
X112171238Y71779191D02*
X111856761Y71779191D01*
X112026095Y71585667D01*
X111953523Y71585667D01*
X111905142Y71561477D01*
X111880952Y71537286D01*
X111856761Y71488905D01*
X111856761Y71367953D01*
X111880952Y71319572D01*
X111905142Y71295381D01*
X111953523Y71271191D01*
X112098666Y71271191D01*
X112147047Y71295381D01*
X112171238Y71319572D01*
X111542285Y71779191D02*
X111493904Y71779191D01*
X111445523Y71755000D01*
X111421333Y71730810D01*
X111397142Y71682429D01*
X111372952Y71585667D01*
X111372952Y71464715D01*
X111397142Y71367953D01*
X111421333Y71319572D01*
X111445523Y71295381D01*
X111493904Y71271191D01*
X111542285Y71271191D01*
X111590666Y71295381D01*
X111614857Y71319572D01*
X111639047Y71367953D01*
X111663238Y71464715D01*
X111663238Y71585667D01*
X111639047Y71682429D01*
X111614857Y71730810D01*
X111590666Y71755000D01*
X111542285Y71779191D01*
X105083428Y74367572D02*
X105107619Y74391762D01*
X105131809Y74464334D01*
X105131809Y74512715D01*
X105107619Y74585286D01*
X105059238Y74633667D01*
X105010857Y74657858D01*
X104914095Y74682048D01*
X104841523Y74682048D01*
X104744761Y74657858D01*
X104696380Y74633667D01*
X104648000Y74585286D01*
X104623809Y74512715D01*
X104623809Y74464334D01*
X104648000Y74391762D01*
X104672190Y74367572D01*
X104623809Y74198239D02*
X104623809Y73883762D01*
X104817333Y74053096D01*
X104817333Y73980524D01*
X104841523Y73932143D01*
X104865714Y73907953D01*
X104914095Y73883762D01*
X105035047Y73883762D01*
X105083428Y73907953D01*
X105107619Y73932143D01*
X105131809Y73980524D01*
X105131809Y74125667D01*
X105107619Y74174048D01*
X105083428Y74198239D01*
X105131809Y73399953D02*
X105131809Y73690239D01*
X105131809Y73545096D02*
X104623809Y73545096D01*
X104696380Y73593477D01*
X104744761Y73641858D01*
X104768952Y73690239D01*
M02*
