G04 #@! TF.FileFunction,Paste,Top*
%FSLAX46Y46*%
G04 Gerber Fmt 4.6, Leading zero omitted, Abs format (unit mm)*
G04 Created by KiCad (PCBNEW (2016-07-28 BZR 6996, Git e15ad93)-product) date Mon Aug  8 00:28:43 2016*
%MOMM*%
%LPD*%
G01*
G04 APERTURE LIST*
%ADD10C,0.100000*%
%ADD11R,1.600000X0.800000*%
%ADD12R,3.000000X2.100000*%
%ADD13R,2.500000X1.000000*%
%ADD14R,0.800000X0.750000*%
%ADD15R,1.000000X2.500000*%
%ADD16R,2.000000X5.000000*%
%ADD17R,0.750000X0.800000*%
%ADD18R,0.599440X1.000760*%
%ADD19R,1.220000X0.910000*%
%ADD20R,0.398780X0.749300*%
%ADD21R,0.500000X0.900000*%
%ADD22R,0.900000X0.500000*%
%ADD23R,0.900000X0.900000*%
%ADD24R,1.000000X2.100000*%
%ADD25R,0.800100X0.800100*%
%ADD26R,0.508000X1.143000*%
%ADD27R,0.400000X1.100000*%
%ADD28R,0.690880X1.000760*%
%ADD29C,1.524000*%
G04 APERTURE END LIST*
D10*
D11*
X4932000Y69907000D03*
X4932000Y68657000D03*
X4932000Y67407000D03*
X4932000Y66157000D03*
X4932000Y64907000D03*
X4932000Y63657000D03*
X4932000Y62407000D03*
X4932000Y61157000D03*
D12*
X2032000Y72457000D03*
X2032000Y58607000D03*
D13*
X76454000Y4850000D03*
X76454000Y7850000D03*
D14*
X91047000Y17399000D03*
X89547000Y17399000D03*
D15*
X89384000Y3810000D03*
X86384000Y3810000D03*
D16*
X95490000Y5080000D03*
X100090000Y5080000D03*
D13*
X48387000Y19534000D03*
X48387000Y16534000D03*
X41783000Y18185000D03*
X41783000Y21185000D03*
D14*
X108573000Y70358000D03*
X107073000Y70358000D03*
X109994000Y70358000D03*
X111494000Y70358000D03*
X109994000Y60833000D03*
X111494000Y60833000D03*
D15*
X40092500Y54356000D03*
X43092500Y54356000D03*
X34075500Y54356000D03*
X31075500Y54356000D03*
D17*
X114046000Y71743000D03*
X114046000Y70243000D03*
D14*
X104763000Y77978000D03*
X103263000Y77978000D03*
X101739000Y84963000D03*
X103239000Y84963000D03*
D15*
X34075500Y57721500D03*
X31075500Y57721500D03*
X40092500Y57721500D03*
X43092500Y57721500D03*
D14*
X116852000Y60833000D03*
X118352000Y60833000D03*
X121170000Y72009000D03*
X122670000Y72009000D03*
D17*
X125349000Y81268000D03*
X125349000Y79768000D03*
D14*
X44716000Y55245000D03*
X46216000Y55245000D03*
X123964000Y60833000D03*
X125464000Y60833000D03*
X47637000Y55245000D03*
X49137000Y55245000D03*
X50558000Y55245000D03*
X52058000Y55245000D03*
X53606000Y55245000D03*
X55106000Y55245000D03*
D17*
X36449000Y18022000D03*
X36449000Y16522000D03*
X36576000Y13704000D03*
X36576000Y12204000D03*
X43053000Y15355000D03*
X43053000Y13855000D03*
D18*
X13731240Y20005040D03*
X12430760Y20005040D03*
X13081000Y21904960D03*
D19*
X111204000Y77747000D03*
X111204000Y74477000D03*
X114204000Y77747000D03*
X114204000Y74477000D03*
X117204000Y77747000D03*
X117204000Y74477000D03*
X116967000Y59293000D03*
X116967000Y56023000D03*
D20*
X16398240Y30667960D03*
X15748000Y30667960D03*
X15097760Y30667960D03*
X15097760Y28768040D03*
X15748000Y28768040D03*
X16398240Y28768040D03*
D21*
X103707500Y42926000D03*
X105207500Y42926000D03*
D22*
X120142000Y77966000D03*
X120142000Y76466000D03*
D21*
X111137000Y72009000D03*
X112637000Y72009000D03*
D22*
X29300000Y54850000D03*
X29300000Y53350000D03*
X107950000Y59448000D03*
X107950000Y60948000D03*
X106299000Y60948000D03*
X106299000Y59448000D03*
X38417500Y55233000D03*
X38417500Y53733000D03*
X35750500Y55233000D03*
X35750500Y53733000D03*
D21*
X101802500Y83312000D03*
X103302500Y83312000D03*
D22*
X27600000Y54850000D03*
X27600000Y53350000D03*
D21*
X115455000Y70358000D03*
X116955000Y70358000D03*
D22*
X35750500Y58725500D03*
X35750500Y57225500D03*
X38417500Y58725500D03*
X38417500Y57225500D03*
X114808000Y59448000D03*
X114808000Y60948000D03*
X113157000Y60948000D03*
X113157000Y59448000D03*
D21*
X122162000Y70358000D03*
X120662000Y70358000D03*
X44716000Y56896000D03*
X46216000Y56896000D03*
X46216000Y53594000D03*
X44716000Y53594000D03*
X47637000Y56896000D03*
X49137000Y56896000D03*
X49137000Y53594000D03*
X47637000Y53594000D03*
D22*
X122047000Y59448000D03*
X122047000Y60948000D03*
X120396000Y60948000D03*
X120396000Y59448000D03*
D21*
X50558000Y56896000D03*
X52058000Y56896000D03*
X52058000Y53594000D03*
X50558000Y53594000D03*
D22*
X76708000Y11799000D03*
X76708000Y10299000D03*
D21*
X53606000Y56896000D03*
X55106000Y56896000D03*
X55106000Y53594000D03*
X53606000Y53594000D03*
D23*
X30123000Y26857000D03*
X30123000Y21657000D03*
X30123000Y25537000D03*
X30123000Y22977000D03*
X30123000Y24257000D03*
X33123000Y22977000D03*
X33123000Y26857000D03*
X33123000Y21657000D03*
X33123000Y25537000D03*
X33123000Y24257000D03*
D22*
X38036500Y18109500D03*
X38036500Y19609500D03*
X43053000Y12307000D03*
X43053000Y10807000D03*
D24*
X81026000Y5080000D03*
X91186000Y5080000D03*
X91186000Y15240000D03*
X88646000Y15240000D03*
X83566000Y15240000D03*
X81026000Y15240000D03*
D25*
X44084240Y20508000D03*
X44084240Y18608000D03*
X46083220Y19558000D03*
D26*
X111125000Y62357000D03*
X109855000Y62357000D03*
X108585000Y62357000D03*
X107315000Y62357000D03*
X107315000Y68707000D03*
X108585000Y68707000D03*
X109855000Y68707000D03*
X111125000Y68707000D03*
X117983000Y62357000D03*
X116713000Y62357000D03*
X115443000Y62357000D03*
X114173000Y62357000D03*
X114173000Y68707000D03*
X115443000Y68707000D03*
X116713000Y68707000D03*
X117983000Y68707000D03*
X125095000Y62357000D03*
X123825000Y62357000D03*
X122555000Y62357000D03*
X121285000Y62357000D03*
X121285000Y68707000D03*
X122555000Y68707000D03*
X123825000Y68707000D03*
X125095000Y68707000D03*
D27*
X35007500Y17899500D03*
X34357500Y17899500D03*
X33707500Y17899500D03*
X33057500Y17899500D03*
X32407500Y17899500D03*
X31757500Y17899500D03*
X31107500Y17899500D03*
X30457500Y17899500D03*
X29807500Y17899500D03*
X29157500Y17899500D03*
X28507500Y17899500D03*
X27857500Y17899500D03*
X27857500Y12199500D03*
X28507500Y12199500D03*
X29157500Y12199500D03*
X29807500Y12199500D03*
X30457500Y12199500D03*
X31107500Y12199500D03*
X31757500Y12199500D03*
X32407500Y12199500D03*
X33057500Y12199500D03*
X33707500Y12199500D03*
X34357500Y12199500D03*
X35007500Y12199500D03*
D28*
X45151040Y11526520D03*
X46101000Y11526520D03*
X47050960Y11526520D03*
X47050960Y14127480D03*
X46101000Y14127480D03*
X45151040Y14127480D03*
D29*
X44577000Y44069000D03*
X42545000Y44069000D03*
D11*
X4932000Y52976000D03*
X4932000Y51726000D03*
X4932000Y50476000D03*
X4932000Y49226000D03*
X4932000Y47976000D03*
X4932000Y46726000D03*
X4932000Y45476000D03*
X4932000Y44226000D03*
X4932000Y42976000D03*
X4932000Y41726000D03*
X4932000Y40476000D03*
X4932000Y39226000D03*
D12*
X2032000Y55526000D03*
X2032000Y36676000D03*
D29*
X36449000Y62484000D03*
X58928000Y55753000D03*
X48514000Y69215000D03*
X62103000Y54102000D03*
X40513000Y61468000D03*
X31623000Y31242000D03*
X44958000Y30734000D03*
X34036000Y30988000D03*
D14*
X137250000Y79600000D03*
X138750000Y79600000D03*
D17*
X138000000Y70650000D03*
X138000000Y72150000D03*
X138000000Y54491000D03*
X138000000Y55991000D03*
X138049000Y38239000D03*
X138049000Y39739000D03*
X138000000Y22173000D03*
X138000000Y23673000D03*
D29*
X33401000Y28702000D03*
M02*
